<svg width="67" height="18" viewBox="0 0 67 18" fill="none" xmlns="http://www.w3.org/2000/svg">
<path d="M6.98418 2.16443H1.63458V15.8171H3.58496V11.6917H6.9656C10.532 11.6917 12.6867 9.89722 12.6867 6.9373C12.6867 3.95888 10.532 2.16443 6.98418 2.16443ZM6.92845 9.98971H3.58496V3.86638H6.90988C9.4175 3.86638 10.7178 4.97635 10.7178 6.9188C10.7363 8.87974 9.4175 9.98971 6.92845 9.98971Z" fill="#00325A"/>
<path d="M35.1439 2.16443H33.1935V15.8171H35.1439V2.16443Z" fill="#00325A"/>
<path d="M49.5767 12.3391L41.3479 2.16443H39.7505V15.8171H41.7009V5.64233L49.9296 15.8171H51.527V2.16443H49.5767V12.3391Z" fill="#00325A"/>
<path d="M54.1461 2.16443V3.86638H58.8456V15.8171H60.7774V3.86638H65.4769V2.16443H54.1461Z" fill="#00325A"/>
<path d="M14.73 8.87974C14.73 12.6536 17.6648 15.965 21.417 16.4645V14.6516C19.2066 14.2631 17.3676 12.6166 16.7547 10.4522L16.6804 10.1747L16.9218 10.3227C17.2005 10.5077 17.5348 10.6187 17.8692 10.6187C18.8165 10.6187 19.6152 9.82322 19.6152 8.87974C19.6152 7.93627 18.8165 7.14079 17.8692 7.14079C17.5348 7.14079 17.2005 7.23329 16.9218 7.43678L16.6804 7.58478L16.7547 7.30729C17.3862 5.14285 19.2066 3.49639 21.417 3.1079V1.29495C17.6648 1.79444 14.73 5.10585 14.73 8.87974Z" fill="#2F99EF"/>
<path d="M23.4231 1.29495V3.1079C25.6521 3.49639 27.4724 5.14285 28.0854 7.30729L28.1597 7.58478L27.9182 7.41828C27.621 7.23329 27.2867 7.12229 26.9523 7.12229C26.005 7.12229 25.2063 7.91777 25.2063 8.86124C25.2063 9.80472 26.005 10.6002 26.9523 10.6002C27.2867 10.6002 27.621 10.4892 27.9182 10.3042L28.1597 10.1377L28.0854 10.4152C27.4724 12.5796 25.6335 14.2261 23.4231 14.6146V16.4645C27.1752 15.965 30.1101 12.6536 30.1101 8.87974C30.1101 5.10585 27.1938 1.79444 23.4231 1.29495Z" fill="#2F99EF"/>
</svg>
