<svg width="93" height="108" viewBox="0 0 93 108" fill="none" xmlns="http://www.w3.org/2000/svg">
<path d="M4.24445 77.5307C4.35192 88.1528 4.24445 103.282 4.24445 103.282H49.8496L39.1917 75.4207L4.24445 77.5307Z" fill="#263238"/>
<path d="M62.7752 72.0173C64.8065 72.6944 69.0589 73.2461 70.7892 73.5363C71.8926 73.9662 73.7197 74.9693 74.3467 75.3276C74.9736 75.6858 73.8773 76.6746 72.5017 76.1909C71.126 75.7073 65.6949 74.6111 65.6949 74.6111L62.7752 72.0173Z" fill="#F28F8F"/>
<path d="M76.2346 80.2822C75.7152 79.3365 75.2065 78.3441 74.6691 77.4485C74.447 77.0902 72.319 75.3456 71.2908 74.6828C71.0411 74.5097 70.7747 74.362 70.4955 74.2422C69.4058 73.8807 68.2957 73.584 67.1709 73.3537C65.9636 73.0349 64.7599 72.6981 63.5884 72.3112C62.6233 72.079 61.7672 71.5225 61.1631 70.7349C60.0274 69.4595 58.6553 68.091 57.5448 66.7942C55.7535 64.6447 50.0215 58.1675 48.8716 56.7632L40.4885 60.9905C40.4885 61.8861 40.4885 63.4195 42.853 65.4436C48.3664 70.1653 51.0497 72.1213 53.9157 74.5001C56.3518 76.5206 56.2694 77.4664 57.6164 78.0324C58.4767 78.3659 59.3703 78.6061 60.2818 78.7489C60.6891 78.8269 61.0921 78.9261 61.4891 79.0463C61.8903 79.1645 64.3551 80.0422 64.6847 80.1676C65.7066 80.5207 66.7046 80.9395 67.6725 81.4215C67.8129 81.4919 67.9461 81.5758 68.0701 81.6722C68.1846 81.7663 68.2891 81.872 68.3818 81.9875C68.6756 82.3278 68.8869 82.7434 69.1771 83.0837C69.3002 83.2242 69.4319 83.357 69.5712 83.4814C70.0727 83.9113 70.7928 84.2624 71.4627 84.0439C71.692 83.9686 71.8747 83.854 71.821 83.5853C71.7665 83.3658 71.677 83.1565 71.5559 82.9655C71.2729 82.4102 71.0938 82.0878 70.6639 81.2997C70.5027 80.9563 70.3096 80.6288 70.0871 80.3216C69.6751 79.9168 69.5819 79.7771 69.238 79.4332C69.5963 79.6123 71.366 80.8053 71.4807 80.9271C71.6992 81.1635 72.1183 82.0269 72.3834 82.4317C72.5204 82.6768 72.7046 82.8922 72.9254 83.0656C73.1461 83.239 73.3991 83.3669 73.6696 83.442C74.472 83.5853 74.7443 83.2342 74.7443 83.1912C74.5318 82.552 74.2645 81.9323 73.9454 81.3391C73.6481 80.662 73.3937 80.0816 73.1644 79.6804C72.8361 79.1741 72.4515 78.7066 72.018 78.2868C72.3512 78.4588 73.3041 79.0714 73.426 79.1645C73.629 79.3444 73.8073 79.5504 73.9562 79.7771C74.3144 80.3324 74.5616 80.7336 75.0596 80.9844C75.2111 81.0733 75.3789 81.1308 75.553 81.1536C75.7272 81.1764 75.9042 81.1639 76.0734 81.117C76.2155 81.0656 76.3357 80.9669 76.4137 80.8375C76.3951 80.6416 76.334 80.4521 76.2346 80.2822Z" fill="#FFB573"/>
<path d="M41.0294 31.0945C43.5837 31.7501 45.0526 32.1227 46.2599 34.4047C47.0588 35.9165 47.9687 40.5272 48.4094 46.3738C48.9861 53.897 48.9897 56.3761 48.9897 56.3761L51.8378 60.0589C51.8378 60.0589 46.9298 61.4131 44.508 67.0627C44.508 67.0627 42.8852 65.7443 41.1871 64.168C39.489 62.5918 39.1558 61.5492 38.6112 58.2677C37.9377 54.2087 37.5114 42.7376 37.5114 42.7376L41.0294 31.0945Z" fill="#37474F"/>
<path d="M44.5188 67.0772C46.9406 61.4276 51.8378 60.0591 51.8378 60.0591L54.3456 63.054C54.3456 63.054 49.3874 64.3867 47.5388 69.3592L44.5188 67.0772Z" fill="#263238"/>
<path d="M54.0303 74.5967C54.4627 74.9829 54.8607 75.406 55.2197 75.8613C56.0186 76.9862 56.1655 78.4801 57.011 79.5728C57.7275 80.5078 58.8595 81.0058 59.834 81.6864C60.6764 82.2663 61.4192 82.9789 62.0336 83.7965C62.245 84.076 62.3919 84.3948 62.5961 84.6742C62.6463 84.7504 62.7116 84.8155 62.7881 84.8654C62.8645 84.9154 62.9503 84.949 63.0403 84.9644C63.1645 84.972 63.2883 84.9453 63.3983 84.8872C63.5082 84.829 63.6 84.7417 63.6637 84.6348C63.7685 84.4741 63.8528 84.3007 63.9144 84.119C63.9568 83.977 63.9797 83.83 63.9825 83.6819C64.0327 82.4961 63.463 81.69 62.8468 80.7586C62.2324 79.8228 61.8098 78.7744 61.6037 77.6741" fill="#FFB573"/>
<path d="M70.3594 83.6461C69.693 83.1804 69.1879 82.2131 68.7867 81.6292C68.3854 81.0452 67.0491 80.5544 66.0998 80.1173C65.1504 79.6803 63.0153 78.3261 62.3883 78.0395C61.7614 77.7529 61.8259 78.6019 62.048 79.236C62.9185 79.5334 64.4303 80.0744 64.6847 80.1711C65.7066 80.5242 66.7046 80.943 67.6725 81.425C67.8136 81.4961 67.9479 81.5801 68.0737 81.6757C68.1862 81.7708 68.2893 81.8764 68.3818 81.991C68.6756 82.3313 68.887 82.7469 69.1771 83.0872C69.3003 83.2277 69.4319 83.3605 69.5712 83.4849C70.0692 83.9148 70.7929 84.2659 71.4628 84.0473C71.5467 84.0219 71.6255 83.9819 71.6956 83.9291C71.4654 83.9755 71.2281 83.9743 70.9983 83.9257C70.7685 83.877 70.5511 83.7819 70.3594 83.6461Z" fill="#F28F8F"/>
<path d="M73.3328 82.9868C72.6378 82.4781 72.4551 81.5109 72.1578 80.9735C71.8604 80.4361 71.4413 79.9883 70.4776 79.3829C69.2785 78.7348 68.0469 78.1489 66.7876 77.6274C66.7876 77.6274 68.7472 79.0604 69.2452 79.4509C69.6034 79.6301 71.3732 80.823 71.4878 80.9448C71.7064 81.1813 72.1255 82.0447 72.3906 82.4495C72.5276 82.6945 72.7118 82.9099 72.9326 83.0833C73.1533 83.2567 73.4062 83.3847 73.6767 83.4597C73.8418 83.5066 74.0149 83.518 74.1846 83.4933C74.3544 83.4686 74.5171 83.4084 74.6619 83.3164C74.4297 83.3595 74.1909 83.3524 73.9617 83.2955C73.7324 83.2387 73.518 83.1334 73.3328 82.9868Z" fill="#F28F8F"/>
<path d="M75.2315 80.7262C74.7658 80.368 74.103 78.6412 73.4403 78.2902C73.082 78.0967 71.3374 76.9181 69.5389 76.4058C70.4489 77.0793 71.4269 77.8029 72.0467 78.2902C72.3799 78.4621 73.3328 79.0747 73.4546 79.1679C73.6576 79.3477 73.8359 79.5537 73.9848 79.7805C74.3431 80.3357 74.5903 80.737 75.0882 80.9878C75.2397 81.0766 75.4075 81.1342 75.5817 81.1569C75.7558 81.1797 75.9328 81.1673 76.1021 81.1203C76.1666 81.0963 76.227 81.0625 76.2812 81.02C76.1451 81.1203 75.6901 81.0845 75.2315 80.7262Z" fill="#F28F8F"/>
<path d="M23.658 31.0944C20.1651 32.0294 14.4581 34.0069 14.4581 34.0069C14.4581 34.0069 10.1018 38.3847 7.55826 47.0436C5.76702 53.0945 3.83605 66.6076 4.24446 77.5306C9.25995 84.0185 28.6878 85.2831 39.1917 75.4205C39.1917 75.4205 38.2459 68.2556 41.18 58.4539C44.8735 46.1229 44.7624 39.8249 43.4978 36.0454C42.7419 33.8099 41.9502 31.8145 41.0295 31.0944C40.4527 30.6824 30.5758 29.2494 23.658 31.0944Z" fill="#455A64"/>
<path d="M20.226 93.6949C23.2245 93.6734 24.7471 93.265 25.8075 93.4513C26.8679 93.6375 28.7272 93.4119 29.2288 93.4799C29.6049 93.9636 29.2288 94.9129 27.8459 95.4216C26.266 95.9984 23.9589 96.6003 23.9589 96.6003L20.226 93.6949Z" fill="#F28F8F"/>
<path d="M12.0041 69.0904L16.4213 49.3114C16.4213 49.3114 18.7249 40.8496 14.4725 34.9814C8.18519 36.8408 5.98196 38.2057 4.49881 45.7289C3.63184 50.1461 2.42454 54.5526 0.558065 66.0094C0.242805 67.9475 -0.290986 67.9117 1.46443 73.0777C1.93732 74.4677 3.12671 78.3475 4.68868 82.3456C6.47992 86.9706 8.43238 92.1186 9.34592 94.9273C9.6146 95.7441 9.80806 96.3603 10.0373 97.2487C10.5353 99.194 11.2303 100.308 12.323 101.111C14.0354 102.375 16.6757 102.683 19.1906 104.091C21.0607 105.141 22.2787 107.316 23.1922 107.645C24.5966 108.136 25.1411 107.559 25.1411 107.559C25.1411 107.559 23.4609 104.048 22.3611 102.902C21.7693 102.319 21.1449 101.77 20.4911 101.258C21.4404 101.476 22.374 101.759 23.2854 102.103C24.2383 102.519 26.0654 105.367 27.7205 106.198C28.7594 106.721 30.2283 106.198 30.1602 105.84C29.9839 105.425 29.7297 105.048 29.4115 104.729C29.5875 104.924 29.8146 105.065 30.0671 105.137C30.6152 105.284 31.1418 105.324 31.6183 104.926C31.8619 104.715 31.1633 103.665 30.2856 102.25C29.0819 100.297 29.2108 100.14 27.6274 98.9146C27.4697 98.7928 26.9109 98.4345 26.9109 98.4345C26.9109 98.4345 27.7599 98.6459 28.4728 98.868C29.1858 99.0901 30.2641 100.681 31.2529 101.254C31.5471 101.44 31.8959 101.52 32.2418 101.481C32.5876 101.442 32.9098 101.286 33.1552 101.039C33.1552 101.039 30.5686 97.1377 29.9739 96.7185C29.3792 96.2994 27.8244 95.7298 26.5132 95.2855C25.202 94.8413 20.1937 93.7307 19.1727 93.3725C17.6716 92.8459 17.6 92.2977 17.4388 91.8428C15.9771 87.8769 12.0041 69.0904 12.0041 69.0904Z" fill="#FFB573"/>
<path d="M26.9288 104.94C26.0296 104.066 24.267 101.885 23.7655 101.559C23.2639 101.233 21.7485 100.892 20.5412 100.731C19.3339 100.57 20.4983 101.261 20.4983 101.261C21.4476 101.48 22.3812 101.763 23.2926 102.107C24.2455 102.522 26.0726 105.37 27.7277 106.201C28.0483 106.343 28.3939 106.418 28.744 106.423C29.0942 106.428 29.4418 106.362 29.7662 106.23C28.5123 106.438 27.8352 105.815 26.9288 104.94Z" fill="#F28F8F"/>
<path d="M29.4115 104.747C28.8916 104.204 28.4126 103.623 27.9785 103.009C27.5343 102.404 27.1223 101.77 26.7139 101.154L26.6386 101.046C26.6136 101.017 26.5992 101.01 26.5741 100.985C26.5491 100.96 26.438 100.888 26.3592 100.838C26.2052 100.742 26.0439 100.652 25.8827 100.559L24.9083 100.007C24.2539 99.6465 23.6043 99.2703 22.9594 98.8787C23.6759 99.1294 24.3673 99.4125 25.048 99.7313C25.4063 99.8853 25.7287 100.057 26.0654 100.229C26.2338 100.315 26.3986 100.408 26.5634 100.509C26.6458 100.555 26.7318 100.616 26.8142 100.673C26.8658 100.712 26.9127 100.757 26.9539 100.806L27.0435 100.928C27.8531 102.196 28.6054 103.475 29.4115 104.747Z" fill="#F28F8F"/>
<path d="M30.2426 99.5632C29.4903 98.6998 29.3649 98.6031 28.2901 98.2412C27.2154 97.8794 25.1519 97.342 25.1519 97.342L26.9431 98.4526C26.9431 98.4526 27.7922 98.664 28.5051 98.8861C29.218 99.1082 30.2963 100.699 31.2851 101.272C31.5297 101.43 31.8145 101.513 32.1055 101.513C32.3964 101.513 32.6812 101.43 32.9259 101.272C31.4714 101.394 30.9949 100.427 30.2426 99.5632Z" fill="#F28F8F"/>
<path d="M14.4581 34.0071C11.5921 34.9815 9.00196 35.7983 7.22863 38.3526C5.34066 41.0861 4.47727 43.8983 3.141 50.8305C1.80473 57.7626 0.332329 65.053 0.0815549 66.9266C-0.16922 68.8002 0.185448 69.8105 0.769394 71.6161C1.35334 73.4217 2.83649 77.5917 2.83649 77.5917C2.83649 77.5917 4.56684 75.8004 8.31412 74.7257C12.0614 73.6509 13.3833 74.3137 13.3833 74.3137L12.237 69.0331C12.237 69.0331 15.9412 52.8474 16.5825 50.1713C17.2238 47.4952 18.603 39.6173 14.4581 34.0071Z" fill="#37474F"/>
<path d="M13.3834 74.321C13.3834 74.321 12.0722 73.6725 8.31418 74.7473C4.55614 75.822 2.83655 77.6133 2.83655 77.6133L4.3197 81.7761C4.3197 81.7761 7.99534 79.2684 14.2325 78.8278L13.3834 74.321Z" fill="#263238"/>
<path d="M45.5792 14.0706C47.2272 11.0935 46.2957 6.85184 44.8627 4.75609C42.7885 1.73963 39.2669 0.18841 33.757 0.00928501C29.5619 -0.12685 25.2951 1.213 24.1093 5.41885C19.8856 6.34313 19.7208 11.3049 20.3119 13.809C21.5335 18.8998 24.3959 23.0949 25.1053 26.2976L45.5792 14.0706Z" fill="#263238"/>
<path d="M44.4759 25.6672C43.591 27.985 42.0469 29.6079 39.8186 29.7333C38.4859 29.8157 36.0678 29.4037 36.0678 29.4037L35.0611 33.3444C36.3902 36.6762 35.3011 38.8543 33.56 41.749C29.8665 35.3793 25.134 36.1674 23.1278 32.4703L25.134 21.6691C25.134 21.6691 23.8622 23.1523 21.7772 21.4971C20.3442 20.3543 19.5023 17.6854 20.835 15.4069C22.1677 13.1284 24.267 14.3608 24.8796 15.1275C25.4922 15.8941 26.1514 17.2985 26.7354 17.1659C27.0701 17.0967 27.3823 16.9452 27.6438 16.725C27.9053 16.5049 28.1077 16.223 28.2328 15.9049C28.7201 14.9448 29.1249 13.6873 29.3757 11.4733C30.0205 11.219 30.7585 10.9252 31.2242 10.309C31.8225 9.52087 31.9192 8.38881 33.4203 7.13135C35.7023 5.22547 43.5946 5.77001 45.1744 8.9226C46.1238 11.0327 45.7226 15.6935 45.6545 18.3947C45.5793 21.3073 45.2174 23.7255 44.4759 25.6672Z" fill="#FFB573"/>
<path d="M36.1824 22.0273C35.2617 22.1814 33.7714 23.2525 34.1189 23.8902C34.4664 24.5279 35.5232 24.0693 36.7412 24.5816C37.9593 25.0939 38.1456 25.7889 38.9946 25.4844C39.6789 25.2372 39.3529 23.3851 38.7439 22.7904C38.3982 22.4844 37.9899 22.2575 37.5474 22.1257C37.105 21.9939 36.6391 21.9603 36.1824 22.0273Z" fill="#B16668"/>
<path d="M38.9875 23.1235C38.9237 23.0007 38.8416 22.8884 38.7439 22.7904C38.3982 22.4844 37.9899 22.2575 37.5475 22.1257C37.105 21.9939 36.6392 21.9603 36.1824 22.0273C35.9849 22.0642 35.7925 22.1243 35.6092 22.2064C36.6496 22.7682 37.8058 23.0821 38.9875 23.1235Z" fill="#FAFAFA"/>
<path d="M36.7914 24.5924C36.7433 24.0812 36.5091 23.6054 36.1333 23.2554C35.7576 22.9054 35.2664 22.7055 34.753 22.6937C34.2586 23.0771 33.9218 23.5356 34.1081 23.8759C34.4664 24.5101 35.5125 24.0551 36.7305 24.5674L36.7914 24.5924Z" fill="#F28F8F"/>
<path d="M34.7099 17.0153C34.7099 17.5706 33.9934 18.0077 33.1623 17.9934C32.3311 17.979 31.6433 17.5169 31.6541 16.9616C31.6648 16.4063 32.3706 15.9728 33.1981 15.9872C34.0257 16.0015 34.7207 16.4636 34.7099 17.0153Z" fill="#F28F8F"/>
<path d="M46.0449 17.4632C46.0449 18.0184 45.3284 18.4555 44.4973 18.4412C43.6662 18.4268 42.9783 17.9647 42.9891 17.4094C42.9998 16.8541 43.7056 16.4171 44.5331 16.435C45.3607 16.4529 46.0557 16.9114 46.0449 17.4632Z" fill="#F28F8F"/>
<path d="M36.0749 29.3963C33.6567 29.0381 29.1464 27.4439 27.9713 25.9607C26.7963 24.4776 26.5061 21.6617 26.5061 21.6617C26.5061 21.6617 26.3664 25.1905 27.2226 26.8349C28.0788 28.4792 30.565 29.3963 32.0733 29.9266C33.5815 30.4568 35.6343 31.1088 35.6343 31.1088L36.0749 29.3963Z" fill="#F28F8F"/>
<path d="M36.2218 16.2558C36.1986 16.3799 36.151 16.4982 36.0817 16.6038C36.0125 16.7094 35.9229 16.8002 35.8182 16.8709C35.7135 16.9415 35.5959 16.9907 35.472 17.0155C35.3482 17.0403 35.2207 17.0402 35.0969 17.0153C34.8319 16.972 34.5915 16.8343 34.4202 16.6275C34.249 16.4206 34.1584 16.1588 34.1654 15.8904C34.1654 15.1739 34.7673 14.7869 35.5554 15.1201C36.1824 15.3888 36.3328 15.7435 36.2218 16.2558Z" fill="#263238"/>
<path d="M34.7924 12.8273L37.1281 14.4895C36.8585 14.6438 36.5505 14.718 36.2402 14.7034C35.9299 14.6888 35.6303 14.586 35.3763 14.4071C35.1124 14.2508 34.9104 14.0085 34.8041 13.7208C34.6977 13.4331 34.6936 13.1176 34.7924 12.8273Z" fill="#263238"/>
<path d="M41.7138 16.3526C41.7519 16.6004 41.886 16.8232 42.0872 16.9727C42.2883 17.1222 42.5403 17.1865 42.7885 17.1515C43.0528 17.119 43.2966 16.9925 43.4755 16.7953C43.6543 16.598 43.7564 16.343 43.763 16.0768C43.7809 15.3603 43.2005 14.9519 42.4016 15.26C41.7818 15.4893 41.6206 15.8403 41.7138 16.3526Z" fill="#263238"/>
<path d="M43.5981 12.9993L41.1943 14.5612C41.3412 14.7798 42.1795 15.0341 42.9425 14.5147C43.2036 14.3697 43.4094 14.1425 43.528 13.8684C43.6466 13.5944 43.6712 13.2888 43.5981 12.9993Z" fill="#263238"/>
<path d="M38.5289 13.9954L39.0268 21.0421L42.7419 19.7847L38.5289 13.9954Z" fill="#F28F8F"/>
<path d="M23.8407 28.5939C23.5648 30.0699 23.9768 31.4205 25.7251 33.0828C27.4733 34.745 30.3465 36.3715 31.0128 37.0808C31.6792 37.7902 33.5564 41.7381 33.5564 41.7381C33.5564 41.7381 31.5538 39.0082 31.0487 38.7144C30.5435 38.4207 28.0931 42.1286 27.6346 43.0457C27.176 43.9628 27.2584 43.9628 26.0117 43.0457C23.5935 41.2544 21.2971 37.7149 20.638 35.655C19.8964 33.3228 20.1579 32.0976 20.1579 32.0976C21.1822 31.4504 21.9856 30.5071 22.4614 29.3928C23.0705 28.0315 23.5362 27.7413 23.9661 27.8774L23.8407 28.5939Z" fill="#37474F"/>
<path d="M33.5671 41.7271C34.1403 40.5485 35.1112 38.288 35.3584 37.292C35.6056 36.2961 35.079 33.3226 35.079 33.3226L36.0283 29.6255C36.3714 29.9057 36.6469 30.2596 36.8344 30.6608C37.5294 32.058 38.6579 34.6016 38.8513 36.2173C39.1558 38.7788 38.8513 40.6846 38.751 40.8745C38.5146 41.3904 37.6225 37.6503 36.7842 37.6897C36.2182 37.7219 33.5671 41.7271 33.5671 41.7271Z" fill="#37474F"/>
<path d="M21.7664 4.88853C21.5867 4.71344 21.3828 4.56505 21.161 4.44788C21.058 4.37559 20.941 4.32579 20.8176 4.30171C20.6941 4.27764 20.567 4.27984 20.4445 4.30817C20.4281 4.3207 20.4146 4.33646 20.4046 4.35445C20.3946 4.37244 20.3884 4.39229 20.3864 4.41278C20.3844 4.43326 20.3866 4.45394 20.3929 4.47353C20.3992 4.49313 20.4094 4.51122 20.423 4.5267C20.6415 4.69149 20.9066 4.75956 21.1395 4.88495C21.3368 5.00369 21.5144 5.15234 21.6661 5.3256C21.8316 5.50692 21.9562 5.72164 22.0316 5.95525C22.107 6.18886 22.1314 6.43593 22.1032 6.67978C21.9205 7.87991 20.5484 8.05904 19.5596 8.03038C19.5202 8.03038 19.47 8.03038 19.47 8.08053C19.47 8.13069 19.47 8.11636 19.5059 8.13069C19.8606 8.35492 20.2828 8.44748 20.6988 8.39221C21.1968 8.32772 21.9706 8.1271 22.3253 7.5145C22.8197 6.64754 22.4256 5.51905 21.7664 4.88853Z" fill="#2196F3"/>
<path d="M26.2123 2.82849C26.1846 2.82895 26.158 2.83909 26.137 2.85715C26.0862 2.91183 26.0569 2.98312 26.0546 3.05777C26.005 3.57565 25.8169 4.07063 25.5101 4.49077C25.3562 4.69822 25.155 4.86594 24.9232 4.97996C24.6914 5.09399 24.4357 5.15104 24.1774 5.14636C23.9541 5.13205 23.7382 5.06049 23.5505 4.93858C23.3976 4.81033 23.2886 4.63747 23.2388 4.44419C23.0326 3.87023 22.9366 3.26252 22.9558 2.65295C22.9558 2.52756 22.8089 2.39143 22.7444 2.56339C22.6947 2.69052 22.654 2.82101 22.6226 2.95388C22.5958 3.12084 22.5886 3.29037 22.6011 3.45901C22.6089 3.73587 22.6473 4.01102 22.7158 4.2794C22.8555 4.80603 23.1134 5.35415 23.6472 5.59059C23.8806 5.6699 24.1274 5.70218 24.3734 5.68558C24.6193 5.66898 24.8596 5.60382 25.0802 5.49386C25.5272 5.2882 25.8937 4.94059 26.1227 4.5051C26.2762 4.21054 26.3665 3.88719 26.3878 3.55574C26.4022 3.47334 26.4021 2.82849 26.2123 2.82849Z" fill="#2196F3"/>
<path d="M28.1289 6.02038C27.133 5.57615 25.7179 5.7302 25.091 6.70463C24.464 7.67907 25.0121 8.87562 25.8791 9.42733C26.1173 9.57728 26.3807 9.68288 26.6565 9.73901C26.8707 9.78411 27.0899 9.80097 27.3085 9.78916C27.3238 9.78994 27.339 9.78747 27.3532 9.78191C27.3674 9.77635 27.3803 9.76783 27.3909 9.75692C27.4267 9.71034 27.3587 9.65303 27.2978 9.62795C26.4953 9.31985 25.2343 8.62485 25.3883 7.58951C25.4417 7.3501 25.5524 7.12722 25.7109 6.94002C25.8694 6.75281 26.0709 6.60689 26.2983 6.51476C26.5436 6.40222 26.8067 6.33312 27.0757 6.31056C27.4124 6.2819 27.7492 6.31056 28.0859 6.31056C28.1934 6.32131 28.2364 6.06695 28.1289 6.02038Z" fill="#2196F3"/>
<path d="M25.0301 10.7459C25.0864 10.1612 24.9382 9.57499 24.6109 9.0872C24.4539 8.82838 24.214 8.63018 23.9303 8.52475C23.5908 8.40098 23.2227 8.37877 22.8709 8.46084C22.5191 8.54292 22.1988 8.72571 21.9491 8.98689C21.6892 9.29456 21.4844 9.64482 21.3437 10.0222C21.2975 10.1222 21.258 10.2251 21.2255 10.3303C21.1916 10.4469 21.1724 10.5672 21.1682 10.6886C21.2685 10.6886 21.3365 10.5918 21.3795 10.5023C21.6401 9.96282 22.0303 9.49632 22.5152 9.14452C22.6406 9.04627 22.7826 8.97106 22.9343 8.9224C23.196 8.8557 23.4722 8.87453 23.7225 8.97614C23.9505 9.09923 24.1441 9.27749 24.2855 9.49464C24.427 9.71179 24.5117 9.96092 24.5321 10.2193C24.5715 10.4629 24.593 10.7065 24.6109 10.9358C24.6119 11.1428 24.6239 11.3497 24.6468 11.5555C24.6495 11.5726 24.6576 11.5883 24.6698 11.6005C24.682 11.6128 24.6978 11.6208 24.7148 11.6236C24.7542 11.6236 24.7829 11.5914 24.8044 11.5591C24.8679 11.4589 24.9139 11.3487 24.9405 11.2331C24.9858 11.0739 25.0158 10.9108 25.0301 10.7459Z" fill="#2196F3"/>
<path d="M5.67389 20.1966L10.7861 19.7416L11.2554 21.3215L13.8312 19.9924L14.0892 21.4218L17.4245 20.4437L12.9428 23.7611L12.7063 22.1633L9.69703 24.3487L9.12383 22.1347L6.265 23.9761L5.67389 20.1966Z" fill="#2196F3"/>
<path opacity="0.3" d="M5.67389 20.1966L10.7861 19.7416L11.2554 21.3215L13.8312 19.9924L14.0892 21.4218L17.4245 20.4437L12.9428 23.7611L12.7063 22.1633L9.69703 24.3487L9.12383 22.1347L6.265 23.9761L5.67389 20.1966Z" fill="white"/>
<path d="M15.0779 15.6753L14.7197 17.4057L17.797 19.025L13.0216 18.3909L13.2114 16.9793L9.52863 16.4563L10.6965 13.7981L15.0779 15.6753Z" fill="#2196F3"/>
<path opacity="0.3" d="M15.0779 15.6753L14.7197 17.4057L17.797 19.025L13.0216 18.3909L13.2114 16.9793L9.52863 16.4563L10.6965 13.7981L15.0779 15.6753Z" fill="white"/>
<path d="M12.7313 25.0509L14.3936 25.6563L17.8006 21.9413L15.3466 27.5371L13.8097 27.0356L12.2441 30.3386L9.9585 28.3253L12.7313 25.0509Z" fill="#2196F3"/>
<path opacity="0.3" d="M12.7313 25.0509L14.3936 25.6563L17.8006 21.9413L15.3466 27.5371L13.8097 27.0356L12.2441 30.3386L9.9585 28.3253L12.7313 25.0509Z" fill="white"/>
<path d="M49.0722 25.4486C49.5773 25.3877 50.0825 25.3519 50.5912 25.3053L52.1102 25.2014C53.124 25.1297 54.1378 25.0903 55.1517 25.0545C56.1655 25.0187 57.183 24.9972 58.1968 24.9972H59.7194C60.2281 24.9972 60.7332 24.9972 61.2419 25.0438C60.7368 25.1047 60.2317 25.1405 59.723 25.1871L58.204 25.2945C57.1901 25.3626 56.1763 25.402 55.1624 25.4378C54.1486 25.4737 53.1312 25.4952 52.1173 25.4952H50.5948C50.0896 25.4772 49.5809 25.4772 49.0722 25.4486Z" fill="#2196F3"/>
<path d="M46.6539 24.4131C47.2343 24.2411 47.8218 24.0978 48.4022 23.9402L50.1612 23.5067C51.3327 23.2201 52.5113 22.9622 53.6899 22.7042C54.8686 22.4463 56.0544 22.2098 57.2402 21.9877L59.0314 21.6617C59.6297 21.5686 60.2208 21.4611 60.8227 21.3751C60.2423 21.5471 59.6548 21.6904 59.0708 21.848L57.3118 22.2815C56.1404 22.5681 54.9617 22.826 53.7831 23.084C52.6044 23.3419 51.4222 23.5784 50.2364 23.8005L48.4452 24.1265C47.8469 24.234 47.2522 24.3271 46.6539 24.4131Z" fill="#2196F3"/>
<path d="M48.1694 22.0416C48.6172 21.841 49.0757 21.6618 49.5307 21.472L50.9028 20.9453C51.8199 20.5871 52.7478 20.2718 53.6757 19.9458C54.6035 19.6198 55.535 19.3189 56.4736 19.0359L57.8851 18.6096C58.358 18.4806 58.8273 18.3409 59.3181 18.2227C58.8667 18.4233 58.4117 18.6024 57.9567 18.7887L56.5811 19.3189C55.6639 19.6771 54.7397 19.9924 53.8118 20.3148C52.8839 20.6373 51.9525 20.9418 51.0103 21.2284L49.6024 21.6511C49.1152 21.7801 48.6458 21.9234 48.1694 22.0416Z" fill="#2196F3"/>
<path d="M64.9104 29.5504C65.0947 30.3139 65.3891 31.0464 65.7845 31.725C66.3838 32.7208 67.2104 33.5604 68.1968 34.1751C69.1832 34.7897 70.3012 35.1618 71.4592 35.2609C72.2176 35.31 72.9791 35.2485 73.7197 35.0782C74.8133 34.8134 75.8279 34.2913 76.679 33.5554C77.5302 32.8196 78.1934 31.8911 78.6134 30.8473L79.4983 31.2306C78.795 32.7543 77.6258 34.0151 76.1594 34.831C75.4383 35.23 74.6583 35.5117 73.8487 35.6657C73.0434 35.8088 72.2216 35.8341 71.409 35.741C69.7934 35.5266 68.2878 34.804 67.1101 33.6774C66.5317 33.1286 66.0476 32.4883 65.6771 31.7823C65.3127 31.0803 65.0543 30.3282 64.9104 29.5504Z" fill="#2196F3"/>
<path d="M76.9619 29.8336C77.8519 30.3885 78.8331 30.7815 79.8601 30.9943C80.8569 31.1965 81.883 31.2074 82.8838 31.0265C84.8635 30.6716 86.6296 29.5655 87.8132 27.9394C88.9968 26.3132 89.5064 24.2926 89.2355 22.2996C88.9366 20.2379 87.8819 18.3609 86.2764 17.0333C87.2381 17.5439 88.073 18.2638 88.7197 19.1398C89.3798 20.0366 89.8415 21.0637 90.0738 22.1527C90.3121 23.2565 90.3121 24.3985 90.0738 25.5023C89.8348 26.6138 89.3654 27.6628 88.6958 28.5816C88.0263 29.5004 87.1716 30.2686 86.1868 30.8367L85.8286 31.0409C85.7032 31.1089 85.5706 31.1555 85.4417 31.2164L85.0548 31.3812C84.9258 31.4385 84.7861 31.4708 84.6535 31.5173C84.123 31.7023 83.5721 31.8226 83.0127 31.8756C81.9059 31.9914 80.787 31.8692 79.7312 31.5173C78.6957 31.1662 77.7502 30.5913 76.9619 29.8336Z" fill="#2196F3"/>
<path d="M89.1746 20.2932L88.4975 19.4334C89.8479 18.3782 90.7887 16.8856 91.1584 15.2121C91.528 13.5386 91.3033 11.7886 90.523 10.2627C89.7427 8.73684 88.4554 7.53029 86.8822 6.85031C85.3091 6.17033 83.5482 6.05937 81.9021 6.53648C81.4306 6.67186 80.9734 6.85305 80.5372 7.07744L80.0356 6.10658C80.535 5.84707 81.0595 5.6394 81.6012 5.48681C83.491 4.93914 85.5125 5.06654 87.3185 5.84713C89.1246 6.62773 90.6025 8.0128 91.4985 9.76449C92.3945 11.5162 92.6526 13.5252 92.2285 15.4465C91.8045 17.3678 90.7247 19.0815 89.1746 20.2932Z" fill="#2196F3"/>
<path d="M67.4325 6.55091C66.2364 6.44042 65.0312 6.61643 63.9167 7.06436C62.8022 7.51229 61.8104 8.21925 61.0234 9.12672C60.2173 10.0612 59.6473 11.1755 59.3611 12.376C59.0692 13.5984 59.0692 14.8723 59.3611 16.0947C58.7712 14.2237 58.8766 12.2026 59.6579 10.4031C60.4391 8.6036 61.8438 7.14664 63.6135 6.30013C64.8212 5.71074 66.1538 5.42308 67.497 5.46183L67.4325 6.55091Z" fill="#2196F3"/>
<path d="M79.3657 12.1539C79.9063 11.1633 80.2023 10.0579 80.2291 8.92969C80.2563 7.84308 80.0229 6.76576 79.5485 5.78785C79.0753 4.83224 78.3755 4.00695 77.51 3.38399C77.0844 3.07541 76.6238 2.81808 76.1379 2.61734C75.1526 2.24427 74.0955 2.09973 73.0462 2.19461C72.5252 2.25336 72.0129 2.37361 71.5201 2.55286C70.521 2.92243 69.6271 3.52986 68.9156 4.32261C68.1979 5.13914 67.6836 6.11384 67.4145 7.16711C67.1428 8.25885 67.1342 9.39953 67.3895 10.4952C66.9074 9.42239 66.7337 8.23642 66.8879 7.07038C67.0568 5.88535 67.5281 4.76382 68.2564 3.81389C69.3984 2.34929 71.0719 1.39412 72.9137 1.15568C73.5261 1.07685 74.1462 1.07685 74.7587 1.15568C75.373 1.24225 75.9746 1.40346 76.5499 1.63574C76.8326 1.75768 77.1078 1.89646 77.3739 2.05131L77.768 2.28775C77.8969 2.37731 78.0151 2.47404 78.1262 2.5636C79.095 3.3108 79.851 4.299 80.3187 5.4296C80.7737 6.54905 80.9245 7.76896 80.7558 8.96552C80.5977 10.1368 80.1164 11.241 79.3657 12.1539Z" fill="#2196F3"/>
<path d="M59.8161 26.7885C59.654 27.5344 59.7343 28.3125 60.0454 29.0096C60.3327 29.6928 60.7979 30.2866 61.3924 30.7292C61.968 31.1601 62.659 31.4096 63.3771 31.4457C64.0858 31.4698 64.7918 31.3479 65.4514 31.0874L65.7595 31.9974C64.9579 32.2274 64.1172 32.2872 63.2911 32.1729C62.467 32.0391 61.7006 31.6653 61.0879 31.0982C60.4915 30.5551 60.0532 29.8606 59.8197 29.0884C59.5757 28.3414 59.5745 27.5363 59.8161 26.7885Z" fill="#2196F3"/>
<path d="M63.2553 21.4646C63.2495 21.4262 63.2516 21.387 63.2615 21.3495C63.2713 21.3119 63.2887 21.2767 63.3126 21.2461C63.3609 21.1838 63.4316 21.1427 63.5096 21.1314L64.8889 20.9559C64.9671 20.9467 65.0459 20.9686 65.1081 21.0168C65.1704 21.0651 65.2113 21.1358 65.2221 21.2138L65.3618 22.3172C65.3677 22.3559 65.3653 22.3954 65.3548 22.4331C65.3443 22.4707 65.3259 22.5058 65.3009 22.5358C65.2779 22.5668 65.2489 22.5929 65.2157 22.6126C65.1825 22.6323 65.1457 22.6451 65.1074 22.6504L63.7282 22.826C63.6895 22.8319 63.65 22.8295 63.6123 22.819C63.5747 22.8085 63.5397 22.7901 63.5096 22.7651C63.4786 22.7421 63.4525 22.7131 63.4328 22.6799C63.4131 22.6467 63.4003 22.6099 63.395 22.5716L63.2553 21.4646ZM62.485 15.5105C62.4798 15.4719 62.4825 15.4325 62.4929 15.395C62.5034 15.3574 62.5214 15.3223 62.5459 15.292C62.5683 15.2604 62.5971 15.2338 62.6305 15.2141C62.6638 15.1943 62.7009 15.1818 62.7394 15.1773L64.1186 14.9982C64.1573 14.993 64.1966 14.9957 64.2342 15.0061C64.2718 15.0166 64.3068 15.0346 64.3372 15.0591C64.3683 15.0828 64.3945 15.1124 64.4141 15.1462C64.4338 15.18 64.4466 15.2174 64.4518 15.2562L65.0608 19.9671C65.0659 20.0058 65.0631 20.0451 65.0526 20.0826C65.0422 20.1201 65.0243 20.1552 64.9999 20.1857C64.9763 20.2168 64.9467 20.2429 64.9128 20.2626C64.879 20.2823 64.8417 20.2951 64.8029 20.3003L63.4272 20.4758C63.3886 20.4822 63.349 20.4801 63.3112 20.4696C63.2735 20.4591 63.2385 20.4404 63.2087 20.4149C63.1766 20.3931 63.1497 20.3644 63.1299 20.331C63.11 20.2975 63.0978 20.2602 63.0941 20.2215L62.485 15.5105Z" fill="#2196F3"/>
<path d="M66.6515 22.2745C66.652 22.2353 66.6605 22.1967 66.6765 22.1609C66.6925 22.1252 66.7157 22.0931 66.7446 22.0667C66.7714 22.0387 66.8037 22.0167 66.8395 22.0019C66.8752 21.9871 66.9137 21.9798 66.9524 21.9807L68.3424 22.0022C68.3813 22.002 68.4199 22.0099 68.4556 22.0253C68.4914 22.0407 68.5236 22.0633 68.5502 22.0917C68.6055 22.1482 68.6364 22.2241 68.6362 22.3031V23.4173C68.6363 23.4562 68.6285 23.4947 68.6131 23.5305C68.5976 23.5663 68.575 23.5984 68.5466 23.6251C68.4902 23.6803 68.4143 23.7112 68.3352 23.711L66.9452 23.6895C66.9061 23.6886 66.8676 23.6799 66.832 23.6639C66.7963 23.6479 66.7641 23.625 66.7375 23.5964C66.7096 23.5688 66.6876 23.5358 66.6728 23.4995C66.658 23.4632 66.6508 23.4242 66.6515 23.385V22.2745ZM66.7446 16.2702C66.7448 16.2308 66.7528 16.1918 66.7682 16.1555C66.7836 16.1192 66.806 16.0864 66.8342 16.0588C66.8618 16.0313 66.8949 16.0097 66.9312 15.9955C66.9676 15.9813 67.0065 15.9748 67.0455 15.9764L68.4356 15.9979C68.4744 15.9982 68.5128 16.0062 68.5485 16.0216C68.5842 16.037 68.6165 16.0594 68.6433 16.0875C68.671 16.1152 68.6929 16.1482 68.7077 16.1845C68.7225 16.2208 68.7298 16.2597 68.7293 16.2989L68.6541 21.0492C68.6538 21.0881 68.6458 21.1265 68.6304 21.1622C68.615 21.1979 68.5926 21.2302 68.5645 21.257C68.537 21.2848 68.504 21.3064 68.4676 21.3206C68.4312 21.3348 68.3922 21.3412 68.3532 21.3394L66.9631 21.3179C66.9242 21.3181 66.8857 21.3102 66.8499 21.2948C66.8142 21.2794 66.782 21.2568 66.7554 21.2284C66.7276 21.2009 66.7059 21.1678 66.6918 21.1314C66.6776 21.095 66.6712 21.056 66.673 21.017L66.7446 16.2702Z" fill="#2196F3"/>
<g opacity="0.2">
<path opacity="0.2" d="M66.6515 22.2745C66.652 22.2353 66.6605 22.1967 66.6765 22.1609C66.6925 22.1252 66.7157 22.0931 66.7446 22.0667C66.7714 22.0387 66.8037 22.0167 66.8395 22.0019C66.8752 21.9871 66.9137 21.9798 66.9524 21.9807L68.3424 22.0022C68.3813 22.002 68.4199 22.0099 68.4556 22.0253C68.4914 22.0407 68.5236 22.0633 68.5502 22.0917C68.6055 22.1482 68.6364 22.2241 68.6362 22.3031V23.4173C68.6363 23.4562 68.6285 23.4947 68.6131 23.5305C68.5976 23.5663 68.575 23.5984 68.5466 23.6251C68.4902 23.6803 68.4143 23.7112 68.3352 23.711L66.9452 23.6895C66.9061 23.6886 66.8676 23.6799 66.832 23.6639C66.7963 23.6479 66.7641 23.625 66.7375 23.5964C66.7096 23.5688 66.6876 23.5358 66.6728 23.4995C66.658 23.4632 66.6508 23.4242 66.6515 23.385V22.2745ZM66.7446 16.2702C66.7448 16.2308 66.7528 16.1918 66.7682 16.1555C66.7836 16.1192 66.806 16.0864 66.8342 16.0588C66.8618 16.0313 66.8949 16.0097 66.9312 15.9955C66.9676 15.9813 67.0065 15.9748 67.0455 15.9764L68.4356 15.9979C68.4744 15.9982 68.5128 16.0062 68.5485 16.0216C68.5842 16.037 68.6165 16.0594 68.6433 16.0875C68.671 16.1152 68.6929 16.1482 68.7077 16.1845C68.7225 16.2208 68.7298 16.2597 68.7293 16.2989L68.6541 21.0492C68.6538 21.0881 68.6458 21.1265 68.6304 21.1622C68.615 21.1979 68.5926 21.2302 68.5645 21.257C68.537 21.2848 68.504 21.3064 68.4676 21.3206C68.4312 21.3348 68.3922 21.3412 68.3532 21.3394L66.9631 21.3179C66.9242 21.3181 66.8857 21.3102 66.8499 21.2948C66.8142 21.2794 66.782 21.2568 66.7554 21.2284C66.7276 21.2009 66.7059 21.1678 66.6918 21.1314C66.6776 21.095 66.6712 21.056 66.673 21.017L66.7446 16.2702Z" fill="white"/>
</g>
<path d="M76.0699 22.6757C75.0668 23.2596 73.9598 23.711 72.8134 23.2489C72.3395 23.0583 71.936 22.7263 71.6578 22.2981C71.3795 21.8698 71.2401 21.3662 71.2586 20.8558C71.2944 20.2232 71.5775 19.63 72.0467 19.2042C72.5327 18.8114 73.1457 18.6101 73.7699 18.6382C74.041 18.6413 74.3078 18.7058 74.5503 18.8269C74.7927 18.9481 75.0046 19.1226 75.1698 19.3375C75.335 19.5524 75.4493 19.802 75.5041 20.0675C75.5588 20.3329 75.5526 20.6074 75.4859 20.8701C75.3032 21.5365 74.3252 21.6654 73.8093 21.343C73.6745 21.241 73.572 21.1022 73.5142 20.9433C73.4563 20.7844 73.4456 20.6122 73.4833 20.4474C73.5279 20.3227 73.6156 20.2181 73.7306 20.1524C73.8455 20.0867 73.9802 20.0643 74.1102 20.0891C74.2786 20.1429 74.2464 19.8312 74.1676 19.7667C74.0365 19.6764 73.879 19.6323 73.7201 19.6413C73.5612 19.6504 73.4098 19.7122 73.2899 19.8169C73.155 19.9153 73.0446 20.0434 72.9669 20.1912C72.8893 20.339 72.8466 20.5026 72.842 20.6695C72.842 21.3502 73.3257 22.0667 74.4757 22.0487C74.8528 22.0648 75.2226 21.9414 75.5147 21.7022C75.8067 21.4631 76.0005 21.1248 76.0591 20.7519C76.0955 20.3955 76.0516 20.0355 75.9308 19.6983C75.8099 19.361 75.615 19.0551 75.3605 18.803C75.0919 18.5225 74.7618 18.3082 74.3963 18.177C74.0307 18.0459 73.6397 18.0014 73.254 18.0471C72.6675 18.1083 72.1135 18.3467 71.6659 18.7307C71.2183 19.1146 70.8983 19.6258 70.7485 20.1962C70.5987 20.7666 70.6262 21.369 70.8275 21.9234C71.0287 22.4777 71.394 22.9575 71.8748 23.299C72.4987 23.8237 73.2957 24.097 74.1102 24.0657C74.5276 24.0707 74.9408 23.9822 75.3196 23.8068C75.6983 23.6314 76.033 23.3734 76.2991 23.0518C76.3959 22.905 76.2597 22.5646 76.0699 22.6757Z" fill="#2196F3"/>
<path d="M82.5577 22.69C81.9845 21.5759 81.483 20.433 81.0065 19.2759C80.7736 18.7134 80.5587 18.1438 80.3545 17.5706C80.1494 16.9152 79.8881 16.2787 79.5735 15.6683C79.4983 15.5394 79.3729 15.6038 79.3621 15.7328C79.3748 16.4001 79.5096 17.0594 79.7598 17.6781C79.97 18.3325 80.1992 18.9821 80.4476 19.627C80.6841 20.2396 80.9527 20.845 81.2322 21.4433C81.3683 21.7406 81.5116 22.038 81.6585 22.3353C81.8054 22.6327 81.9093 22.9479 82.2424 23.102C82.272 23.1238 82.3078 23.1356 82.3446 23.1356C82.3813 23.1356 82.4171 23.1238 82.4467 23.102L82.5255 23.0339C82.566 22.9871 82.5909 22.9288 82.5967 22.8671C82.6024 22.8055 82.5888 22.7436 82.5577 22.69Z" fill="#2196F3"/>
<path d="M85.2088 21.7264C84.6391 20.6123 84.134 19.4695 83.6575 18.3123C83.4247 17.7499 83.2097 17.1802 83.0055 16.607C82.802 15.9511 82.5407 15.3145 82.2245 14.7047C82.1493 14.5758 82.0239 14.6403 82.0132 14.7728C82.0262 15.4389 82.161 16.0969 82.4108 16.7145C82.6234 17.3713 82.8527 18.0209 83.0987 18.6634C83.3387 19.276 83.6038 19.8814 83.8832 20.4797C84.023 20.7771 84.1627 21.0744 84.3096 21.3718C84.4564 21.6691 84.5639 21.9844 84.8935 22.1384C84.9231 22.1602 84.9589 22.172 84.9956 22.172C85.0324 22.172 85.0681 22.1602 85.0977 22.1384L85.1765 22.0703C85.217 22.0235 85.2419 21.9652 85.2477 21.9036C85.2535 21.8419 85.2399 21.78 85.2088 21.7264Z" fill="#2196F3"/>
<path d="M85.7676 18.0006C84.7323 18.7171 83.6647 19.3512 82.5756 19.971C82.0454 20.2719 81.5009 20.555 80.9671 20.8308C80.3418 21.1163 79.7425 21.4555 79.1758 21.8446C79.0576 21.9342 79.14 22.0524 79.269 22.0453C79.9284 21.9492 80.5647 21.7331 81.1462 21.4076C81.7731 21.1174 82.3858 20.8057 82.9912 20.4797C83.5966 20.1537 84.1376 19.8241 84.6965 19.473C84.9759 19.2975 85.2518 19.1148 85.5276 18.9357C85.8035 18.7565 86.1044 18.6097 86.2154 18.2622C86.2311 18.228 86.2353 18.1897 86.2276 18.153C86.2198 18.1162 86.2005 18.0829 86.1724 18.058L86.1008 17.9935C86.0509 17.9613 85.9925 17.9447 85.9331 17.946C85.8737 17.9473 85.8161 17.9663 85.7676 18.0006Z" fill="#2196F3"/>
<path d="M84.4744 15.4929C83.439 16.2094 82.3714 16.8435 81.2824 17.4597C80.7521 17.7606 80.216 18.0484 79.6738 18.3231C79.0471 18.6058 78.4476 18.9452 77.8826 19.3369C77.7643 19.4265 77.8467 19.5411 77.9757 19.5375C78.6354 19.4403 79.2716 19.2229 79.8529 18.8963C80.4799 18.6061 81.0925 18.2944 81.6979 17.9684C82.3034 17.6424 82.8443 17.3164 83.4032 16.9653C83.6826 16.7898 83.9585 16.6071 84.2343 16.4279C84.5102 16.2488 84.8111 16.1019 84.9222 15.7509C84.9381 15.7173 84.9425 15.6795 84.9348 15.6432C84.927 15.607 84.9074 15.5743 84.8792 15.5502L84.8075 15.4822C84.757 15.4514 84.6985 15.436 84.6393 15.4379C84.5802 15.4398 84.5228 15.4589 84.4744 15.4929Z" fill="#2196F3"/>
</svg>
