<svg width="90" height="111" viewBox="0 0 90 111" fill="none" xmlns="http://www.w3.org/2000/svg">
<path d="M48.6358 29.7375C44.3884 30.5745 42.8963 31.5243 38.7836 35.916C34.6709 40.3076 23.9347 51.5234 23.9347 51.5234C23.9347 51.5234 24.8187 53.9465 30.2887 53.5202C35.7586 53.0939 38.3416 50.2351 40.5547 48.3731C43.0311 46.2917 47.6672 41.922 47.6672 41.922L48.6358 29.7375Z" fill="#F28F8F"/>
<path d="M75.2931 58.8019C73.9514 69.0585 71.4124 77.1898 65.1995 82.4278L41.3478 63.7296L42.0155 51.542L75.2931 58.8019Z" fill="#455A64"/>
<path d="M68.9454 30.9161C65.965 30.2539 62.9422 29.7993 59.8988 29.5557C57.2281 29.3519 54.8645 29.0385 48.6359 29.7469C48.6359 29.7469 44.6894 34.5429 43.7553 41.0317C43.0186 46.1537 42.6237 54.2788 42.6237 54.2788C42.3917 57.5858 42.3792 60.0653 42.4105 61.7863C44.9182 63.9962 50.6892 64.8363 57.1967 65.7203C62.488 66.4412 68.9893 70.7357 71.0143 75.0929C74.1489 69.742 75.2085 60.8459 75.6034 57.1689C76.0454 53.0249 76.1583 49.1536 75.29 44.4955C73.4468 34.7247 71.6161 31.5713 68.9454 30.9161Z" fill="#2196F3"/>
<path opacity="0.1" d="M67.82 64.0839C66.0738 61.3875 63.7247 59.1339 60.9582 57.5011C58.1504 55.9114 55.014 54.99 51.7925 54.8084C49.9527 54.6488 48.0993 54.8068 46.3131 55.2755C45.9024 55.3946 46.1564 56.078 46.5325 56.0278C49.7079 55.6172 52.8426 55.5576 55.9616 56.3789C58.9955 57.2181 61.8163 58.6926 64.2371 60.7047C65.5318 61.7406 66.6903 62.9361 67.6852 64.2626C67.7604 64.3691 67.8733 64.1654 67.82 64.0839Z" fill="black"/>
<path d="M49.0027 31.0636C49.9713 29.5871 49.4917 28.1483 47.94 26.9885C45.354 25.0262 44.8054 20.5687 44.7615 17.4968C44.6706 16.3965 44.4731 13.5941 42.8588 14.3621C42.6707 14.453 42.7992 15.1458 42.8243 16.3589C42.4544 16.0172 41.8306 16.0454 41.724 16.3589C41.6216 16.8233 41.5681 17.2971 41.5641 17.7726C41.5359 19.0077 41.0124 21.622 41.0783 23.1015C41.3384 24.4024 41.8118 26.6343 41.9811 28.2392C42.0378 28.7433 41.9719 29.2536 41.7891 29.7268C41.6062 30.2 41.3118 30.622 40.9309 30.957C39.5015 32.2109 37.9624 33.2578 35.508 35.0321C32.458 37.2263 30.2355 38.4802 27.082 41.0506C24.5053 43.1508 23.822 45.1821 23.5304 48.8434C23.2515 52.2915 25.1385 52.9498 27.1667 53.0407C31.5803 53.2476 33.461 51.9718 35.9688 48.4672C40.0971 42.6775 43.0625 38.8971 44.6988 36.9943C46.6736 34.6966 48.5638 31.6341 49.0027 31.0636Z" fill="#FFB573"/>
<path d="M49.4227 28.9476C49.1638 28.1484 48.641 27.4609 47.94 26.9978C45.3539 25.0355 44.8053 20.578 44.7614 17.5061C44.6862 16.6158 44.5451 14.6002 43.6298 14.2899C43.285 16.3839 43.4449 20.8319 43.9809 23.5246C44.5483 26.3458 46.078 28.1639 47.2284 28.6498C47.9376 28.8732 48.6796 28.9739 49.4227 28.9476Z" fill="#F28F8F"/>
<path d="M42.8243 16.3808C43.4512 16.6943 43.5233 19.6848 43.5233 19.6848C43.5233 19.6848 43.6487 17.572 43.5578 17.083C43.3321 15.8761 42.7992 15.7037 42.7992 15.7037L42.8243 16.3808Z" fill="#F28F8F"/>
<path d="M62.0524 24.9447C62.2687 22.4746 64.4849 19.7349 65.4033 17.5249C66.2904 15.3902 66.7889 13.7633 66.513 11.8355C66.35 10.7008 65.5068 9.21494 64.6322 8.9579C65.2591 4.64147 61.927 2.93308 60.2061 2.66663C59.4004 2.56662 58.6025 2.41268 57.8175 2.20583C56.8771 1.89237 56.5981 1.17453 55.8081 0.60716C54.4446 -0.373989 52.2973 -0.223527 51.6108 1.48173C50.6704 0.45356 49.5263 0.575811 48.2254 1.02093C47.6748 1.19396 47.2104 1.56942 46.9259 2.07151C46.6414 2.57361 46.558 3.16495 46.6925 3.72615C44.8368 2.87665 43.3071 4.26531 43.2444 5.32169C43.1849 6.10222 43.4043 6.74169 42.956 7.47206C42.4482 8.29648 41.373 8.37171 40.9969 7.76986C40.9028 8.87953 41.3981 9.67886 42.5799 9.52213C42.4037 9.84333 42.3001 10.1992 42.2763 10.5648C42.2524 10.9303 42.309 11.2967 42.4419 11.638C42.62 12.0648 42.9239 12.4272 43.3131 12.677C43.7023 12.9267 44.1584 13.052 44.6205 13.0361C44.7961 13.6254 44.865 14.174 45.2851 14.663C45.6853 15.1601 46.1992 15.5536 46.7834 15.8103C48.6642 16.5218 50.6642 16.6378 52.6327 16.8823L54.9712 17.1707C55.106 17.1864 55.805 17.1707 55.8959 17.2867L62.0524 24.9447Z" fill="#263238"/>
<path d="M64.7482 21.553C64.3409 21.7618 63.8853 21.858 63.4284 21.8315C62.9715 21.8051 62.53 21.657 62.1495 21.4025L62.8266 30.8065C61.3878 34.4709 56.1623 35.5085 53.7863 35.1135C50.7143 34.5963 51.592 32.4836 52.7174 30.8849L52.4728 28.1107C52.4728 28.1107 51.0654 28.2141 49.9087 28.1891C46.8336 28.117 45.655 26.2268 45.0531 24.6626C44.2506 22.5718 43.9278 19.1675 44.1848 16.5407C44.2607 15.8694 44.2407 15.1907 44.1252 14.5251C43.8118 12.7634 44.3039 11.6412 44.6425 10.1115C46.6079 8.2495 52.0841 7.40314 56.8394 9.79802C56.526 12.5377 57.0933 14.4655 59.1403 15.3338C59.1089 16.0705 59.1653 17.9168 60.3597 17.7851C61.2217 17.6911 61.1903 16.6034 61.9991 15.5909C62.8078 14.5784 64.8516 14.1427 65.7607 15.4843C67.0459 17.3275 66.6885 20.5562 64.7482 21.553Z" fill="#FFB573"/>
<path d="M50.94 23.1547C51.0029 22.9613 51.1103 22.7852 51.2534 22.6406C51.4274 22.4648 51.6298 22.3196 51.8522 22.2112C52.0601 22.0933 52.295 22.0314 52.5339 22.0314C52.7729 22.0314 53.0078 22.0933 53.2157 22.2112C53.234 22.2202 53.2501 22.2329 53.2631 22.2486C53.276 22.2643 53.2855 22.2825 53.291 22.3021C53.2931 22.3262 53.2872 22.3504 53.2741 22.3708C53.2611 22.3912 53.2417 22.4067 53.2189 22.4149C52.9888 22.4575 52.7564 22.4868 52.523 22.5027C52.3141 22.5506 52.1127 22.6266 51.9242 22.7284C51.7436 22.8219 51.5828 22.9497 51.4509 23.1046C51.3475 23.2362 51.266 23.3836 51.1657 23.5152C51.128 23.5622 51.0748 23.6437 51.0027 23.6375C50.9727 23.6342 50.9447 23.6211 50.9231 23.6C50.9015 23.579 50.8876 23.5513 50.8835 23.5215C50.8766 23.3966 50.8958 23.2717 50.94 23.1547Z" fill="#B16668"/>
<path d="M52.4727 28.101C55.4726 27.496 57.7484 26.982 59.1464 24.6529C60.0241 23.1984 60.4473 21.0543 60.4473 21.0543C60.4473 21.0543 60.5884 23.6216 59.7483 25.5212C59.0994 26.9882 57.2844 28.3111 52.5824 29.1104L52.4727 28.101Z" fill="#F28F8F"/>
<path d="M52.3129 16.0232C52.3216 16.143 52.354 16.2599 52.4081 16.3671C52.4623 16.4743 52.5371 16.5697 52.6283 16.6478C52.7196 16.7259 52.8254 16.7852 52.9396 16.8222C53.0539 16.8592 53.1744 16.8732 53.2941 16.8633C53.4821 16.8541 53.6631 16.7887 53.8135 16.6755C53.9639 16.5623 54.0769 16.4065 54.1379 16.2284C54.1988 16.0503 54.2049 15.8579 54.1553 15.6763C54.1057 15.4947 54.0027 15.3322 53.8597 15.2097C53.7167 15.0873 53.5402 15.0106 53.3531 14.9895C53.166 14.9685 52.977 15.0041 52.8103 15.0917C52.6437 15.1794 52.5072 15.315 52.4185 15.4811C52.3299 15.6471 52.2931 15.836 52.3129 16.0232Z" fill="#263238"/>
<path d="M55.4351 14.0329L53.9054 12.6097C53.718 12.821 53.6195 13.0966 53.6306 13.3787C53.6417 13.6609 53.7615 13.9279 53.9649 14.1238C54.0662 14.2168 54.1852 14.2885 54.3149 14.3344C54.4445 14.3804 54.5821 14.3997 54.7194 14.3912C54.8566 14.3827 54.9908 14.3466 55.1138 14.285C55.2367 14.2235 55.346 14.1377 55.4351 14.0329Z" fill="#263238"/>
<path d="M46.1377 12.5531L44.517 13.8947C44.599 14.0046 44.7024 14.0966 44.8211 14.1651C44.9398 14.2337 45.0711 14.2774 45.2072 14.2935C45.3433 14.3096 45.4813 14.2979 45.6127 14.259C45.7441 14.22 45.8662 14.1548 45.9715 14.0671C46.1878 13.8841 46.3256 13.625 46.3565 13.3433C46.3874 13.0616 46.3091 12.7787 46.1377 12.5531Z" fill="#263238"/>
<path d="M45.3728 16.2586C45.397 16.4332 45.4719 16.5969 45.5883 16.7294C45.7047 16.8618 45.8575 16.9571 46.0276 17.0034C46.1977 17.0497 46.3777 17.045 46.5452 16.9899C46.7127 16.9348 46.8603 16.8317 46.9697 16.6934C47.079 16.5551 47.1453 16.3877 47.1604 16.212C47.1754 16.0363 47.1384 15.8601 47.0542 15.7053C46.9699 15.5504 46.8419 15.4237 46.6862 15.341C46.5305 15.2582 46.3539 15.223 46.1784 15.2398C46.0583 15.253 45.942 15.2899 45.8363 15.3485C45.7306 15.407 45.6375 15.4859 45.5626 15.5807C45.4876 15.6755 45.4323 15.7842 45.3997 15.9006C45.3671 16.017 45.358 16.1386 45.3728 16.2586Z" fill="#263238"/>
<path d="M46.94 19.3336L49.8835 20.7567L50.4665 15.1144C49.4791 15.0579 48.1061 16.9983 46.94 19.3336Z" fill="#F28F8F"/>
<path d="M21.6558 78.9516C22.0477 77.7887 23.0664 74.9487 23.7686 72.8829C21.9411 72.5695 15.7062 70.5476 14.4367 69.8925C14.0323 72.651 13.8098 74.6132 13.5527 75.98C12.744 80.3371 12.4117 83.6787 9.44632 86.5782C7.86563 88.0643 6.15688 89.4081 4.33996 90.5938C2.43722 91.879 0.948256 92.7567 0.503134 93.5936C-0.2868 95.0763 1.86044 98.5809 9.75038 96.7283C12.7471 96.0292 13.8537 94.4713 14.7502 93.2363C15.8348 91.7348 16.189 90.8226 18.0604 90.1988C21.7718 88.9637 21.8 87.3776 21.6715 85.6473C21.5022 83.4091 20.4082 82.685 21.6558 78.9516Z" fill="#FFB573"/>
<path d="M53.9774 78.5318C49.8334 85.5691 40.6707 86.1615 35.1224 83.2714C25.3015 78.1776 17.5683 54.9873 18.4836 49.3199C19.424 43.5897 25.5429 40.3579 35.1255 49.1663C40.2695 53.8933 43.097 58.7834 46.8492 65.2157C48.5168 65.9179 54.1561 69.4663 55.5667 73.4912C55.3457 75.2536 54.8072 76.9614 53.9774 78.5318Z" fill="#37474F"/>
<path d="M27.5052 50.9623C29.3139 52.9716 33.9876 62.7956 34.6647 68.8737C34.8559 70.5821 37.5423 76.8608 39.9623 79.4281C44.2223 83.9546 50.3255 82.5158 52.4727 80.5754C47.9902 85.7069 40.025 85.8197 35.1161 83.2712C28.759 79.9736 23.2044 68.5383 20.3174 59.3193L27.5052 50.9623Z" fill="#263238"/>
<path d="M22.9254 43.9814C19.8127 44.6836 16.6185 48.1944 15.0668 59.2159C13.6562 69.228 13.0199 74.8892 13.0199 74.8892C15.8942 76.8884 19.3829 77.8066 22.869 77.4816C22.869 77.4816 24.3235 73.8516 26.1008 68.5227C27.8782 63.1938 29.3107 57.7332 28.0224 52.4638C27.172 49.2061 25.4027 46.2616 22.9254 43.9814Z" fill="#37474F"/>
<path d="M65.8545 82.1146C58.6448 88.3839 51.3787 89.0108 45.8366 86.1489C36.0188 81.055 31.4171 47.7712 35.138 47.1098C39.2726 46.3732 42.7113 48.7492 46.2002 52.4544C50.9868 57.542 54.5917 62.0998 59.231 68.7954C60.8986 69.4976 67.6946 74.1243 69.0958 78.1367C68.008 79.8607 67.4281 80.403 65.8545 82.1146Z" fill="#455A64"/>
<path d="M38.229 53.8427C40.0377 55.8488 41.7084 67.0897 41.7398 73.2055C41.7649 78.3839 43.9341 82.8821 50.2034 84.8664C56.131 86.7472 61.5414 85.0137 63.5947 83.904C57.598 88.5089 50.7488 88.6969 45.8368 86.161C39.4828 82.8633 33.9251 71.4281 31.0412 62.2091L38.229 53.8427Z" fill="#37474F"/>
<path d="M33.9876 84.108C34.348 82.9074 35.3072 79.9828 35.9624 77.8543C34.0816 77.5816 27.9189 73.7134 26.6054 73.0834C26.2387 76.4813 25.8562 79.9138 25.6368 81.3119C24.9378 85.7787 24.6964 89.1955 21.7624 92.2393C20.1941 93.8006 18.4906 95.2199 16.6717 96.4805C14.7721 97.8472 13.28 98.7845 12.8505 99.6528C12.0888 101.186 14.3803 104.696 22.3705 102.587C25.4049 101.784 26.4863 100.164 27.364 98.8785C28.4267 97.3112 28.7589 96.3708 30.6491 95.6874C34.4107 94.3207 34.3794 92.7095 34.1976 90.9384C33.9593 88.6689 32.834 87.9511 33.9876 84.108Z" fill="#FFB573"/>
<path d="M35.1382 47.1096C32.0035 47.7773 28.6024 51.2693 27.4927 61.1686C26.3674 71.2183 25.4458 80.0549 25.4458 80.0549C28.2771 81.9111 31.66 82.7389 35.0285 82.3996C35.0285 82.3996 36.7995 77.5503 38.6365 72.237C40.4734 66.9238 41.9623 61.4852 40.7335 56.2001C39.5048 50.9151 35.1382 47.1096 35.1382 47.1096Z" fill="#455A64"/>
<path d="M88.8975 58.4791C88.2706 56.429 87.0637 53.6831 84.0356 47.6457C80.6471 40.8811 79.0421 38.0348 76.0235 34.3861C73.7947 31.6934 68.9454 30.916 68.9454 30.916C68.9454 30.916 67.657 33.756 68.0771 38.4392C68.4846 42.9688 71.5252 48.2381 71.5252 48.2381L77.9732 58.6922C76.1896 59.9461 72.4499 62.4382 70.7227 62.3849C69.9983 62.3951 69.2919 62.1586 68.7197 61.7141C67.3937 60.7737 67.005 60.084 65.3217 59.5386C64.7122 59.3444 64.0799 59.2305 63.4409 59.2001C64.6352 60.4038 66.0772 62.1216 64.7136 63.7767C63.8892 64.7829 62.3595 65.2938 61.1307 65.4506C60.2757 65.538 59.4128 65.5064 58.5665 65.3565C57.7883 65.2332 57.067 64.8731 56.5008 64.3252C56.2939 64.8863 56.2093 65.4067 56.5008 65.9239C56.8514 66.4545 57.3162 66.9001 57.8612 67.2279C57.8244 67.6151 57.9365 68.0019 58.1747 68.3094C58.5791 68.8109 59.1044 69.2014 59.7013 69.4441C59.7548 69.7759 59.929 70.0761 60.1903 70.2873C60.6888 70.6503 61.295 70.8347 61.9112 70.8108C62.3469 70.8422 63.0804 70.8328 63.0804 70.8328C63.8547 71.5506 65.5286 71.6446 66.4596 71.5726C67.3906 71.5005 68.4877 71.3657 69.4438 71.1964C70.3999 71.0271 71.2995 70.6165 72.2211 70.325C74.7288 69.5288 77.9638 68.4285 77.9638 68.4285C80.9719 67.4004 83.9228 66.2117 86.8036 64.8675C90.4899 63.062 89.8849 61.6921 88.8975 58.4791Z" fill="#FFB573"/>
<path d="M77.9731 58.6924C79.6784 57.5577 83.6469 56.3947 86.1577 58.1376C83.7315 55.7396 79.973 56.4606 77.4684 57.8774L77.9731 58.6924Z" fill="#F28F8F"/>
<path d="M54.8346 95.5696L54.8997 95.6828L54.9075 95.6881C56.0322 97.7067 56.3643 100.074 55.8361 102.326L55.516 103.375C54.7284 105.574 53.1422 107.397 51.0724 108.481C48.9989 109.567 46.5922 109.831 44.3323 109.222C42.0723 108.613 40.125 107.174 38.8785 105.193C37.6346 103.216 37.1798 100.843 37.604 98.5469L37.8631 97.4803C38.3935 95.7493 39.4172 94.2105 40.809 93.0523C42.2049 91.8908 43.9099 91.1628 45.7142 90.9582C47.5186 90.7535 49.3433 91.081 50.9639 91.9004C52.5844 92.7198 53.9299 93.9952 54.8346 95.5696Z" fill="white" stroke="black" stroke-width="1.11167"/>
<path d="M45.292 100.246L42.1009 103.396C41.9095 103.597 41.804 103.865 41.8066 104.143C41.8093 104.42 41.9198 104.686 42.115 104.884C42.3101 105.081 42.5745 105.195 42.8521 105.201C43.1297 105.207 43.3988 105.105 43.6024 104.916L46.7935 101.782L49.9281 104.969C50.1272 105.171 50.3984 105.286 50.6821 105.288C50.9657 105.29 51.2386 105.18 51.4406 104.98C51.6426 104.781 51.7573 104.51 51.7593 104.226C51.7614 103.943 51.6507 103.67 51.4516 103.468L48.3138 100.267L51.5049 97.1328C51.6044 97.0338 51.6833 96.9161 51.7372 96.7864C51.7911 96.6568 51.8189 96.5178 51.8189 96.3774C51.8189 96.237 51.7911 96.0979 51.7372 95.9683C51.6833 95.8387 51.6044 95.7209 51.5049 95.6219C51.304 95.4224 51.0325 95.3105 50.7494 95.3105C50.4663 95.3105 50.1948 95.4224 49.994 95.6219L46.8029 98.7566L43.6682 95.5686C43.4685 95.3692 43.1981 95.2565 42.9159 95.2551C42.775 95.2543 42.6353 95.2816 42.505 95.3354C42.3748 95.3893 42.2565 95.4685 42.1573 95.5686C42.0577 95.6679 41.9787 95.7859 41.9247 95.9158C41.8708 96.0457 41.843 96.185 41.843 96.3256C41.843 96.4663 41.8708 96.6056 41.9247 96.7355C41.9787 96.8654 42.0577 96.9834 42.1573 97.0827L45.292 100.246Z" fill="#2196F3"/>
</svg>
