<svg width="83" height="137" viewBox="0 0 83 137" fill="none" xmlns="http://www.w3.org/2000/svg">
<path d="M22.155 28.1119C32.0276 26.4261 39.0731 19.4498 37.8915 12.5298C36.7099 5.60981 27.7486 1.36666 17.876 3.05246C8.00336 4.73825 0.957882 11.7146 2.13949 18.6346C3.3211 25.5546 12.2823 29.7977 22.155 28.1119Z" fill="#2196F3"/>
<path opacity="0.3" d="M22.155 28.1119C32.0276 26.4261 39.0731 19.4498 37.8915 12.5298C36.7099 5.60981 27.7486 1.36666 17.876 3.05246C8.00336 4.73825 0.957882 11.7146 2.13949 18.6346C3.3211 25.5546 12.2823 29.7977 22.155 28.1119Z" fill="white"/>
<path d="M52.3054 15.9717C53.3996 18.2294 51.6489 21.3078 48.4246 22.8506C45.2003 24.3935 41.7171 23.8063 40.6375 21.5485C39.5579 19.2908 41.2977 16.2088 44.5183 14.6696C47.7389 13.1304 51.2112 13.7286 52.3054 15.9717Z" fill="#2196F3"/>
<path opacity="0.5" d="M52.3054 15.9717C53.3996 18.2294 51.6489 21.3078 48.4246 22.8506C45.2003 24.3935 41.7171 23.8063 40.6375 21.5485C39.5579 19.2908 41.2977 16.2088 44.5183 14.6696C47.7389 13.1304 51.2112 13.7286 52.3054 15.9717Z" fill="white"/>
<path d="M58.0719 24.9042C58.3856 26.2573 57.0688 27.7163 55.1357 28.1613C53.2026 28.6062 51.3826 27.8695 51.0726 26.5126C50.7625 25.1558 52.0756 23.7005 53.9905 23.2555C55.9053 22.8106 57.7764 23.5473 58.0719 24.9042Z" fill="#2196F3"/>
<path opacity="0.6" d="M58.0719 24.9042C58.3856 26.2573 57.0688 27.7163 55.1357 28.1613C53.2026 28.6062 51.3826 27.8695 51.0726 26.5126C50.7625 25.1558 52.0756 23.7005 53.9905 23.2555C55.9053 22.8106 57.7764 23.5473 58.0719 24.9042Z" fill="white"/>
<path d="M16.5903 26.0896C16.3642 26.0896 16.1381 26.0896 15.9156 26.0568C15.2651 26.0383 14.6371 25.815 14.1211 25.4185C13.8223 25.1545 13.6218 24.7971 13.5521 24.4045C13.1399 24.4045 12.7278 24.3754 12.312 24.3535C11.4001 24.2988 10.4555 24.1966 9.79164 23.5839C9.59261 23.3955 9.43278 23.1696 9.32136 22.9192C9.20994 22.6688 9.14913 22.3989 9.14241 22.1249C8.77142 22.0297 8.42633 21.853 8.1323 21.6075C7.83826 21.3621 7.60269 21.0541 7.44273 20.7061C7.32827 20.4026 7.27949 20.0782 7.29961 19.7544C7.31973 19.4306 7.40829 19.1148 7.55945 18.8277C7.15979 18.523 6.80281 18.166 6.49806 17.7663C5.85186 16.8957 5.51547 15.8339 5.54245 14.7499C5.35997 14.6648 5.21383 14.5174 5.1303 14.3341C4.98441 13.9694 5.17042 13.5609 5.65552 13.1633C5.754 13.0795 5.85977 12.9956 5.9619 12.9153C6.25199 12.2839 6.67386 11.7219 7.19917 11.2671C7.72447 10.8122 8.34105 10.4751 9.00746 10.2783C10.1017 9.9646 11.2433 10.0521 12.3521 10.1397H12.4068C13.2157 9.98894 14.033 9.88784 14.8542 9.83694C15.3141 9.73016 15.7879 9.6957 16.2584 9.73481C16.7327 9.5169 17.1388 9.17393 17.4329 8.74273C17.581 8.51026 17.7103 8.26632 17.8195 8.01325C17.9326 7.74229 18.068 7.4812 18.2244 7.23271C18.9028 6.2151 20.2195 5.63516 22.1453 5.50751C24.4285 5.36161 26.2778 5.75553 27.6419 6.67831C28.1573 7.02303 28.5978 7.46843 28.9367 7.98772C29.6202 8.02633 30.2964 8.14882 30.95 8.35246C31.8728 8.61872 34.0211 9.42843 34.0102 11.1901C33.969 11.7496 33.8006 12.2922 33.5178 12.7767L32.7555 14.3451C32.7945 14.5444 32.8104 14.7476 32.8029 14.9506C32.9485 15.0102 33.0898 15.0797 33.226 15.1585C33.8461 15.5232 34.488 16.1761 34.4369 16.9821C34.4041 17.5074 34.0722 18.0143 33.4704 18.5213C32.7091 19.1376 31.8447 19.6142 30.9172 19.9292C30.624 20.4939 30.2823 21.0321 29.896 21.5377C29.1482 22.5152 27.9008 23.7772 26.2048 24.2331C25.1322 24.531 23.9873 24.4206 22.9915 23.9231C22.6669 24.1383 22.3422 24.3279 22.0468 24.4884C20.0772 25.5535 18.2572 26.0896 16.5903 26.0896ZM13.8767 24.4045C13.9443 24.7025 14.1038 24.9717 14.3326 25.1741C14.7974 25.5269 15.3614 25.7247 15.9448 25.7395C17.7247 25.9 19.7161 25.3747 21.8681 24.2112C22.1161 24.0763 22.386 23.9231 22.6559 23.748C22.3577 23.5551 22.0908 23.3177 21.8644 23.0441C21.7397 22.9035 21.6486 22.7364 21.5982 22.5553C21.1204 22.6283 20.6389 22.683 20.1575 22.7231C19.4072 23.0678 18.6151 23.313 17.8013 23.4526C17.4209 23.6957 17.0116 23.8906 16.583 24.0325C15.7063 24.2991 14.7928 24.4246 13.8767 24.4045ZM14.4457 23.2812C14.244 23.3758 14.076 23.5298 13.9642 23.7225C13.9027 23.8351 13.8654 23.9593 13.8548 24.0872C14.745 24.1033 15.6323 23.9803 16.4846 23.7225C16.6341 23.6714 16.7873 23.6131 16.9441 23.5438C16.1023 23.6084 15.2557 23.5194 14.4457 23.2812ZM9.46703 22.2234C9.50146 22.6537 9.69526 23.0556 10.0105 23.3505C10.5941 23.8903 11.4694 23.9814 12.3302 24.0325C12.7351 24.0544 13.1363 24.0763 13.5338 24.0836C13.5446 23.9031 13.5957 23.7274 13.6834 23.5693C13.772 23.4029 13.8966 23.2584 14.0481 23.1462C13.9059 23.0915 13.7673 23.0331 13.6323 22.9675V23.0149C13.5968 23.1328 13.532 23.2397 13.444 23.3258C13.356 23.4119 13.2476 23.4744 13.129 23.5073C12.967 23.5598 12.7948 23.5729 12.6268 23.5456C12.4587 23.5184 12.2995 23.4515 12.1624 23.3505C11.8181 23.0416 11.5859 22.6273 11.5023 22.1723C11.0714 22.2835 10.6266 22.3315 10.1819 22.3146C9.94143 22.3049 9.70225 22.2744 9.46703 22.2234ZM23.265 23.7188C24.1558 24.1146 25.1564 24.1881 26.0954 23.9267C27.7039 23.4963 28.8966 22.2854 29.6151 21.348C29.9216 20.9461 30.1994 20.5232 30.4467 20.0824C30.0236 20.2137 29.5932 20.3268 29.1555 20.4216C28.5418 20.9338 27.8157 21.2937 27.0364 21.4721C26.3441 21.6589 25.6397 21.7979 24.9282 21.8879C24.8131 22.095 24.6852 22.2947 24.5453 22.486C24.184 22.9599 23.7522 23.3757 23.265 23.7188ZM21.9155 22.5006C21.9569 22.6272 22.024 22.7439 22.1125 22.8435C22.3472 23.1265 22.6299 23.366 22.9477 23.5511C23.4584 23.2074 23.9103 22.7837 24.2863 22.2964C24.3738 22.1796 24.4541 22.0593 24.5307 21.9316L23.8413 21.9973C23.2145 22.2183 22.5703 22.3867 21.9155 22.5006ZM11.8196 22.0812C11.8878 22.4712 12.0812 22.8284 12.3703 23.0988C12.4665 23.1669 12.5771 23.2118 12.6935 23.2302C12.8099 23.2485 12.929 23.2397 13.0414 23.2046C13.109 23.1856 13.1709 23.1505 13.2217 23.1022C13.2726 23.0539 13.3109 22.9938 13.3332 22.9274C13.3444 22.8905 13.3517 22.8526 13.3551 22.8143C13.0243 22.635 12.7126 22.4223 12.425 22.1796C12.3339 22.1031 12.2463 22.0228 12.1624 21.9426C12.0384 21.9936 11.9217 22.0374 11.8196 22.0812ZM15.0584 23.0878C15.9402 23.2599 16.8455 23.2735 17.732 23.128C17.8583 23.0433 17.9801 22.952 18.0967 22.8544H17.9836C17.1885 22.8945 16.3679 22.9347 15.5764 23.0112C15.3975 23.0258 15.2196 23.0514 15.0439 23.0878H15.0584ZM18.5964 22.8289L18.4323 22.9857C18.6475 22.931 18.8663 22.8726 19.0778 22.8033L18.5964 22.8289ZM13.6834 22.6173C13.934 22.7415 14.1937 22.8464 14.4603 22.931C14.8118 22.8001 15.1803 22.7203 15.5545 22.6939C16.3496 22.6173 17.1776 22.5772 17.9763 22.5407L18.4687 22.5152C18.602 22.3678 18.7239 22.2105 18.8335 22.0447C17.2921 21.988 15.7486 22.0282 14.2123 22.1651C14.1261 22.1611 14.04 22.1746 13.9592 22.2047C13.8783 22.2348 13.8044 22.2808 13.7417 22.3401C13.6924 22.4241 13.6671 22.52 13.6688 22.6173H13.6834ZM19.2092 22.052C19.1155 22.2048 19.0132 22.3521 18.9028 22.4933C19.2967 22.4714 19.6906 22.4459 20.0809 22.4094C20.307 22.3073 20.5222 22.1979 20.7338 22.0775C20.2669 22.0775 19.8037 22.0775 19.3405 22.0556L19.2092 22.052ZM12.4615 21.7857L12.6293 21.9316C12.8566 22.1267 13.1007 22.3012 13.3588 22.4532C13.3698 22.3488 13.4061 22.2486 13.4645 22.1614C13.5497 22.06 13.6565 21.9789 13.777 21.924C13.8975 21.8691 14.0288 21.8418 14.1612 21.8441C15.7718 21.7051 17.3895 21.6661 19.0049 21.7274C19.0814 21.5838 19.1449 21.4337 19.1946 21.2787C18.8537 21.3861 18.5009 21.451 18.1441 21.4721C16.4981 21.6194 14.8393 21.526 13.2202 21.1949C12.9857 21.4205 12.7262 21.6187 12.4469 21.7857H12.4615ZM21.3429 22.0812L21.2882 22.1176L20.9526 22.3219C21.1751 22.2964 21.3939 22.2635 21.6128 22.2271C21.6249 22.1768 21.642 22.128 21.6638 22.0812H21.3429ZM22.0723 22.0812C22.0453 22.107 22.022 22.1365 22.003 22.1687L22.4699 22.0739L22.0723 22.0812ZM9.49256 21.8988C9.73195 21.9552 9.97626 21.9882 10.222 21.9973C10.6384 22.014 11.0549 21.9697 11.4585 21.866C11.3819 21.5268 11.3053 21.1365 11.2396 20.7462L11.174 20.6332C10.8093 20.5091 10.4701 20.3778 10.1236 20.2319C9.76821 20.6976 9.55083 21.2536 9.4962 21.8368C9.4962 21.8368 9.45973 21.8733 9.45973 21.8951L9.49256 21.8988ZM7.80747 19.0174C7.68602 19.2589 7.61587 19.5229 7.60143 19.7928C7.587 20.0627 7.62858 20.3327 7.72358 20.5857C7.85868 20.8801 8.05622 21.1415 8.30248 21.3519C8.54875 21.5623 8.83784 21.7165 9.1497 21.804C9.2034 21.1881 9.42548 20.5988 9.79164 20.1006C9.63116 20.0313 9.47797 19.9584 9.32113 19.8818C8.79308 19.6369 8.28672 19.3477 7.80747 19.0174ZM11.6518 21.3882C11.6773 21.5158 11.7065 21.6398 11.732 21.7529L11.9071 21.6836C11.8196 21.5997 11.732 21.5012 11.6518 21.3882ZM19.3587 21.7274C19.9788 21.7274 20.6061 21.7529 21.2334 21.7529C21.8775 21.3229 22.4806 20.8345 23.0352 20.294C22.7543 20.2423 22.4766 20.1741 22.2036 20.0897C21.6253 19.9164 21.0759 19.6583 20.5733 19.3238C20.567 19.6517 20.4883 19.9742 20.3426 20.2681C20.1969 20.5619 19.9879 20.8199 19.7307 21.0234L19.5775 21.1256C19.5244 21.3411 19.4511 21.5511 19.3587 21.7529V21.7274ZM23.4365 20.3523C22.9291 20.8625 22.3815 21.3308 21.7988 21.7529H21.9082C22.1253 21.5849 22.3731 21.461 22.6377 21.3882C23.4389 21.1422 24.2552 20.9485 25.0814 20.8082C25.1726 20.5857 25.2565 20.3523 25.3404 20.1116C24.7398 20.3646 24.0819 20.4503 23.4365 20.3596V20.3523ZM24.9282 21.1511C24.1823 21.2825 23.4453 21.4603 22.7216 21.6836L22.572 21.7383C22.9732 21.7383 23.3708 21.7055 23.772 21.6763C24.1685 21.531 24.5537 21.3567 24.9246 21.1547L24.9282 21.1511ZM11.6153 20.7863C11.7885 21.0601 11.9876 21.3166 12.2098 21.5523C12.4332 21.428 12.6434 21.2813 12.8372 21.1146C12.425 21.0234 12.0165 20.9067 11.6153 20.7827V20.7863ZM25.1763 21.3882L25.1033 21.5414C25.7255 21.4584 26.3419 21.3366 26.9489 21.1766C27.4589 21.0459 27.9495 20.8485 28.4078 20.5894C27.817 20.6988 27.2261 20.7936 26.6352 20.8885L25.7635 21.0271L25.5702 21.1584C25.4425 21.2313 25.3149 21.3116 25.1763 21.3882ZM13.4864 20.9213C15.0109 21.2143 16.5688 21.2929 18.1149 21.1547C18.5201 21.1376 18.919 21.0486 19.293 20.8921C19.3689 20.3789 19.3823 19.8584 19.3332 19.342C19.3332 19.1669 19.3332 18.9773 19.3076 18.8168C19.0336 19.0685 18.7223 19.2764 18.3848 19.4332C17.8483 19.6617 17.2698 19.7749 16.6867 19.7655C16.1036 19.7561 15.5289 19.6242 15.0001 19.3785C14.8687 19.3603 14.7384 19.3347 14.6098 19.3019L14.4822 19.5244C14.2015 20.0245 13.8677 20.4929 13.4864 20.9213ZM11.4804 20.4034C12.0184 20.5782 12.565 20.7255 13.118 20.8447C13.5434 20.3989 13.9111 19.9014 14.2123 19.3639L14.2998 19.2107C13.9353 19.0821 13.5913 18.9015 13.2785 18.6745C12.6185 18.7721 11.9752 18.9611 11.3673 19.2362C11.3819 19.6411 11.4257 20.0313 11.4804 20.4034ZM25.7051 19.9985C25.6869 20.0423 25.6723 20.0897 25.6541 20.1371C25.5811 20.345 25.5118 20.5456 25.4352 20.7426L25.6358 20.7098C25.8823 20.5277 26.1063 20.3171 26.3033 20.0824L25.7051 19.9985ZM19.625 18.4994V18.6125C19.625 18.8496 19.625 19.0867 19.6505 19.342C19.687 19.7874 19.687 20.2351 19.6505 20.6806C19.8578 20.4748 20.02 20.2281 20.1267 19.9562C20.2335 19.6843 20.2824 19.3931 20.2705 19.1013C20.0451 18.914 19.8463 18.6968 19.6797 18.4557L19.625 18.4994ZM26.6826 20.1189C26.5558 20.2947 26.413 20.4583 26.2559 20.6076L26.5878 20.5566C27.4121 20.4253 28.2182 20.2976 28.9987 20.1298C29.0206 20.1298 29.0388 20.0897 29.0607 20.0678C28.6722 20.1395 28.2777 20.1737 27.8826 20.1699C27.4814 20.1699 27.0802 20.1554 26.6826 20.1189ZM10.3059 19.973L10.9369 20.2174C10.8494 20.0204 10.7728 19.8198 10.7035 19.6192C10.5608 19.7251 10.4277 19.8435 10.3059 19.973ZM23.7282 20.0642C24.1804 20.0943 24.6338 20.0297 25.0595 19.8745L24.6948 19.7943C24.4906 19.7468 24.2972 19.6921 24.1076 19.6374C23.9884 19.7809 23.862 19.9231 23.7282 20.0642ZM20.5733 18.9335C21.0884 19.3187 21.6675 19.6101 22.2839 19.7943C22.6171 19.9 22.9588 19.9768 23.3052 20.024C23.4656 19.8636 23.6188 19.6958 23.772 19.528C22.8544 19.2421 22.0181 18.742 21.3319 18.0691C21.0092 17.7351 20.7375 17.3554 20.5259 16.942C20.4539 17.1391 20.3698 17.3316 20.2742 17.5183C20.3836 17.8246 20.4678 18.1393 20.5259 18.4593C20.5534 18.616 20.5692 18.7745 20.5733 18.9335ZM29.5786 19.9292L29.5239 20.0022C29.9154 19.9073 30.2947 19.7979 30.6619 19.6739C31.1219 18.7703 31.4569 17.8083 31.6576 16.8144C31.5137 16.9141 31.3611 17.0007 31.2017 17.0733C31.2884 17.4017 31.3046 17.7446 31.2492 18.0797C31.1939 18.4147 31.0683 18.7343 30.8807 19.0174C30.5568 19.4542 30.0999 19.7742 29.5786 19.9292ZM26.8759 19.8052C27.2078 19.8307 27.5434 19.8453 27.879 19.8453C28.3826 19.8518 28.8847 19.7879 29.3707 19.6557C29.3999 19.6046 29.4291 19.5535 29.4546 19.4988C29.6016 19.17 29.6757 18.8134 29.6719 18.4533C29.6681 18.0932 29.5865 17.7382 29.4327 17.4125C28.8408 17.3935 28.2521 17.3178 27.6747 17.1864L27.361 17.759C27.2626 17.9378 27.1641 18.1238 27.0619 18.2988C27.1019 18.4367 27.1264 18.5786 27.1349 18.7219C27.1526 19.1025 27.0628 19.4805 26.8759 19.8125V19.8052ZM7.95701 18.711C8.43059 19.0412 8.93219 19.3292 9.45608 19.5718C9.6348 19.6593 9.82082 19.7396 9.99225 19.8161C10.1668 19.6174 10.3653 19.441 10.5831 19.2909H10.6087C10.4286 18.6073 10.373 17.897 10.4445 17.1937C9.85721 17.3022 9.29701 17.5253 8.79591 17.8502C8.45673 18.0815 8.17075 18.3824 7.95701 18.7329V18.711ZM25.9604 19.6921L26.5258 19.7614C26.7263 19.4541 26.827 19.0923 26.8139 18.7256V18.6964C26.5829 19.0771 26.295 19.4202 25.9604 19.714V19.6921ZM11.0062 19.4076C11.0281 19.4806 11.0536 19.5572 11.0792 19.6301C11.0792 19.5462 11.0792 19.4624 11.0792 19.3748L11.0062 19.4076ZM24.3665 19.3493L24.7933 19.4624C25.0304 19.5171 25.2674 19.5681 25.5228 19.6119C25.7659 18.9116 26.0018 18.2052 26.2303 17.4928C26.1501 17.4125 26.0699 17.3359 25.9896 17.2703C25.4535 18.0071 24.9246 18.711 24.3556 19.3712L24.3665 19.3493ZM32.0479 16.4934C31.8727 17.5334 31.5561 18.5446 31.1069 19.4988C31.8878 19.2031 32.6157 18.7831 33.2625 18.2551C33.8059 17.8064 34.0831 17.3761 34.1087 16.942C34.1524 16.2818 33.5944 15.7201 33.0619 15.4138C32.9628 15.3569 32.8605 15.3058 32.7555 15.2606C32.7555 15.308 32.7336 15.3591 32.719 15.4065C32.5976 15.8316 32.3617 16.2152 32.037 16.5153L32.0479 16.4934ZM29.7865 17.3906C30.0628 18.0565 30.0745 18.8027 29.8194 19.4769C30.1419 19.3324 30.421 19.1061 30.6291 18.8204C30.7864 18.5816 30.8928 18.3129 30.9418 18.0312C30.9907 17.7494 30.9811 17.4606 30.9136 17.1827C30.7786 17.2265 30.64 17.2666 30.5014 17.2995C30.2631 17.3574 30.0203 17.3952 29.7756 17.4125L29.7865 17.3906ZM15.9812 19.3347C16.743 19.514 17.5425 19.4384 18.2572 19.1195C18.6569 18.9331 19.0172 18.6718 19.3186 18.3499C19.3249 18.1653 19.3432 17.9814 19.3733 17.7992C19.3551 17.7408 19.3332 17.6824 19.3186 17.6241C19.2964 17.5537 19.2793 17.4817 19.2675 17.4089C18.9356 17.5219 18.6 17.6277 18.2645 17.7226C17.802 18.4611 17.0904 19.0097 16.2584 19.269C16.1642 19.3039 16.068 19.3331 15.9703 19.3566L15.9812 19.3347ZM26.4565 17.7736C26.296 18.277 26.1319 18.773 25.9604 19.269C26.2587 18.9653 26.515 18.623 26.7227 18.2514C26.6514 18.0876 26.5581 17.9343 26.4455 17.7955L26.4565 17.7736ZM20.8541 16.8034C21.0432 17.1805 21.2892 17.5262 21.5836 17.8283C22.2696 18.4943 23.1088 18.9815 24.0273 19.2472C24.6275 18.5481 25.19 17.8176 25.7124 17.0587C25.603 16.9858 25.5045 16.9201 25.417 16.8691C24.9194 16.7425 24.4444 16.5395 24.0091 16.2673C23.5153 16.1221 23.0059 16.0364 22.4918 16.0119L22.3094 16.1068C21.8207 16.3876 21.3356 16.6174 20.8432 16.8253L20.8541 16.8034ZM10.791 17.1134C10.7166 17.7736 10.7599 18.4416 10.9187 19.0867L11.039 19.021C11.003 18.3702 11.0213 17.7175 11.0938 17.0697C10.9807 17.1025 10.8822 17.1171 10.7801 17.1353L10.791 17.1134ZM15.0767 19.0429C15.4432 19.088 15.8149 19.0607 16.1709 18.9627C16.8024 18.7733 17.3586 18.3906 17.7611 17.8685C16.9206 18.0895 16.0682 18.2624 15.208 18.3864H15.073L14.8068 18.908L15.0767 19.0429ZM11.4293 17.0296C11.3565 17.6345 11.3333 18.2445 11.36 18.8532C11.8735 18.6319 12.4108 18.4704 12.9612 18.3718L12.8117 18.2259C12.4522 17.871 12.1518 17.461 11.9217 17.0113L11.4293 17.0296ZM14.1393 18.5213C14.2706 18.6089 14.4019 18.6928 14.5332 18.7657C14.5916 18.6599 14.6463 18.5542 14.701 18.4484L14.5186 18.4739L14.1393 18.5213ZM19.9094 18.1566C20.014 18.3192 20.1363 18.4697 20.2742 18.6052C20.2742 18.5724 20.2742 18.5396 20.2742 18.5067C20.2351 18.2976 20.1852 18.0906 20.1246 17.8867L19.9094 18.1566ZM5.86342 14.874C5.86496 15.8421 6.17688 16.7843 6.75338 17.5621C7.03013 17.9278 7.35529 18.2541 7.71993 18.5323C7.9546 18.1542 8.26507 17.8288 8.63178 17.5767C9.20026 17.2079 9.83832 16.9596 10.5065 16.8472C10.555 16.5577 10.6258 16.2724 10.7181 15.9937C9.05692 15.8105 7.42206 15.4385 5.84518 14.8849L5.86342 14.874ZM12.5162 16.9566C12.8709 17.4487 13.2933 17.8883 13.7709 18.2624C14.0044 18.2259 14.2414 18.1967 14.4785 18.1675L14.8724 18.1128C14.9782 17.9013 15.0803 17.6897 15.1825 17.4818L15.2882 17.2666C14.8732 17.1873 14.4794 17.0221 14.132 16.7815C13.5911 16.873 13.0456 16.9351 12.498 16.9675L12.5162 16.9566ZM15.6311 17.2958C15.5764 17.4016 15.5253 17.511 15.4706 17.6204C15.4159 17.7298 15.3284 17.9122 15.2554 18.0618C16.2057 17.9205 17.1462 17.7195 18.0712 17.4599C18.517 16.7385 18.8584 15.9575 19.0851 15.1402L19.2128 14.7098C19.4068 14.0037 19.6418 13.3095 19.9167 12.6308C19.8766 12.5542 19.8329 12.4776 19.7854 12.4047C19.535 12.542 19.2915 12.6917 19.056 12.8533C19.0268 12.8898 18.9976 12.9299 18.9648 12.9664C18.9648 13.5658 18.8471 14.1594 18.6183 14.7135C18.0821 16.0375 16.9697 17.2958 15.6347 17.2958H15.6311ZM26.5732 17.4162C26.7146 17.5673 26.8371 17.7351 26.9379 17.9159C26.9926 17.8101 27.051 17.708 27.1094 17.6022C27.1677 17.4964 27.2735 17.2958 27.361 17.1426C27.2297 17.1426 27.0984 17.1426 26.9671 17.1426H26.6899L26.5732 17.4162ZM19.7052 17.7809C19.7127 17.8049 19.7225 17.8281 19.7344 17.8502C19.811 17.7371 19.8839 17.6168 19.9532 17.4855C19.924 17.3979 19.8912 17.314 19.862 17.2265C19.7851 17.4068 19.7289 17.5953 19.6943 17.7882L19.7052 17.7809ZM19.3405 15.3919C19.1387 16.065 18.8647 16.7144 18.5235 17.3286C18.7605 17.2557 18.994 17.1791 19.2274 17.0989C19.2046 16.7057 19.2681 16.3123 19.4134 15.9463C19.3554 15.7697 19.3259 15.585 19.3259 15.3992L19.3405 15.3919ZM26.2121 17.0624L26.3252 17.1609L26.3507 17.0806L26.2121 17.0624ZM29.4947 16.8107C29.5531 16.9015 29.6067 16.9952 29.6552 17.0916C29.9124 17.0874 30.1687 17.0605 30.4212 17.0113C30.5576 16.9823 30.6917 16.9433 30.8224 16.8946C30.7497 16.6545 30.6557 16.4214 30.5415 16.198C30.2253 16.467 29.8634 16.677 29.4729 16.818L29.4947 16.8107ZM28.6887 17.0332C28.887 17.0618 29.0866 17.08 29.2868 17.0879C29.254 17.0296 29.2175 16.9712 29.1811 16.9165C29.012 16.9671 28.8403 17.0085 28.6668 17.0405L28.6887 17.0332ZM19.5994 16.5043C19.5666 16.6639 19.5519 16.8266 19.5557 16.9894L19.6468 16.953C19.6687 16.9092 19.6906 16.8654 19.7161 16.8217L19.5994 16.5043ZM16.4226 15.7749C16.2001 16.1615 15.9958 16.559 15.7952 16.9603C16.9113 16.8618 17.8487 15.7493 18.3192 14.5858C18.4778 14.1946 18.5821 13.7835 18.6292 13.3639C18.1865 13.9143 17.6837 14.4134 17.1302 14.8521C17.1083 14.8995 17.0864 14.9433 17.0609 14.987C16.8927 15.2943 16.6688 15.5677 16.4007 15.7931L16.4226 15.7749ZM14.5989 16.6758C14.8469 16.8163 15.1191 16.9091 15.4013 16.9493H15.4487C15.5727 16.694 15.7004 16.4423 15.8135 16.1907C15.6646 16.2769 15.5098 16.3524 15.3502 16.4168C15.0977 16.5295 14.8367 16.6222 14.5697 16.694L14.5989 16.6758ZM26.8066 16.6466C27.051 16.7195 27.2917 16.7779 27.5179 16.8289C27.6929 16.531 27.8957 16.2501 28.1233 15.9901L28.1744 15.9317C27.882 15.722 27.5706 15.54 27.2443 15.3882L27.1385 15.5524C27.0291 15.9171 26.9197 16.2818 26.8066 16.6466ZM28.4297 16.1287L28.3604 16.2016C28.1955 16.3946 28.0432 16.5981 27.9045 16.8107C28.2616 16.7909 28.6159 16.736 28.9622 16.6466C28.8005 16.4595 28.6223 16.2874 28.4297 16.1323V16.1287ZM11.0281 16.0411C10.9412 16.2895 10.8742 16.5444 10.8275 16.8034C10.926 16.8034 11.0281 16.7742 11.1266 16.7596C11.1631 16.5262 11.2068 16.2964 11.2579 16.063L11.0281 16.0411ZM20.3435 16.5299C20.2575 16.6031 20.1792 16.685 20.1101 16.7742L20.2888 16.7049L20.3435 16.5299ZM30.7859 15.9609C30.9225 16.2186 31.0349 16.4884 31.1215 16.7669C31.3466 16.6576 31.5563 16.519 31.7452 16.3548C31.778 16.1396 31.8072 15.9208 31.8291 15.7056C31.7557 15.7416 31.6768 15.765 31.5956 15.7749C31.5206 15.7813 31.4452 15.767 31.3776 15.7335C31.3101 15.7001 31.2531 15.6488 31.2127 15.5852L31.1689 15.5232L31.2637 15.2278C31.1561 15.4697 31.0135 15.6946 30.8406 15.8952L30.7859 15.9609ZM11.5789 16.1068C11.5314 16.311 11.4913 16.5189 11.4585 16.7268L11.7868 16.6976C11.7089 16.508 11.6384 16.311 11.5752 16.1068H11.5789ZM25.541 16.6101C25.6869 16.6466 25.8328 16.6794 25.9787 16.7086C25.2498 16.4293 24.6523 15.8865 24.3045 15.1876C24.2399 15.0418 24.1887 14.8904 24.1513 14.7354C23.9517 14.989 23.7214 15.2169 23.4656 15.4138C23.6563 15.645 23.8814 15.8456 24.1331 16.0083C24.5954 16.1482 25.0416 16.3365 25.4644 16.57L25.541 16.6101ZM11.9801 16.1177C12.0754 16.304 12.1801 16.4854 12.2937 16.6612H12.3229C12.7934 16.632 13.2676 16.5992 13.7381 16.5299L13.4645 16.3293L13.191 16.125C12.8044 16.1359 12.3995 16.136 11.9764 16.1177H11.9801ZM26.482 16.5408H26.5075L26.5331 16.4569C26.5112 16.4897 26.493 16.5153 26.4784 16.5408H26.482ZM28.6704 15.9098C28.8977 16.1004 29.1043 16.3143 29.2868 16.5481C29.6915 16.4108 30.0638 16.1924 30.3811 15.9062C30.2536 15.6862 30.1111 15.4753 29.9543 15.2752L29.8923 15.1949C29.4399 15.3543 29.0226 15.5995 28.6631 15.9171L28.6704 15.9098ZM20.6936 16.4897L20.7155 16.5372C21.0803 16.384 21.4268 16.2235 21.7733 16.0521C21.4192 16.0679 21.0709 16.147 20.7447 16.2855C20.7192 16.3548 20.7046 16.4204 20.6863 16.4897H20.6936ZM19.749 15.9864C19.8 16.1615 19.862 16.3511 19.924 16.508C19.9923 16.4245 20.0693 16.3487 20.1538 16.2818L20.245 16.2052C20.1642 15.9446 20.1068 15.6773 20.0736 15.4065C19.9412 15.5865 19.8299 15.7811 19.7417 15.9864H19.749ZM13.6834 16.0849C13.8512 16.2125 14.0189 16.3402 14.1867 16.4496C14.5416 16.3831 14.8886 16.2804 15.2226 16.1432C15.5621 16.0054 15.8783 15.816 16.16 15.5815L16.2694 15.3919C15.4564 15.7843 14.5765 16.0194 13.6761 16.0849H13.6834ZM24.4504 14.5493C24.4802 14.724 24.5317 14.8944 24.6036 15.0563C24.9362 15.6949 25.4997 16.1827 26.1793 16.4204C26.4054 16.0885 26.6279 15.753 26.8504 15.4174L26.9051 15.235L26.7191 15.1585C25.9871 14.8663 25.2232 14.6618 24.4431 14.5493H24.4504ZM32.1756 15.4174C32.1756 15.5888 32.15 15.7603 32.1281 15.9317C32.2546 15.7539 32.3485 15.5551 32.4054 15.3445C32.4226 15.2846 32.436 15.2237 32.4455 15.1621L32.3616 15.1366C32.3097 15.2382 32.2447 15.3326 32.1683 15.4174H32.1756ZM20.8359 14.6405C20.8359 14.7463 20.8541 14.8484 20.8578 14.9542C20.869 15.275 20.8506 15.5961 20.8031 15.9135C21.1618 15.7929 21.5371 15.7289 21.9155 15.7238C22.0784 15.7238 22.2426 15.7238 22.4079 15.7238C22.6196 15.613 22.8253 15.4913 23.0243 15.3591C22.8832 15.1337 22.7786 14.8876 22.7143 14.6296C22.7143 14.5712 22.6851 14.5129 22.6742 14.4582C22.0571 14.4624 21.4418 14.5235 20.8359 14.6405ZM20.3581 15.0417C20.3734 15.3248 20.4161 15.6058 20.4857 15.8806C20.5303 15.5776 20.5474 15.2712 20.5368 14.9651C20.5368 14.9323 20.5368 14.8958 20.5368 14.8594C20.4711 14.9177 20.4128 14.9797 20.3581 15.0417ZM22.9659 15.7712C23.1155 15.7712 23.265 15.8113 23.4146 15.8369C23.3417 15.7647 23.2735 15.6879 23.2103 15.6071L22.9659 15.7712ZM11.8196 15.7894C12.1333 15.8065 12.436 15.8138 12.7278 15.8113C12.4427 15.6312 12.1257 15.5074 11.794 15.4466H11.7612C11.7612 15.4466 11.7612 15.4794 11.7612 15.4977C11.7612 15.5888 11.8013 15.68 11.8232 15.7676C11.8196 15.7603 11.8196 15.7749 11.8196 15.7894ZM11.8706 15.1183C12.3846 15.2348 12.8658 15.4654 13.2785 15.7931C14.4609 15.7724 15.6165 15.4375 16.6268 14.8229C16.7253 14.677 16.8311 14.5348 16.9405 14.3962C17.0765 13.8451 17.1391 13.2785 17.1265 12.7111C17.1315 12.1951 17.1865 11.6809 17.2906 11.1755C16.9359 11.1089 16.5731 11.0966 16.2147 11.139C15.8219 11.2791 15.4392 11.446 15.0694 11.6387C14.3598 11.9972 13.7161 12.4732 13.1655 13.0466C12.6034 13.6451 12.1657 14.3493 11.8779 15.1183H11.8706ZM11.1412 15.7347H11.3235L11.3892 15.5086C11.3875 15.4855 11.3875 15.4624 11.3892 15.4393C11.3679 15.4466 11.3481 15.4577 11.3308 15.4721C11.2485 15.5418 11.1868 15.6326 11.1521 15.7347H11.1412ZM27.4121 15.122C27.7578 15.2869 28.0875 15.4835 28.3969 15.7092C28.7645 15.3771 29.1914 15.1173 29.6552 14.9433C29.2905 14.5785 28.7069 14.1408 28.1343 14.3816C27.8323 14.5566 27.5858 14.8132 27.423 15.122H27.4121ZM5.85613 14.5457L5.94001 14.5785C7.5168 15.1397 9.15318 15.5166 10.8166 15.7019C10.876 15.5273 10.9819 15.3722 11.1229 15.2533C11.1792 15.2127 11.2405 15.1796 11.3053 15.1548C11.2907 15.0478 11.2798 14.942 11.2725 14.8375C11.2665 14.6632 11.275 14.4888 11.298 14.3159C11.2837 13.7403 11.3688 13.1665 11.5497 12.6199C11.8629 11.7601 12.4515 11.0279 13.2238 10.5372C12.9612 10.5372 12.695 10.5044 12.436 10.4862C10.1826 10.8726 8.04918 11.7751 6.20263 13.1232C6.15643 13.2326 6.11266 13.3457 6.07132 13.4624C5.95462 13.8131 5.88233 14.177 5.85613 14.5457ZM30.2242 15.0964C30.3655 15.2782 30.4958 15.4682 30.6145 15.6654C30.7881 15.4586 30.9261 15.2244 31.023 14.9724C30.7532 14.9864 30.4856 15.028 30.2242 15.0964ZM31.5263 15.4612C31.5395 15.4648 31.5533 15.4648 31.5665 15.4612C31.6802 15.4383 31.7829 15.378 31.8582 15.2898V15.0271L31.6649 15.0016L31.5263 15.4612ZM20.0298 14.8958C19.8826 14.9621 19.7637 15.0784 19.6943 15.2241C19.6623 15.2992 19.645 15.3796 19.6432 15.4612C19.7568 15.2731 19.8861 15.0949 20.0298 14.9287V14.8958ZM23.0024 14.4436C23.0062 14.4759 23.0136 14.5077 23.0243 14.5384C23.0775 14.7568 23.1636 14.9659 23.2796 15.1585C23.5249 14.9662 23.7443 14.7431 23.9325 14.4946C23.6225 14.4582 23.3125 14.4363 23.0024 14.4326V14.4436ZM20.0845 13.0393C19.8547 13.612 19.676 14.2211 19.4973 14.8229L19.4462 14.998C19.5863 14.7845 19.7926 14.623 20.0335 14.5384C20.0335 14.4545 20.0335 14.3743 20.059 14.2904C20.0915 14.0038 20.1538 13.7214 20.245 13.4478C20.2085 13.2983 20.1465 13.1597 20.0882 13.0284L20.0845 13.0393ZM24.4614 14.2393C25.2736 14.3562 26.0693 14.5679 26.8322 14.8703L26.9854 14.936L27.051 14.7171C27.1147 14.5608 27.1262 14.3881 27.0838 14.2247C26.9963 14.0351 26.7191 13.9731 26.4601 13.9366C26.1246 13.8928 25.7781 13.8418 25.4243 13.8016L25.3258 13.8418L25.3076 13.7907C25.0814 13.7652 24.8516 13.7469 24.6219 13.7323C24.5881 13.9034 24.5343 14.0699 24.4614 14.2284V14.2393ZM28.4735 14.0022C29.1008 14.0022 29.6625 14.491 29.9835 14.8411C30.3498 14.7326 30.7287 14.6725 31.1105 14.6624C31.2066 14.1972 31.2096 13.7176 31.1195 13.2513C31.0293 12.7849 30.8478 12.341 30.5853 11.9451C30.1421 11.6363 29.6693 11.3724 29.1738 11.1573L29.0534 11.1354C28.7986 11.6145 28.4545 12.0405 28.0394 12.3901C27.4373 12.8751 26.7645 13.265 26.0443 13.5463L26.5039 13.6083C26.678 13.6082 26.8492 13.6527 27.0012 13.7376C27.1532 13.8225 27.2809 13.9451 27.372 14.0934C27.4385 14.2541 27.4513 14.4319 27.4085 14.6004C27.5661 14.3819 27.7771 14.2074 28.0212 14.0934C28.1679 14.0268 28.327 13.992 28.4881 13.9913L28.4735 14.0022ZM11.6117 14.3305C11.6117 14.491 11.6117 14.6515 11.6409 14.8192C11.9365 14.0914 12.363 13.4239 12.8992 12.8497C13.4741 12.2556 14.1449 11.7624 14.8834 11.3907C14.2036 11.5415 13.5595 11.8227 12.9867 12.2187C12.2765 12.7146 11.7882 13.4686 11.6263 14.3196L11.6117 14.3305ZM32.1354 13.6302C32.1354 13.6922 32.1354 13.7542 32.1354 13.8126C32.161 14.1226 32.1683 14.429 32.1683 14.7354L32.3725 14.3123C32.3281 14.0728 32.2533 13.8399 32.15 13.6193L32.1354 13.6302ZM31.7707 14.6952H31.8692C31.8692 14.5931 31.8692 14.4873 31.8692 14.3852L31.7707 14.6952ZM31.2054 12.4375C31.5062 13.1346 31.5901 13.9061 31.4461 14.6515L31.8108 13.5573C31.7899 13.3613 31.7533 13.1674 31.7014 12.9773C31.6503 12.9117 31.592 12.846 31.5336 12.7804C31.4753 12.7147 31.3257 12.5323 31.2127 12.4266L31.2054 12.4375ZM20.4128 14.0642C20.4128 14.1518 20.3836 14.2393 20.3727 14.3305V14.429L20.4748 14.4034C20.4629 14.2858 20.4446 14.1689 20.4201 14.0533L20.4128 14.0642ZM5.71752 13.5171C5.52421 13.7032 5.31267 13.9731 5.41115 14.2138C5.44009 14.283 5.48817 14.3424 5.54975 14.3852C5.57851 14.0913 5.63468 13.8006 5.71752 13.5171ZM22.645 13.8126C22.3582 13.8673 22.0765 13.9454 21.8024 14.046C21.6784 14.0934 21.5544 14.1518 21.4377 14.2138C21.8393 14.1591 22.2435 14.1262 22.6486 14.1153C22.6401 14.0146 22.6389 13.9134 22.645 13.8126ZM22.9587 14.1117C23.3234 14.1117 23.71 14.1372 24.082 14.1773C24.0797 14.0176 24.0883 13.858 24.1076 13.6995C23.7273 13.6927 23.3469 13.7134 22.9696 13.7615C22.9587 13.8779 22.955 13.9948 22.9587 14.1117ZM20.5733 13.4405C20.6449 13.6553 20.7022 13.8747 20.7447 14.0971L20.8322 13.9804C20.983 13.7579 21.0828 13.505 21.1244 13.2395C21.166 12.9741 21.1484 12.7027 21.073 12.4448C20.8669 12.7554 20.6991 13.0897 20.5733 13.4405ZM32.2449 13.1852C32.3851 13.4024 32.5002 13.6349 32.5877 13.8782L33.1932 12.6381C33.45 12.1907 33.6067 11.693 33.6528 11.1792C33.6528 9.63633 31.6722 8.89592 30.8187 8.64789C30.2539 8.47277 29.6718 8.35904 29.0826 8.30869C29.2886 8.71136 29.402 9.155 29.4145 9.60715C29.4226 9.85267 29.3968 10.0981 29.3379 10.3366C29.5312 10.4447 29.7165 10.5666 29.8923 10.7014L30.5671 10.7451C31.2309 10.7889 32.1464 10.9348 32.4236 11.6606C32.5419 12.0885 32.5057 12.5443 32.3215 12.9481L32.2449 13.1852ZM17.5824 11.274C17.4968 11.7457 17.4565 12.2244 17.4621 12.7038C17.4579 13.0914 17.4335 13.4785 17.3891 13.8636C17.7608 13.4597 18.1713 13.0932 18.6146 12.7694C18.6053 12.5226 18.5432 12.2806 18.4325 12.0597C18.3217 11.8389 18.165 11.6443 17.9727 11.4892C17.853 11.4 17.7217 11.3276 17.5824 11.274ZM21.3027 12.1275C21.5014 12.6528 21.5014 13.2325 21.3027 13.7579C21.8384 13.5563 22.3528 13.3022 22.8383 12.9992C23.0102 12.5917 23.2577 12.2204 23.5678 11.905C23.3075 11.6808 23.0179 11.4931 22.707 11.347C22.4444 11.4053 22.1708 11.4783 21.8973 11.5585C21.6813 11.7287 21.4822 11.9192 21.3027 12.1275ZM22.6815 13.4551L22.6194 13.4916H22.6778L22.6815 13.4551ZM24.6364 13.4004C24.8845 13.4004 25.1288 13.4405 25.3659 13.4661C26.2562 13.1652 27.0887 12.715 27.8279 12.1348C28.1824 11.833 28.4812 11.4713 28.7106 11.0661C27.5607 10.826 26.3701 10.8648 25.2383 11.1792C25.1471 11.3871 25.0595 11.6023 24.972 11.8175C24.8298 12.1822 24.6875 12.5469 24.5817 12.9117C24.612 13.0397 24.6291 13.1705 24.6328 13.3019L24.6364 13.4004ZM23.0863 13.1998C23.0571 13.2764 23.0352 13.353 23.0134 13.4296C23.3875 13.3871 23.764 13.3701 24.1404 13.3785C24.1696 13.2217 24.2097 13.0612 24.2535 12.9007C24.196 12.7054 24.1073 12.5207 23.9909 12.3536C23.7379 12.6783 23.4379 12.9635 23.1009 13.1998H23.0863ZM13.8183 10.5372C12.9013 10.9827 12.1936 11.7676 11.8451 12.7257C11.8011 12.8448 11.7645 12.9667 11.7357 13.0904C12.0098 12.6397 12.372 12.2489 12.8007 11.9415C13.728 11.321 14.7968 10.9446 15.9083 10.8473L16.1125 10.8254C16.5669 10.6682 17.0327 10.5462 17.5058 10.4606L17.5277 10.4205C17.3462 10.3367 17.1584 10.2672 16.966 10.2126C16.8566 10.1798 16.7435 10.1543 16.6305 10.1324H16.1964C15.4412 10.4153 14.6393 10.5527 13.8329 10.5372H13.8183ZM20.2523 12.6345C20.3107 12.7512 20.3654 12.8679 20.4164 12.9992C20.5598 12.6705 20.741 12.3596 20.9562 12.0728C20.9307 12.0144 20.9015 11.9597 20.8724 11.9013L20.5769 12.0254C20.4576 12.2223 20.3492 12.4256 20.2523 12.6345ZM32.0005 12.8023C32.013 12.82 32.0264 12.837 32.0406 12.8533C32.1931 12.5199 32.2303 12.1452 32.1464 11.7883C31.9348 11.2302 31.1434 11.1135 30.5671 11.0588H30.3118L30.4212 11.1755C30.95 11.3682 31.4061 11.7198 31.7269 12.1822C31.8455 12.3757 31.9375 12.5842 32.0005 12.8023ZM17.6627 10.9786C17.994 11.0956 18.2859 11.3033 18.5051 11.578C18.7243 11.8526 18.8621 12.1833 18.9028 12.5323C19.0706 12.3281 19.242 12.1202 19.4171 11.9159C19.053 11.4375 18.6058 11.0285 18.0967 10.7087C17.98 10.7087 17.8596 10.7415 17.732 10.7634C17.7137 10.8108 17.6882 10.891 17.6554 10.964L17.6627 10.9786ZM10.7728 10.395C10.2019 10.3837 9.63222 10.4524 9.0804 10.5992C8.03789 10.9061 7.13985 11.5764 6.54913 12.4886C7.98621 11.522 9.58277 10.817 11.2652 10.4059C11.1023 10.3889 10.9381 10.3804 10.7728 10.3804V10.395ZM23.7975 12.1092C23.6917 12.2237 23.5942 12.3456 23.5058 12.474C23.6126 12.3604 23.7102 12.2384 23.7975 12.1092ZM24.1951 12.0874C24.2793 12.2025 24.3538 12.3245 24.4176 12.4521C24.5051 12.2077 24.5963 11.967 24.6948 11.7226L24.8371 11.3579C24.6923 11.4265 24.5522 11.5045 24.4176 11.5913C24.3598 11.7589 24.2852 11.9202 24.1951 12.0728V12.0874ZM20.0517 12.2697V12.2916L20.0699 12.2515L20.0517 12.2697ZM19.8438 11.905C19.862 11.9305 19.8803 11.9561 19.8949 11.9816C20.0553 11.9013 20.2122 11.8248 20.369 11.7555C20.442 11.6387 20.5149 11.5293 20.5952 11.4235C20.5514 11.3688 20.504 11.3141 20.4566 11.2631C20.2268 11.4746 20.0225 11.6934 19.8438 11.905ZM21.186 11.7628L21.2079 11.7372L21.186 11.7628ZM18.611 10.6357C19.0006 10.9238 19.3491 11.2637 19.6468 11.646C19.8329 11.4381 20.0116 11.2375 20.2231 11.0442C20.1882 11.0142 20.1517 10.9862 20.1137 10.9603C19.9308 10.8192 19.734 10.697 19.5265 10.5956C19.2145 10.5955 18.9028 10.6125 18.5928 10.6467L18.611 10.6357ZM23.2067 11.2011C23.4227 11.3293 23.6266 11.477 23.8158 11.6424C23.9255 11.5441 24.0412 11.4528 24.1623 11.3688C24.1915 11.2594 24.217 11.15 24.2352 11.0406C24.0127 11.0697 23.7939 11.0989 23.5751 11.1354L23.2067 11.2011ZM20.9927 11.4308L21.0255 11.4819C21.2736 11.3907 21.5143 11.3068 21.755 11.2339C21.8426 11.1609 21.9337 11.0916 22.0286 11.026H21.9957C21.8462 10.9786 21.693 10.9348 21.5398 10.8947C21.3332 11.0573 21.1438 11.2406 20.9745 11.4418L20.9927 11.4308ZM20.6936 11.0661L20.7958 11.1865C20.908 11.0559 21.0299 10.9339 21.1605 10.8217L21.0401 10.7962C20.9064 10.8764 20.7848 10.964 20.6754 11.0588L20.6936 11.0661ZM24.5635 11.0223C24.5635 11.0661 24.5635 11.1062 24.5635 11.15C24.6415 11.1067 24.7219 11.0677 24.8042 11.0333L24.8918 10.9932L24.5635 11.0223ZM21.8754 10.6576L22.0906 10.7232C22.3195 10.7939 22.5437 10.8792 22.7617 10.9786C23.0243 10.9202 23.2796 10.8728 23.524 10.8327C23.7684 10.7925 24.0164 10.7561 24.2535 10.7269C24.2586 10.5528 24.2414 10.3787 24.2024 10.209C24.1913 10.1506 24.1754 10.0933 24.155 10.0375C23.3462 10.0261 22.5504 10.2408 21.8571 10.6576H21.8754ZM17.2469 10.8509L17.3745 10.8764C17.3745 10.8546 17.3745 10.8363 17.3745 10.8181L17.2469 10.8509ZM20.245 10.6685L20.3034 10.7123L20.4602 10.8363L20.6061 10.7123C20.4675 10.6977 20.3471 10.6795 20.2268 10.6685H20.245ZM24.4978 10.0375C24.5085 10.071 24.517 10.1051 24.5234 10.1397C24.563 10.3206 24.5826 10.5053 24.5817 10.6904L25.1653 10.643C25.2529 10.4606 25.3404 10.2783 25.4352 10.1141C25.1183 10.0712 24.7993 10.0456 24.4796 10.0375H24.4978ZM29.2832 10.6722H29.3197L29.2868 10.6503L29.2832 10.6722ZM28.8236 10.6467H28.944C28.9659 10.5919 28.9841 10.5372 29.0024 10.4862C28.0793 10.0303 27.0726 9.76834 26.0443 9.71657L25.9495 9.85882C26.2851 9.91718 26.6024 9.99013 26.8978 10.0594C27.5448 10.2169 28.1818 10.413 28.8054 10.6467H28.8236ZM25.7744 10.1652C25.6905 10.3111 25.6103 10.4643 25.5337 10.6211C26.2413 10.5846 26.9525 10.581 27.6601 10.5992C27.3756 10.519 27.0984 10.446 26.8322 10.384C26.4455 10.2929 26.0917 10.2199 25.7562 10.1652H25.7744ZM21.3976 10.5299H21.4632C21.615 10.4176 21.7746 10.3164 21.941 10.2272C21.8243 10.2831 21.7027 10.3415 21.5763 10.4023C21.5143 10.446 21.4486 10.4935 21.3793 10.5372L21.3976 10.5299ZM19.5994 10.2965C20.0486 10.3143 20.496 10.3643 20.938 10.446C21.0958 10.333 21.2602 10.2295 21.4304 10.136C22.1681 9.75304 22.9734 9.51764 23.8012 9.44302C23.7065 9.34306 23.597 9.25819 23.4766 9.19135C23.0778 9.00827 22.6422 8.91965 22.2036 8.93239C20.8942 8.87768 19.2602 9.02722 18.3083 9.92812C18.7466 9.99974 19.1742 10.1259 19.5812 10.3038L19.5994 10.2965ZM18.0201 10.2746L18.1806 10.3658C18.3338 10.3488 18.487 10.3342 18.6402 10.322C18.4505 10.2783 18.2754 10.2418 18.0639 10.2126L18.0201 10.2746ZM26.2814 9.42843C27.2529 9.49797 28.2023 9.75172 29.0789 10.1761C29.1155 9.99489 29.1326 9.81027 29.13 9.62539C29.1115 9.1607 28.98 8.70752 28.747 8.30504C28.2346 8.29736 27.7274 8.40978 27.2662 8.6333C26.8829 8.82672 26.5439 9.09745 26.2705 9.42843H26.2814ZM16.7982 9.79317C17.1774 9.79795 17.556 9.8223 17.9326 9.86612C18.9356 8.73178 20.7739 8.54577 22.2328 8.60412C22.72 8.59476 23.2029 8.69707 23.6444 8.90321C23.8639 9.02509 24.0533 9.19458 24.1988 9.39925C24.4796 9.38101 24.7386 9.37372 24.9757 9.37007C25.2942 9.37007 25.6006 9.37737 25.8948 9.39196C26.2192 8.9519 26.6396 8.59144 27.124 8.33787C27.5671 8.11742 28.0519 7.99312 28.5464 7.97313C28.2471 7.56165 27.8765 7.20712 27.4522 6.92633C26.1465 6.04002 24.3665 5.66434 22.1526 5.81024C20.3289 5.92695 19.0997 6.45947 18.4797 7.3932C18.3342 7.62655 18.2061 7.87038 18.0967 8.12267C17.9837 8.39364 17.8482 8.65472 17.6919 8.90321C17.4564 9.26352 17.1468 9.56943 16.7837 9.80046L16.7982 9.79317ZM24.4577 9.70563C24.8474 9.7135 25.2361 9.74762 25.6212 9.80776C25.6431 9.77128 25.665 9.73481 25.6905 9.69834C25.4608 9.69834 25.2273 9.69834 24.9902 9.69834C24.8006 9.71657 24.6219 9.71657 24.4322 9.71657L24.4577 9.70563Z" fill="white"/>
<path d="M56.6093 53.5616C56.065 53.3009 55.4746 53.1501 54.872 53.1177C54.2694 53.0853 53.6662 53.172 53.0971 53.3729C52.528 53.5738 52.0041 53.8849 51.5554 54.2884C51.1066 54.6919 50.7417 55.1799 50.4817 55.7245L50.3613 55.9798L50.1899 56.3446L49.982 56.764L49.5443 57.6212C49.2416 58.1901 48.9425 58.7628 48.6179 59.3099C48.8696 58.4673 49.1431 57.6212 49.424 56.7786C49.7048 55.9361 50.0075 55.0096 50.3176 54.127C50.9194 52.3653 51.5723 50.5744 52.1814 48.8346L52.2033 48.7763C52.3874 48.2549 52.3771 47.6846 52.1742 47.1703C51.9714 46.6559 51.5896 46.2322 51.0991 45.9769C50.6086 45.7217 50.0424 45.6522 49.5048 45.7812C48.9672 45.9102 48.4942 46.229 48.1729 46.679C47.0021 48.3131 45.9845 49.9617 44.9669 51.6468C43.9493 53.3318 43.0374 55.0789 42.1584 56.8698C41.2645 58.6952 40.4766 60.5707 39.7985 62.4867C39.463 63.4788 39.1457 64.5001 38.883 65.587C38.5933 66.7608 38.4222 67.9607 38.3724 69.1687C38.3348 70.1203 38.6416 71.0536 39.2365 71.7973C39.8314 72.541 40.6746 73.0451 41.6113 73.2173L41.9104 73.272C43.1735 73.4991 44.4684 73.483 45.7255 73.2246C46.8763 72.9783 47.9831 72.5589 49.0082 71.9809C50.7227 70.9964 52.257 69.7272 53.5455 68.2277C54.1362 67.5678 54.6891 66.8749 55.2014 66.1524C55.7011 65.4484 56.1789 64.7445 56.6056 64.0186C57.0324 63.2928 57.4482 62.5597 57.8166 61.8302C58.0026 61.4655 58.1813 61.0825 58.36 60.6959L58.6117 60.1087L58.8852 59.4448C59.3263 58.3588 59.3364 57.1453 58.9135 56.0521C58.4906 54.9588 57.6664 54.0681 56.6093 53.5616Z" fill="#263238"/>
<path d="M48.0744 42.0432L47.976 43.8669C47.9447 44.5936 48.0691 45.3186 48.3407 45.9933L49.0702 47.8644C49.2384 48.2904 49.5242 48.6598 49.8941 48.9297C50.2641 49.1996 50.7031 49.3589 51.1601 49.389C51.781 49.4311 52.394 49.2307 52.8702 48.8301C53.3464 48.4294 53.6486 47.8597 53.7133 47.2407C53.7684 46.3045 53.6836 45.3653 53.4616 44.4541L53.2574 42.138C53.2229 41.7584 53.0548 41.4033 52.7829 41.1361C52.511 40.8689 52.1531 40.7069 51.7729 40.6791L49.7997 40.5295C49.5868 40.5147 49.3731 40.5422 49.1709 40.6104C48.9687 40.6786 48.782 40.7861 48.6216 40.9269C48.4612 41.0676 48.3303 41.2387 48.2364 41.4303C48.1424 41.6219 48.0874 41.8302 48.0744 42.0432Z" fill="#FFB573"/>
<path opacity="0.2" d="M53.4653 44.4505L53.2611 42.138C53.226 41.7592 53.0582 41.405 52.7872 41.138C52.5162 40.871 52.1595 40.7085 51.7802 40.6791L49.869 40.5332C49.6538 43.5168 51.1821 46.8359 52.8562 48.8492C53.0996 48.6523 53.301 48.4084 53.4482 48.1321C53.5955 47.8557 53.6856 47.5526 53.7133 47.2407C53.7713 46.3035 53.6877 45.3628 53.4653 44.4505Z" fill="black"/>
<path d="M69.8821 49.524C64.6153 49.9179 58.0208 50.3483 53.2902 52.5987C50.9559 53.7111 50.3285 56.0491 50.675 58.6132C51.2258 62.6837 51.6999 65.9335 52.7139 69.3693C55.0628 77.295 50.354 82.9704 55.6318 89.1089C57.9479 91.7423 72.1471 94.2152 82.2029 90.9107C83.6618 84.9108 81.7761 69.9894 79.7592 56.4065C79.0552 51.6103 74.7221 49.1629 69.8821 49.524Z" fill="#2196F3"/>
<path d="M63.346 43.1448C63.6013 45.377 64.7064 48.6523 66.5958 49.6736C66.8008 49.7861 66.9758 49.9462 67.106 50.1405C67.2362 50.3347 67.3178 50.5575 67.3439 50.7899C67.37 51.0223 67.3399 51.2576 67.256 51.4759C67.1722 51.6942 67.037 51.8892 66.862 52.0444C65.7496 53.0182 64.0317 53.8681 61.7265 54.3459C58.7211 54.9586 58.0791 54.0504 58.1229 53.1167C58.1677 52.6661 58.3512 52.2404 58.6481 51.8985C59.6183 50.7021 58.6481 49.7721 58.0463 49.0718L63.346 43.1448Z" fill="#FFB573"/>
<path opacity="0.2" d="M61.9965 46.5112C61.9378 46.386 61.872 46.2643 61.7995 46.1465L58.05 49.0826C58.4148 49.5385 58.9838 50.0966 59.0531 50.7568C60.9898 49.5933 62.5655 47.7221 61.9965 46.5112Z" fill="black"/>
<path d="M38.6314 123.482C39.3609 122.734 44.0003 121.293 44.0003 121.293C45.2157 124.785 46.2194 128.346 47.0058 131.958L40.9986 132.571C40.9986 132.571 40.0028 126.484 38.6314 123.482Z" fill="#FFB573"/>
<path d="M65.1989 86.1729C47.8264 86.4209 24.9647 85.4908 30.3482 101.324C32.6534 108.101 32.4673 110.592 35.1628 118.802C36.3226 122.337 36.7165 123.376 37.5591 125.823C38.4819 128.012 44.0113 127.611 46.0538 126.754C48.5085 125.448 46.4185 121.921 46.145 119.937C44.748 110.249 47.6477 106.547 44.5985 100.197C50.1425 100.999 65.7277 100.438 68.0475 90.9108C68.0475 90.9108 71.2426 87.1139 65.1989 86.1729Z" fill="#263238"/>
<path d="M38.9743 126.991L39.7037 128.45C39.7477 128.537 39.8186 128.608 39.9059 128.652C39.9933 128.696 40.0925 128.711 40.1888 128.694C41.1736 128.522 44.1061 128.052 45.8131 128.26C45.8746 128.266 45.9368 128.26 45.996 128.242C46.0552 128.224 46.1101 128.194 46.1574 128.154C46.2048 128.115 46.2436 128.066 46.2715 128.01C46.2995 127.955 46.316 127.895 46.3201 127.833C46.3529 127.257 46.3456 126.509 46.3383 126.039C46.3345 125.919 46.2846 125.805 46.1989 125.722C46.1132 125.638 45.9985 125.591 45.8787 125.59C43.6569 125.613 41.4429 125.857 39.2697 126.319C39.2005 126.336 39.1361 126.368 39.0815 126.413C39.0269 126.459 38.9836 126.516 38.955 126.581C38.9263 126.647 38.9132 126.717 38.9165 126.788C38.9199 126.859 38.9396 126.929 38.9743 126.991Z" fill="#2196F3"/>
<path d="M48.2933 135.773L47.6659 131.539C47.6427 131.44 47.5851 131.354 47.5035 131.294C47.4219 131.235 47.3217 131.206 47.2209 131.214L41.0605 131.24C40.5664 131.205 40.0746 131.333 39.6599 131.604C38.2739 132.75 36.1256 133.848 33.0035 134.453C32.0151 134.646 32.4345 136.609 34.7506 136.598C38.5803 136.579 38.4198 136.459 41.6806 136.448C44.4745 136.448 45.1748 136.576 47.3924 136.598C47.5064 136.606 47.621 136.591 47.7291 136.554C47.8371 136.516 47.9364 136.457 48.0208 136.38C48.1051 136.303 48.1728 136.209 48.2197 136.105C48.2666 136.001 48.2916 135.888 48.2933 135.773Z" fill="#263238"/>
<path d="M61.205 37.2871C62.8353 41.022 63.9806 43.1229 63.1089 46.0408C61.8031 50.4504 56.5071 51.4425 53.7972 48.3568C51.3607 45.5775 49.103 39.9314 51.8932 36.4008C54.6433 32.9285 59.5746 33.5485 61.205 37.2871Z" fill="#FFB573"/>
<path d="M58.2069 46.2669C58.408 46.2622 58.6092 46.2732 58.8087 46.2997C58.8225 46.3015 58.8358 46.306 58.8478 46.3131C58.8598 46.3202 58.8703 46.3297 58.8785 46.341C58.8867 46.3523 58.8925 46.3651 58.8955 46.3787C58.8986 46.3923 58.8988 46.4064 58.8962 46.4201C58.8949 46.4338 58.8908 46.4471 58.8841 46.459C58.8774 46.471 58.8682 46.4815 58.8572 46.4897C58.8463 46.498 58.8337 46.5038 58.8203 46.5069C58.8069 46.51 58.793 46.5102 58.7795 46.5076C58.3369 46.4326 57.8829 46.464 57.4548 46.599C57.0267 46.7341 56.6369 46.9691 56.3175 47.2845C56.2977 47.3044 56.2708 47.3155 56.2427 47.3155C56.2147 47.3155 56.1878 47.3044 56.168 47.2845C56.1583 47.275 56.1506 47.2637 56.1453 47.2511C56.14 47.2386 56.1373 47.2252 56.1373 47.2116C56.1373 47.198 56.14 47.1845 56.1453 47.172C56.1506 47.1595 56.1583 47.1481 56.168 47.1386C56.7082 46.5937 57.4397 46.281 58.2069 46.2669Z" fill="#263238"/>
<path d="M56.5254 41.8134C56.3394 41.9192 56.3248 42.2365 56.4889 42.521L57.1601 42.1307C56.9959 41.8462 56.7114 41.704 56.5254 41.8134Z" fill="#263238"/>
<path d="M53.0349 43.7939C52.8489 43.8996 52.8306 44.2169 52.9984 44.5014L53.6695 44.1112C53.4835 43.8267 53.2027 43.6844 53.0349 43.7939Z" fill="#263238"/>
<path d="M55.6135 40.0408C55.6366 40.0109 55.6678 39.9885 55.7035 39.9761C55.7391 39.9638 55.7776 39.9622 55.8142 39.9715C56.0469 40.0377 56.2921 40.0474 56.5293 39.9998C56.7666 39.9523 56.989 39.8488 57.1783 39.6979C57.1962 39.68 57.2175 39.6657 57.241 39.656C57.2645 39.6462 57.2896 39.6412 57.315 39.6412C57.3405 39.6412 57.3656 39.6462 57.3891 39.656C57.4125 39.6657 57.4339 39.68 57.4518 39.6979C57.4698 39.7159 57.4841 39.7372 57.4938 39.7607C57.5035 39.7842 57.5085 39.8093 57.5085 39.8347C57.5085 39.8601 57.5035 39.8853 57.4938 39.9087C57.4841 39.9322 57.4698 39.9535 57.4518 39.9715C57.2151 40.1658 56.9351 40.3003 56.6355 40.3638C56.3359 40.4273 56.0254 40.4178 55.7303 40.3362C55.6811 40.3233 55.639 40.2916 55.6131 40.2479C55.5872 40.2043 55.5795 40.1521 55.5917 40.1028C55.5956 40.0811 55.603 40.0601 55.6135 40.0408Z" fill="#263238"/>
<path d="M52.5789 41.7551C52.6156 41.7279 52.6614 41.7162 52.7066 41.7223C52.7573 41.7269 52.8041 41.7513 52.8368 41.7903C52.8696 41.8292 52.8857 41.8795 52.8817 41.9302C52.8633 42.236 52.7714 42.5329 52.614 42.7958C52.4565 43.0586 52.2381 43.2796 51.9771 43.4402C51.9321 43.4635 51.8797 43.4681 51.8312 43.4531C51.7828 43.4381 51.7422 43.4046 51.7182 43.36C51.706 43.338 51.6984 43.3138 51.6956 43.2888C51.6929 43.2638 51.6952 43.2385 51.7023 43.2144C51.7094 43.1904 51.7213 43.1679 51.7371 43.1484C51.753 43.129 51.7726 43.1128 51.7948 43.101C51.9987 42.9704 52.1686 42.7931 52.2904 42.5838C52.4121 42.3745 52.4823 42.1392 52.4951 41.8974C52.4979 41.869 52.5069 41.8416 52.5214 41.817C52.5359 41.7925 52.5555 41.7713 52.5789 41.7551Z" fill="#263238"/>
<path opacity="0.2" d="M53.7971 44.002C53.8115 44.2846 53.7545 44.5664 53.6315 44.8213C53.5085 45.0763 53.3234 45.2962 53.0932 45.4609C54.7929 45.1837 53.7971 44.002 53.7971 44.002Z" fill="black"/>
<path opacity="0.2" d="M56.0658 42.7399C56.3087 42.8783 56.5823 42.9541 56.8618 42.9605C57.1413 42.9669 57.418 42.9036 57.667 42.7763C56.7406 43.9472 56.0658 42.7399 56.0658 42.7399Z" fill="black"/>
<path d="M64.287 37.411C64.1046 35.7259 63.6596 34.4676 63.0688 33.6141C63.3267 33.6964 63.5916 33.755 63.8602 33.7892C62.3575 31.5096 59.9065 31.9363 59.1187 32.8591C58.1594 30.7618 56.8026 32.1624 55.2597 32.4287C53.7169 32.695 50.8464 31.5789 50.8464 31.5789C50.8464 31.5789 51.4774 32.6731 52.506 32.8408C50.5109 33.7417 49.7741 35.2919 49.2452 36.4882C48.7164 37.6846 47.1115 39.118 47.1115 39.118C47.7811 39.125 48.4299 38.8862 48.9352 38.4469C48.7346 39.6651 47.892 41.9374 47.4762 42.459C48.5705 42.0942 49.5954 40.7556 49.5954 40.7556C49.5954 40.7556 49.7923 42.9441 50.8209 44.4249C50.6093 42.5319 53.6403 38.7423 53.6403 38.7423C53.5057 39.555 53.5057 40.3843 53.6403 41.197C55.0081 40.0408 57.2366 36.2548 57.2366 36.2548C57.2648 37.3547 57.4202 38.4477 57.6998 39.5119C57.8292 38.875 58.0956 38.2739 58.4804 37.7502C58.0792 39.107 59.1004 42.2438 59.1004 42.2438C59.0491 41.4246 59.1018 40.6023 59.2573 39.7964C59.5454 40.7301 61.3144 41.7587 62.0402 41.8644C62.0329 41.8717 64.8013 42.0869 64.287 37.411Z" fill="#263238"/>
<path d="M64.2506 40.8105C64.1929 41.8045 63.7445 42.7354 63.0032 43.4001C62.0111 44.2718 60.946 43.5241 60.7454 42.3059C60.5631 41.1934 60.8585 39.388 62.0804 39.005C63.3022 38.622 64.3089 39.5922 64.2506 40.8105Z" fill="#FFB573"/>
<path d="M54.7637 43.597C54.7637 43.597 55.3145 45.563 55.2087 46.7885C56.0075 46.8724 56.6677 46.0809 56.6677 46.0809L54.7637 43.597Z" fill="#ED893E"/>
<path opacity="0.2" d="M52.7577 100.248C52.5462 97.8371 52.2398 95.4262 51.8313 93.0408C51.6483 91.9509 51.2964 90.8963 50.7881 89.915C39.1166 88.3612 38.0843 98.0632 45.7985 116.508C45.39 109.264 47.2575 105.737 44.6022 100.197C47.3098 100.526 50.0462 100.543 52.7577 100.248Z" fill="black"/>
<path opacity="0.2" d="M62.8828 40.2305L63.6597 41.8463C63.9626 42.4596 64.1175 43.1354 64.112 43.8195L64.0718 45.6432C64.0534 46.0661 63.8941 46.4707 63.6191 46.7926C63.3442 47.1145 62.9694 47.3352 62.5545 47.4194C61.9152 47.5725 61.2436 47.5166 60.6384 47.2599C60.0331 47.0032 59.5261 46.5593 59.1917 45.9933C58.7916 45.1906 58.5243 44.3284 58.4002 43.4402L57.74 41.3247C57.685 41.158 57.6659 40.9816 57.6841 40.8071C57.7023 40.6325 57.7574 40.4638 57.8457 40.3121C57.9339 40.1604 58.0534 40.0292 58.1961 39.9271C58.3389 39.825 58.5017 39.7543 58.6737 39.7198L60.5886 39.2019C61.0309 39.0956 61.496 39.1388 61.9111 39.3249C62.3262 39.511 62.6679 39.8295 62.8828 40.2305Z" fill="black"/>
<path d="M63.3278 40.4457L63.926 42.1709C64.1664 42.8548 64.2548 43.583 64.1849 44.3046L63.9916 46.3106C63.9488 46.7662 63.7772 47.2002 63.4969 47.5619C63.2166 47.9236 62.8391 48.198 62.4087 48.3532C61.8227 48.5694 61.1757 48.549 60.6045 48.2965C60.0333 48.0439 59.5828 47.5789 59.3485 47C59.0341 46.1164 58.8546 45.1905 58.816 44.2535L58.371 41.9702C58.2967 41.595 58.3582 41.2055 58.5446 40.8714C58.731 40.5373 59.0302 40.2804 59.3886 40.1466L61.2451 39.4572C61.4466 39.3829 61.6609 39.3495 61.8754 39.3592C62.09 39.3688 62.3004 39.4212 62.4944 39.5132C62.6884 39.6053 62.8621 39.7352 63.0052 39.8954C63.1483 40.0555 63.258 40.2426 63.3278 40.4457Z" fill="#FFB573"/>
<path d="M75.623 51.6139C74.4438 51.318 73.1954 51.5027 72.1524 52.1271C71.1093 52.7516 70.357 53.7648 70.0608 54.9439L69.9696 55.3086L69.8018 55.9944L69.5939 56.7676C69.4444 57.2965 69.2985 57.829 69.1271 58.3542C68.8024 59.4046 68.4158 60.4186 68.011 61.3779L67.9891 61.4289C67.5842 60.2071 67.2085 58.9341 66.873 57.6393C66.625 56.7238 66.3879 55.7937 66.169 54.86C65.9502 53.9263 65.7168 52.9853 65.5089 52.037C65.0785 50.1549 64.6773 48.2218 64.2688 46.347V46.2923C64.1487 45.7518 63.8373 45.2728 63.3918 44.9439C62.9463 44.615 62.3969 44.4583 61.845 44.5028C61.293 44.5472 60.7758 44.7898 60.3887 45.1857C60.0015 45.5817 59.7707 46.1043 59.7387 46.6571C59.6147 48.7288 59.6184 50.7275 59.6694 52.7701C59.7205 54.8126 59.8627 56.8405 60.0852 58.894C60.1946 59.9226 60.3442 60.9548 60.512 61.9943C60.6797 63.0338 60.8767 64.0879 61.1503 65.1529C61.4196 66.268 61.7607 67.3645 62.1715 68.4355C62.4045 69.0438 62.6775 69.6359 62.9885 70.2082C63.3649 70.9045 63.8162 71.5576 64.3344 72.1559C64.9626 72.8716 65.8248 73.3405 66.767 73.4788C67.7092 73.6171 68.6698 73.4158 69.4772 72.9109L69.7252 72.754C70.481 72.278 71.1959 71.74 71.8626 71.1455C72.4889 70.5813 73.0728 69.9717 73.6097 69.3219C74.1208 68.699 74.5992 68.0501 75.0431 67.3778C75.4698 66.7103 75.8492 66.0392 76.2066 65.3608C76.5604 64.694 76.8805 64.0098 77.1659 63.311C77.4504 62.6216 77.7239 61.9323 77.9501 61.232C78.1762 60.5317 78.395 59.835 78.5701 59.1201C78.6576 58.7554 78.7488 58.3907 78.8218 58.0259L78.9312 57.4971L79.0406 56.8551C79.2372 55.7115 78.9943 54.5358 78.3604 53.5638C77.7266 52.5918 76.7488 51.8952 75.623 51.6139Z" fill="#263238"/>
<path d="M55.982 123.15C56.6203 122.333 61.0883 120.44 61.0883 120.44C62.6498 123.791 64.0079 127.233 65.1551 130.747L59.2391 131.955C59.2391 131.955 57.6525 126.006 55.982 123.15Z" fill="#FFB573"/>
<path d="M67.4274 85.0093C50.3541 86.1728 37.1542 86.2093 44.6824 101.142C47.9067 107.532 48.545 110.957 52.0574 118.85C53.5674 122.249 54.0671 123.245 55.1504 125.597C56.292 127.687 61.7521 126.721 63.6962 125.663C66.005 124.113 63.5831 120.816 63.098 118.871C60.7309 109.388 63.1454 106 59.5272 99.9562C65.1186 100.244 79.8905 100.438 82.2102 90.9107C82.2139 90.9107 79.4309 85.0093 67.4274 85.0093Z" fill="#263238"/>
<path d="M56.6823 126.611L57.5686 127.997C57.6219 128.08 57.7002 128.143 57.7921 128.178C57.884 128.213 57.9846 128.217 58.0792 128.191C59.0385 127.921 61.909 127.158 63.6305 127.187C63.6923 127.188 63.7535 127.176 63.8105 127.152C63.8674 127.128 63.9189 127.093 63.9619 127.049C64.0049 127.005 64.0384 126.952 64.0605 126.894C64.0825 126.837 64.0926 126.775 64.0901 126.713C64.0646 126.137 63.9843 125.393 63.926 124.93C63.9122 124.81 63.8515 124.7 63.7572 124.625C63.6628 124.55 63.5425 124.515 63.4226 124.529C61.2145 124.775 59.0369 125.245 56.923 125.929C56.8565 125.951 56.796 125.988 56.7459 126.036C56.6959 126.085 56.6578 126.145 56.6345 126.211C56.6112 126.277 56.6034 126.347 56.6117 126.417C56.62 126.486 56.6442 126.553 56.6823 126.611Z" fill="#2196F3"/>
<path d="M66.8511 134.136L65.6219 129.857C65.5857 129.763 65.516 129.684 65.426 129.637C65.3359 129.59 65.2318 129.578 65.1332 129.602L59.0421 130.521C58.5469 130.561 58.0789 130.764 57.7108 131.098C56.1628 132.891 54.0365 134.087 51.6999 134.479C50.7151 134.672 51.1346 136.634 53.447 136.623C57.2804 136.605 57.1126 136.116 60.3442 135.646C62.7879 135.281 63.8238 135.281 66.0341 135.07C66.151 135.068 66.2663 135.042 66.3725 134.992C66.4786 134.943 66.5733 134.872 66.6503 134.784C66.7273 134.696 66.785 134.593 66.8196 134.481C66.8542 134.37 66.8649 134.252 66.8511 134.136Z" fill="#263238"/>
</svg>
