<svg width="95" height="135" viewBox="0 0 95 135" fill="none" xmlns="http://www.w3.org/2000/svg">
<path d="M29.9432 26.9549C29.9432 26.9549 25.9772 26.0046 25.3932 22.0493C27.424 19.1771 28.2972 15.6449 27.8388 12.1573C27.3804 8.66967 25.624 5.4831 22.92 3.23325C20.216 0.983398 16.7632 -0.164334 13.2504 0.0190174C9.73757 0.202369 6.42301 1.70332 3.96792 4.22245C1.51284 6.74158 0.0977222 10.0937 0.0048751 13.6101C-0.087972 17.1264 1.14828 20.5485 3.467 23.1937C5.78572 25.8389 9.01646 27.5127 12.5147 27.8812C16.0129 28.2496 19.5215 27.2857 22.3405 25.1817C23.3306 26.1345 24.5596 26.8023 25.8978 27.1144C27.236 27.4265 28.6337 27.3714 29.9432 26.9549Z" fill="#2196F3"/>
<path d="M59.2816 131.285C59.2072 131.285 59.1337 131.269 59.0654 131.24C58.997 131.211 58.9351 131.168 58.8833 131.115C58.8314 131.061 58.7907 130.998 58.7634 130.929C58.736 130.86 58.7227 130.786 58.7241 130.712V93.6114C58.7241 93.4643 58.7826 93.3232 58.8866 93.2191C58.9906 93.1151 59.1318 93.0566 59.2789 93.0566C59.4261 93.0566 59.5672 93.1151 59.6712 93.2191C59.7753 93.3232 59.8337 93.4643 59.8337 93.6114V130.712C59.8351 130.786 59.822 130.859 59.795 130.928C59.768 130.997 59.7277 131.06 59.6764 131.113C59.6251 131.166 59.5639 131.209 59.4961 131.238C59.4284 131.268 59.3555 131.284 59.2816 131.285Z" fill="#455A64"/>
<path d="M81.3039 117.784C81.1875 117.79 81.0724 117.757 80.9764 117.691C80.8805 117.625 80.809 117.529 80.773 117.418L69.8733 88.6262C69.8183 88.4851 69.8202 88.3282 69.8786 88.1886C69.9371 88.0489 70.0475 87.9374 70.1865 87.8776C70.2545 87.8481 70.3278 87.8331 70.4019 87.8336C70.476 87.8342 70.5491 87.8502 70.6166 87.8807C70.6841 87.9112 70.7445 87.9555 70.7939 88.0107C70.8432 88.066 70.8805 88.1309 70.9033 88.2014L81.8189 116.993C81.8739 117.134 81.872 117.291 81.8135 117.431C81.7551 117.57 81.6447 117.682 81.5056 117.742C81.4426 117.771 81.3735 117.786 81.3039 117.784Z" fill="#455A64"/>
<path d="M79.9926 114.328C79.9159 114.328 79.8401 114.311 79.7705 114.279C79.7008 114.247 79.639 114.2 79.5891 114.142L59.2816 91.7269L39.0059 114.025C38.9562 114.079 38.8958 114.122 38.8287 114.152C38.7615 114.181 38.689 114.196 38.6157 114.196C38.5423 114.196 38.4698 114.181 38.4027 114.152C38.3355 114.122 38.2752 114.079 38.2254 114.025C38.1209 113.915 38.0626 113.769 38.0626 113.617C38.0626 113.464 38.1209 113.318 38.2254 113.208L58.8993 90.458C58.9507 90.402 59.013 90.3571 59.0824 90.326C59.1518 90.295 59.2268 90.2785 59.3028 90.2775C59.3786 90.2782 59.4533 90.2952 59.522 90.3272C59.5907 90.3593 59.6517 90.4057 59.701 90.4633L80.4067 113.293C80.5089 113.404 80.5656 113.55 80.5656 113.701C80.5656 113.853 80.5089 113.999 80.4067 114.11C80.3589 114.176 80.2967 114.229 80.2249 114.267C80.1531 114.305 80.0737 114.326 79.9926 114.328Z" fill="#455A64"/>
<path d="M37.2592 117.784C37.1878 117.785 37.1171 117.771 37.0521 117.742C36.914 117.681 36.8048 117.569 36.7474 117.429C36.69 117.29 36.6888 117.133 36.7442 116.993L47.6598 88.2014C47.6826 88.1309 47.7198 88.066 47.7692 88.0107C47.8185 87.9555 47.8789 87.9112 47.9464 87.8807C48.0139 87.8502 48.0871 87.8342 48.1611 87.8336C48.2352 87.8331 48.3086 87.8481 48.3765 87.8776C48.5146 87.9384 48.6238 88.0503 48.6812 88.1899C48.7386 88.3294 48.7398 88.4858 48.6845 88.6262L37.7741 117.418C37.7348 117.523 37.6647 117.615 37.5729 117.68C37.4811 117.745 37.3718 117.782 37.2592 117.784Z" fill="#455A64"/>
<path d="M80.55 113.436L81.9941 117.407C81.9996 117.441 81.9996 117.475 81.9941 117.508C81.9993 117.531 81.9993 117.554 81.9941 117.577C81.9575 117.684 81.8816 117.773 81.7817 117.827C81.6463 117.9 81.4949 117.938 81.341 117.938C81.1872 117.938 81.0358 117.9 80.9004 117.827C80.8239 117.786 80.7638 117.721 80.7305 117.641V117.588L79.3926 113.871L80.55 113.436Z" fill="#2196F3"/>
<path d="M38.0184 113.436L36.5796 117.407C36.5741 117.441 36.5741 117.475 36.5796 117.508V117.577C36.6184 117.685 36.696 117.774 36.7973 117.827C36.9317 117.9 37.0823 117.938 37.2353 117.938C37.3883 117.938 37.5388 117.9 37.6733 117.827C37.751 117.786 37.8128 117.721 37.8485 117.641V117.588L39.1864 113.871L38.0184 113.436Z" fill="#2196F3"/>
<path d="M59.9187 127.829V131.11C59.9142 131.168 59.8946 131.223 59.862 131.27C59.8294 131.318 59.7849 131.356 59.7329 131.381C59.5937 131.454 59.4388 131.492 59.2816 131.492C59.1244 131.492 58.9696 131.454 58.8303 131.381C58.7777 131.357 58.7326 131.319 58.6999 131.271C58.6671 131.224 58.648 131.168 58.6445 131.11V127.829C58.8389 127.719 59.0584 127.662 59.2816 127.662C59.5049 127.662 59.7243 127.719 59.9187 127.829Z" fill="#2196F3"/>
<path d="M84.0329 88.2334C84.0329 87.2034 83.1622 86.1097 81.3305 84.8567C77.9327 82.5632 67.6913 77.1266 62.9396 74.3871C62.9387 74.377 62.9346 74.3674 62.9279 74.3598C62.9213 74.3521 62.9123 74.3468 62.9024 74.3446C59.2497 72.0351 58.5011 61.8575 55.974 53.4955C55.1139 50.6445 54.0574 49.0305 52.7885 48.2713C52.4912 48.0961 51.3975 47.4643 51.1533 47.3103C48.6739 45.7601 45.414 47.6236 41.3578 49.9384C37.6414 52.062 34.7002 54.7963 34.1161 62.038C33.7551 66.4499 34.1161 74.8755 34.955 81.2571C36.1973 91.9232 37.7264 91.9445 39.9403 93.7283C43.7576 96.8023 52.3478 101.119 55.9687 102.605C62.5361 105.297 67.9037 101.145 71.8961 99.0853C75.5786 97.1441 79.126 94.9571 82.5145 92.5391C83.5126 91.7799 84.0329 91.0154 84.0223 90.2084C84.0276 89.8792 84.0329 88.5678 84.0329 88.2334Z" fill="#2196F3"/>
<path opacity="0.2" d="M84.0329 88.2334C84.0329 87.2034 83.1622 86.1097 81.3305 84.8567C77.9327 82.5632 67.6913 77.1266 62.9396 74.3871C62.9387 74.377 62.9346 74.3674 62.9279 74.3598C62.9213 74.3521 62.9123 74.3468 62.9024 74.3446C59.2497 72.0351 58.5011 61.8575 55.974 53.4955C55.1139 50.6445 54.0574 49.0305 52.7885 48.2713C52.4912 48.0961 51.3975 47.4643 51.1533 47.3103C48.6739 45.7601 45.414 47.6236 41.3578 49.9384C37.6414 52.062 34.7002 54.7963 34.1161 62.038C33.7551 66.4499 34.1161 74.8755 34.955 81.2571C36.1973 91.9232 37.7264 91.9445 39.9403 93.7283C43.7576 96.8023 52.3478 101.119 55.9687 102.605C62.5361 105.297 67.9037 101.145 71.8961 99.0853C75.5786 97.1441 79.126 94.9571 82.5145 92.5391C83.5126 91.7799 84.0329 91.0154 84.0223 90.2084C84.0276 89.8792 84.0329 88.5678 84.0329 88.2334Z" fill="black"/>
<path d="M71.9226 97.0943C75.605 95.1531 79.1525 92.9661 82.541 90.5481C84.8133 88.8279 84.6062 87.0653 81.3464 84.8567C76.7752 81.7933 60.3168 72.8845 60.3168 72.8845C60.3168 72.8845 37.3441 86.9485 38.3475 89.6031C39.3509 92.2577 51.4293 98.7561 55.9845 100.625C62.552 103.306 67.9195 99.1596 71.9226 97.0943Z" fill="#2196F3"/>
<g opacity="0.05">
<path opacity="0.05" d="M71.9226 97.0943C75.605 95.1531 79.1525 92.9661 82.541 90.5481C84.8133 88.8279 84.6062 87.0653 81.3464 84.8567C76.7752 81.7933 60.3168 72.8845 60.3168 72.8845C60.3168 72.8845 37.3441 86.9485 38.3475 89.6031C39.3509 92.2577 51.4293 98.7561 55.9845 100.625C62.552 103.306 67.9195 99.1596 71.9226 97.0943Z" fill="black"/>
</g>
<path d="M52.661 48.1916C50.2029 46.8484 47.0068 48.6747 43.0567 50.9311C40.5243 52.3805 38.3634 54.0901 37.0574 57.3021L35.3638 56.2881C36.6751 53.1026 38.8307 51.3824 41.3525 49.9171C45.4087 47.6023 48.6685 45.7441 51.1479 47.2891L52.661 48.1916Z" fill="#2196F3"/>
<path opacity="0.6" d="M52.661 48.1916C50.2029 46.8484 47.0068 48.6747 43.0567 50.9311C40.5243 52.3805 38.3634 54.0901 37.0574 57.3021L35.3638 56.2881C36.6751 53.1026 38.8307 51.3824 41.3525 49.9171C45.4087 47.6023 48.6685 45.7441 51.1479 47.2891L52.661 48.1916Z" fill="white"/>
<path d="M43.0514 50.926C49.1251 47.4644 53.4149 45.0062 55.9739 53.5009C58.5011 61.8628 59.2497 72.0405 62.9024 74.35C62.9024 74.35 64.3836 74.1376 55.2944 81.2944C52.4009 83.572 48.9234 85.4355 46.5873 86.869C42.0745 89.6722 39.335 90.7978 38.8997 90.4208C36.5159 88.3608 35.2204 70.2779 35.8097 63.0362C36.3991 55.7945 39.3138 53.0602 43.0514 50.926Z" fill="#2196F3"/>
<path d="M58.9206 78.2841C58.2513 79.6877 57.4645 81.0322 56.5686 82.3031L57.2535 82.8712C57.2535 82.8712 58.9206 80.5776 58.9206 78.2841Z" fill="#263238"/>
<path d="M72.7243 117.142C72.7243 117.142 73.2181 122.87 74.0782 124.745C74.9946 126.871 76.1678 128.876 77.5716 130.717C77.9167 131.158 78.7024 131.981 78.9785 132.337C79.0455 132.407 79.0961 132.491 79.1267 132.583C79.1573 132.676 79.1671 132.773 79.1554 132.87C79.1437 132.966 79.1109 133.059 79.0592 133.141C79.0075 133.223 78.9382 133.293 78.8564 133.345C78.0813 134.014 74.9276 134.02 73.234 132.607C71.5404 131.195 70.1865 128.944 69.1937 127.829L67.8824 126.337C67.7206 126.152 67.6096 125.928 67.5603 125.687C67.511 125.446 67.525 125.196 67.601 124.962C67.6435 124.831 67.6912 124.672 67.7443 124.484C68.2434 122.807 67.4152 117.938 67.4152 117.938C69.0451 115.921 70.8343 116.68 72.7243 117.142Z" fill="#FFB573"/>
<path d="M67.378 126.693C67.3186 126.978 67.3332 127.275 67.4205 127.553C67.5692 127.951 68.6363 128.71 69.1885 129.018C69.8217 129.404 70.319 129.977 70.6113 130.659C71.2325 131.976 72.2253 133.084 73.4677 133.844C75.1651 134.672 77.0734 134.966 78.9414 134.688C81.2615 134.391 81.5163 133.043 81.5163 133.043C81.5163 133.043 81.7022 131.774 81.1394 131.545C80.5766 131.317 67.378 126.693 67.378 126.693Z" fill="#263238"/>
<path d="M67.5692 122.754C67.5681 122.959 67.545 123.164 67.5002 123.364C67.3993 123.996 67.3197 124.389 67.24 125.111C67.1699 125.645 67.217 126.189 67.3781 126.704C68.0098 127.675 69.5973 128.068 70.4574 129.395C71.3175 130.723 72.3156 132.756 75.2993 133.51C78.2831 134.264 80.6085 133.414 81.2137 132.586C81.819 131.758 81.3465 130.924 79.4723 129.783C77.4761 128.572 75.1878 125.493 75.1878 125.493C74.9595 125.185 74.7631 124.84 74.5614 124.511C74.3019 124.152 74.1011 123.754 73.9667 123.332C73.8565 122.884 73.8065 122.424 73.8181 121.962C73.8285 121.926 73.8285 121.887 73.8181 121.851C73.7883 121.825 73.7513 121.808 73.7119 121.803C72.5947 121.625 71.45 121.811 70.4468 122.334C70.3406 122.379 70.2462 122.448 70.1707 122.536C70.1173 122.616 70.0761 122.704 70.0486 122.796L69.799 123.507C69.7353 123.693 69.6451 123.906 69.4592 123.969C69.2734 124.033 69.0027 123.879 68.8222 123.72C68.6416 123.561 68.5355 123.189 68.339 123.03C68.2353 122.935 68.1139 122.862 67.9817 122.814C67.8496 122.767 67.7094 122.746 67.5692 122.754Z" fill="#2196F3"/>
<path opacity="0.5" d="M67.5692 122.754C67.5681 122.959 67.545 123.164 67.5002 123.364C67.3993 123.996 67.3197 124.389 67.24 125.111C67.1699 125.645 67.217 126.189 67.3781 126.704C68.0098 127.675 69.5973 128.068 70.4574 129.395C71.3175 130.723 72.3156 132.756 75.2993 133.51C78.2831 134.264 80.6085 133.414 81.2137 132.586C81.819 131.758 81.3465 130.924 79.4723 129.783C77.4761 128.572 75.1878 125.493 75.1878 125.493C74.9595 125.185 74.7631 124.84 74.5614 124.511C74.3019 124.152 74.1011 123.754 73.9667 123.332C73.8565 122.884 73.8065 122.424 73.8181 121.962C73.8285 121.926 73.8285 121.887 73.8181 121.851C73.7883 121.825 73.7513 121.808 73.7119 121.803C72.5947 121.625 71.45 121.811 70.4468 122.334C70.3406 122.379 70.2462 122.448 70.1707 122.536C70.1173 122.616 70.0761 122.704 70.0486 122.796L69.799 123.507C69.7353 123.693 69.6451 123.906 69.4592 123.969C69.2734 124.033 69.0027 123.879 68.8222 123.72C68.6416 123.561 68.5355 123.189 68.339 123.03C68.2353 122.935 68.1139 122.862 67.9817 122.814C67.8496 122.767 67.7094 122.746 67.5692 122.754Z" fill="black"/>
<path d="M40.3173 74.3871C39.7864 76.9196 38.6714 84.209 41.2888 87.4742C42.9984 89.5978 44.1505 90.8189 49.38 93.4364C54.2538 95.8733 63.3325 99.8074 63.3325 99.8074C63.1042 101.835 62.5998 104.087 64.1501 109.629C65.1217 113.112 66.0136 115.156 67.2188 119.393C68.2435 120.088 72.1988 119.844 73.0589 118.74C73.0589 116.149 72.4324 96.4413 71.2803 93.8611C70.1282 91.2808 56.4146 83.3436 56.4146 83.3436C56.4146 83.3436 55.2307 79.1388 55.9687 76.0595L40.3173 74.3871Z" fill="#455A64"/>
<path d="M86.1778 111.371C86.1778 111.371 86.799 117.296 87.5741 119.207C88.3951 121.371 89.4773 123.427 90.7968 125.328C91.1206 125.785 91.8586 126.64 92.1347 127.011C92.1975 127.085 92.2435 127.171 92.2693 127.264C92.2951 127.357 92.3 127.455 92.2838 127.55C92.2676 127.646 92.2306 127.736 92.1755 127.816C92.1203 127.895 92.0484 127.961 91.9648 128.01C91.1578 128.647 88.0094 128.509 86.3795 127.022C84.7496 125.536 83.4967 123.226 82.5569 122.069C82.0791 121.485 81.6385 120.932 81.3146 120.524C81.1604 120.331 81.0587 120.101 81.0197 119.858C80.9806 119.614 81.0054 119.364 81.0916 119.133C81.1394 119 81.1978 118.846 81.2615 118.66C81.8296 117.009 80.343 112.417 80.343 112.417C82.0844 110.484 84.309 110.84 86.1778 111.371Z" fill="#FFB573"/>
<path d="M80.7943 120.863C80.7217 121.146 80.7217 121.441 80.7943 121.723C80.927 122.127 81.957 122.934 82.4986 123.268C83.1128 123.682 83.5839 124.275 83.8471 124.967C84.4079 126.308 85.3516 127.453 86.5601 128.259C88.2163 129.164 90.1088 129.544 91.986 129.347C94.3221 129.156 94.6406 127.818 94.6406 127.818C94.6406 127.818 94.8848 126.56 94.3327 126.305C93.7805 126.05 80.7943 120.863 80.7943 120.863Z" fill="#263238"/>
<path d="M81.1606 116.935C81.1497 117.141 81.1177 117.345 81.065 117.545C80.9323 118.166 80.8367 118.559 80.7305 119.276C80.6339 119.805 80.6557 120.349 80.7942 120.869C81.3836 121.867 82.9498 122.329 83.7461 123.693C84.5425 125.058 85.4557 127.139 88.4023 128.02C91.3488 128.901 93.7114 128.169 94.3538 127.367C94.9962 126.565 94.5609 125.711 92.7345 124.484C90.7967 123.189 88.6518 120.009 88.6518 120.009C88.4341 119.69 88.2536 119.34 88.0678 119C87.8292 118.628 87.6501 118.222 87.5369 117.795C87.4449 117.343 87.4163 116.88 87.4519 116.42C87.4649 116.384 87.4649 116.344 87.4519 116.308C87.4394 116.294 87.4239 116.282 87.4065 116.274C87.3892 116.265 87.3703 116.261 87.351 116.26C86.2437 116.027 85.0904 116.159 84.0647 116.637C83.9556 116.678 83.8575 116.743 83.778 116.828C83.7213 116.904 83.6766 116.989 83.6453 117.078C83.555 117.312 83.4594 117.545 83.3639 117.779C83.2683 118.012 83.1993 118.166 83.0082 118.225C82.817 118.283 82.5516 118.113 82.3817 117.943C82.2118 117.773 82.1162 117.412 81.9304 117.237C81.7233 117.039 81.4469 116.931 81.1606 116.935Z" fill="#2196F3"/>
<path opacity="0.5" d="M81.1606 116.935C81.1497 117.141 81.1177 117.345 81.065 117.545C80.9323 118.166 80.8367 118.559 80.7305 119.276C80.6339 119.805 80.6557 120.349 80.7942 120.869C81.3836 121.867 82.9498 122.329 83.7461 123.693C84.5425 125.058 85.4557 127.139 88.4023 128.02C91.3488 128.901 93.7114 128.169 94.3538 127.367C94.9962 126.565 94.5609 125.711 92.7345 124.484C90.7967 123.189 88.6518 120.009 88.6518 120.009C88.4341 119.69 88.2536 119.34 88.0678 119C87.8292 118.628 87.6501 118.222 87.5369 117.795C87.4449 117.343 87.4163 116.88 87.4519 116.42C87.4649 116.384 87.4649 116.344 87.4519 116.308C87.4394 116.294 87.4239 116.282 87.4065 116.274C87.3892 116.265 87.3703 116.261 87.351 116.26C86.2437 116.027 85.0904 116.159 84.0647 116.637C83.9556 116.678 83.8575 116.743 83.778 116.828C83.7213 116.904 83.6766 116.989 83.6453 117.078C83.555 117.312 83.4594 117.545 83.3639 117.779C83.2683 118.012 83.1993 118.166 83.0082 118.225C82.817 118.283 82.5516 118.113 82.3817 117.943C82.2118 117.773 82.1162 117.412 81.9304 117.237C81.7233 117.039 81.4469 116.931 81.1606 116.935Z" fill="black"/>
<path d="M40.7313 76.1231C40.2004 79.2077 54.6732 85.4247 54.6732 85.4247C56.6336 86.4357 58.6449 87.3447 60.6991 88.1483C66.64 90.5587 77.5397 93.6486 77.5397 93.6486C77.1407 95.3743 77.0794 97.161 77.3592 98.91C77.6831 100.922 77.8211 101.496 78.8617 106.136C79.6528 109.661 79.9235 111.291 80.6137 113.781C81.9198 114.009 85.392 113.903 86.4538 113.054C86.252 110.123 86.9263 90.9091 85.753 88.3129C83.7249 83.8267 61.9998 73.6862 61.9998 73.6862L40.7313 76.1231Z" fill="#455A64"/>
<path d="M67.7497 90.612L56.4147 83.3597C56.4147 83.3597 61.108 81.0608 61.9203 76.9197C61.914 78.1674 61.6329 79.3985 61.0971 80.5253C60.5612 81.6521 59.7836 82.647 58.8197 83.4393L67.7497 90.612Z" fill="#37474F"/>
<path d="M87.8502 43.9708C87.6515 43.2865 87.2735 42.6679 86.7555 42.1787C86.2374 41.6896 85.5981 41.3478 84.9036 41.1888C84.7011 41.1319 84.4845 41.1547 84.2983 41.2525C84.1424 41.391 84.0377 41.5781 84.001 41.7834C83.6931 42.9036 83.3427 44.0079 82.9392 45.0963C82.7552 45.6381 82.5425 46.1698 82.3021 46.689C82.2331 46.8165 81.7712 47.3792 81.7393 47.4376C81.7924 46.8554 81.7745 46.2689 81.6862 45.6909C81.6555 45.4301 81.5238 45.1918 81.3193 45.027C81.1148 44.8622 80.8539 44.7842 80.5925 44.8096C80.3642 44.8521 80.497 45.4042 80.2368 46.3015C79.9077 47.4536 79.5254 48.2022 79.4882 49.487C79.4722 49.9716 79.284 50.4347 78.9573 50.793C77.3964 52.5026 73.0854 55.9482 70.0698 57.9763C68.339 56.3836 66.3534 53.4476 63.9377 50.4798C60.9858 46.8165 59.1595 45.5794 55.0077 45.6697L56.0695 52.7946C58.7931 56.15 61.2194 58.3904 66.5392 63.8589C67.7709 65.1278 68.7 65.6321 69.5336 65.7065C70.6538 65.8073 71.7103 64.9048 72.7191 64.0341C75.0285 62.0856 77.3168 60.0628 79.4723 57.9498C82.4189 55.0669 86.2521 51.5045 87.5422 48.096C88.0957 46.7922 88.204 45.3423 87.8502 43.9708Z" fill="#FFB573"/>
<path d="M54.3121 45.6963C55.8236 45.5269 57.3535 45.6476 58.8196 46.052C60.2318 46.5246 61.4105 47.2785 63.8633 50.2144C66.3161 53.1504 69.0663 56.6916 69.0663 56.6916C69.0663 56.6916 68.7371 59.9249 64.288 62.2291L54.8006 53.1663L54.3121 45.6963Z" fill="#2196F3"/>
<path opacity="0.3" d="M54.3121 45.6963C55.8236 45.5269 57.3535 45.6476 58.8196 46.052C60.2318 46.5246 61.4105 47.2785 63.8633 50.2144C66.3161 53.1504 69.0663 56.6916 69.0663 56.6916C69.0663 56.6916 68.7371 59.9249 64.288 62.2291L54.8006 53.1663L54.3121 45.6963Z" fill="black"/>
<path d="M47.6598 45.9723C47.6598 45.9723 42.6426 46.6519 41.2888 47.3898L38.8997 59.3408L40.5508 68.584L39.5314 78.9847C42.6798 82.4038 60.577 81.2145 62.5095 73.9463C62.5095 73.9463 61.5857 57.302 61.3839 53.8139C61.161 50.0657 58.5011 46.0626 54.7263 45.6697L47.6598 45.9723Z" fill="#F0F0F0"/>
<path d="M60.5508 32.029C62.0401 30.3673 61.9004 27.813 60.2388 26.3237C58.5772 24.8343 56.0229 24.974 54.5335 26.6356C53.0442 28.2973 53.1839 30.8516 54.8455 32.341C56.5071 33.8303 59.0615 33.6906 60.5508 32.029Z" fill="#263238"/>
<path d="M42.3241 28.707C42.6567 28.3538 43.0908 28.1126 43.5665 28.0168L41.9419 27.1567C42.0159 26.9962 42.1218 26.8524 42.2533 26.7342C42.3847 26.616 42.5388 26.5259 42.7063 26.4692C42.8737 26.4126 43.0509 26.3907 43.2271 26.4048C43.4033 26.4189 43.5748 26.4688 43.7311 26.5515C44.0361 26.7215 44.2676 26.9981 44.3812 27.3283C44.4949 27.6584 44.4827 28.0189 44.3469 28.3407L44.9522 34.632L45.4831 34.5736L45.7273 38.2369L45.8122 41.7569C44.3416 41.7569 43.232 39.8191 42.3666 34.9028C41.6658 31.2023 41.4747 29.6095 42.3241 28.707Z" fill="#263238"/>
<path d="M45.5946 35.2002C45.2017 35.4391 44.6389 34.6692 44.1505 34.1861C43.662 33.703 42.0852 33.0022 41.3048 34.6639C40.5243 36.3257 41.8357 38.4653 42.9719 39.1183C44.4425 39.9625 45.4778 39.3254 45.4778 39.3254V47.1564C45.4778 47.1564 46.9537 49.6889 50.9834 49.9225C54.8113 50.1454 54.1689 47.7351 52.9 46.206V43.8541C53.5586 44.0144 54.2302 44.1157 54.9068 44.1567C56.5633 44.2151 57.9755 43.87 58.91 40.7748C59.6132 38.2524 59.909 35.6338 59.786 33.0181C59.7907 31.3541 59.6629 29.6924 59.4037 28.0487C58.671 23.5996 51.5249 24.0456 47.8297 26.4029C44.1346 28.7601 45.5946 35.2002 45.5946 35.2002Z" fill="#FFB573"/>
<path d="M44.1504 34.186C43.4708 33.5755 44.3097 27.9956 44.3097 27.9956C44.3097 27.9956 43.6142 25.8719 44.9415 24.4756C46.2687 23.0793 48.8649 23.2916 50.7815 23.212C53.1081 23.2104 55.4098 22.7334 57.5454 21.8104C60.2265 20.6264 60.4283 20.4884 60.7681 21.667C60.9782 22.354 61.0504 23.0757 60.9804 23.7907C60.9489 24.4323 60.8726 25.071 60.7521 25.702C60.5473 26.5031 60.1582 27.2453 59.6158 27.8695C59.0734 28.4936 58.3928 28.9824 57.6281 29.297C56.8633 29.6115 56.0357 29.7431 55.2111 29.6812C54.3866 29.6194 53.5879 29.3657 52.8787 28.9406C52.6527 29.3465 52.3122 29.6769 51.8995 29.8903C51.4868 30.1037 51.0204 30.1907 50.5585 30.1405C49.6386 30.0362 48.7487 29.7492 47.9411 29.2963C47.9411 31.4996 47.0917 33.602 46.2422 35.6354C45.7856 36.7451 44.4902 34.4887 44.1504 34.186Z" fill="#263238"/>
<path d="M52.884 43.8542C52.884 43.8542 49.364 43.1693 48.1323 42.5216C47.4053 42.1514 46.8089 41.5679 46.4227 40.8492C46.6104 41.5689 46.9428 42.2427 47.3996 42.8296C48.3022 43.971 52.8893 44.7886 52.8893 44.7886L52.884 43.8542Z" fill="#F28F8F"/>
<path d="M52.4221 34.9187C52.425 35.0184 52.4081 35.1177 52.3726 35.2109C52.337 35.3041 52.2834 35.3894 52.2149 35.4618C52.1463 35.5343 52.0642 35.5926 51.9731 35.6333C51.8821 35.674 51.7839 35.6964 51.6842 35.6991C51.4818 35.695 51.2893 35.6113 51.1482 35.4662C51.0071 35.3211 50.9288 35.1264 50.9303 34.924C50.9215 34.8208 50.9344 34.7168 50.9679 34.6188C51.0014 34.5207 51.0549 34.4307 51.125 34.3544C51.1952 34.2782 51.2804 34.2173 51.3752 34.1756C51.4701 34.1339 51.5726 34.1124 51.6762 34.1124C51.7798 34.1124 51.8823 34.1339 51.9772 34.1756C52.072 34.2173 52.1572 34.2782 52.2274 34.3544C52.2975 34.4307 52.351 34.5207 52.3845 34.6188C52.418 34.7168 52.4309 34.8208 52.4221 34.924V34.9187Z" fill="#263238"/>
<path d="M51.5196 31.9933L49.9268 32.8799C49.8124 32.6626 49.786 32.4095 49.8533 32.1732C49.9205 31.9369 50.0761 31.7356 50.2878 31.611C50.393 31.5517 50.5092 31.5145 50.6293 31.5017C50.7494 31.4889 50.8708 31.5008 50.9861 31.5365C51.1015 31.5723 51.2083 31.6313 51.3 31.7099C51.3917 31.7884 51.4664 31.8848 51.5196 31.9933Z" fill="#263238"/>
<path d="M51.7638 39.559L53.6539 40.2545C53.6138 40.381 53.5487 40.4982 53.4623 40.5991C53.3759 40.6999 53.27 40.7822 53.1511 40.8412C53.0321 40.9002 52.9025 40.9346 52.77 40.9423C52.6374 40.9501 52.5047 40.931 52.3797 40.8863C52.1264 40.7862 51.9213 40.5926 51.8066 40.3456C51.692 40.0986 51.6767 39.817 51.7638 39.559Z" fill="#F28F8F"/>
<path d="M58.6286 32.8907L57.1686 31.7811C57.2362 31.6823 57.3232 31.5983 57.4244 31.5342C57.5256 31.4701 57.6387 31.4274 57.757 31.4085C57.8752 31.3896 57.9961 31.395 58.1122 31.4244C58.2282 31.4538 58.3371 31.5065 58.4322 31.5794C58.6271 31.7309 58.7562 31.9516 58.7928 32.1957C58.8294 32.4399 58.7706 32.6888 58.6286 32.8907Z" fill="#263238"/>
<path d="M58.1931 34.7223C58.1967 34.8222 58.1803 34.9218 58.145 35.0153C58.1097 35.1088 58.0562 35.1943 57.9875 35.267C57.9188 35.3396 57.8364 35.3978 57.745 35.4383C57.6536 35.4788 57.5551 35.5007 57.4552 35.5027C57.2528 35.4986 57.0603 35.4149 56.9192 35.2698C56.7781 35.1247 56.6998 34.93 56.7013 34.7276C56.6925 34.6243 56.7054 34.5204 56.7389 34.4224C56.7724 34.3243 56.8259 34.2343 56.896 34.158C56.9662 34.0817 57.0514 34.0208 57.1462 33.9792C57.2411 33.9375 57.3436 33.916 57.4472 33.916C57.5508 33.916 57.6533 33.9375 57.7482 33.9792C57.843 34.0208 57.9282 34.0817 57.9984 34.158C58.0685 34.2343 58.122 34.3243 58.1555 34.4224C58.189 34.5204 58.2019 34.6243 58.1931 34.7276V34.7223Z" fill="#263238"/>
<path d="M54.3971 33.8729L54.6679 38.3539L57.0039 37.5416L54.3971 33.8729Z" fill="#F28F8F"/>
<path d="M30.0546 68.8656C30.8351 64.5599 33.771 56.9253 34.9815 53.469C36.7441 48.505 38.9315 47.4856 41.9684 47.1511C43.2107 48.3457 43.6248 53.2991 41.1136 58.6508C39.919 61.5867 37.3653 70.6176 37.3653 70.6176C37.5511 71.3609 41.9365 80.3228 43.4921 82.7597C43.7879 83.1979 44.2334 83.5132 44.7451 83.6463C46.1573 84.0498 47.3094 85.0161 48.4615 85.6744C49.3693 86.2053 50.0277 86.2053 49.9905 86.4495C49.9533 86.6938 49.5498 87.3309 48.5995 87.2937C47.9285 87.2209 47.2678 87.0731 46.6298 86.853C47.3345 87.7663 48.1847 88.5573 49.1464 89.1944C51.3709 90.6916 51.4027 92.1197 47.9412 92.9639C45.775 93.4948 43.6938 92.6931 40.9278 88.7537C39.9532 87.3588 39.0512 85.9146 38.2254 84.4268C36.2292 80.8112 34.2223 78.3478 32.9162 75.9321C30.3838 71.4193 29.7307 70.5221 30.0546 68.8656Z" fill="#FFB573"/>
<path d="M42.1914 47.0026C42.1914 47.0026 39.6589 46.7955 37.8697 47.9794C36.0806 49.1634 35.3532 51.4198 34.1162 54.7115C32.8791 58.0031 31.005 63.1424 31.005 63.1424C31.005 63.1424 33.2349 66.9862 38.8148 66.3279C38.8148 66.3279 42.0321 56.9413 42.6161 55.5822C43.2001 54.223 43.8001 49.7846 42.1914 47.0026Z" fill="#2196F3"/>
<path opacity="0.3" d="M42.1914 47.0026C42.1914 47.0026 39.6589 46.7955 37.8697 47.9794C36.0806 49.1634 35.3532 51.4198 34.1162 54.7115C32.8791 58.0031 31.005 63.1424 31.005 63.1424C31.005 63.1424 33.2349 66.9862 38.8148 66.3279C38.8148 66.3279 42.0321 56.9413 42.6161 55.5822C43.2001 54.223 43.8001 49.7846 42.1914 47.0026Z" fill="black"/>
</svg>
