<svg width="75" height="128" viewBox="0 0 75 128" fill="none" xmlns="http://www.w3.org/2000/svg">
<path d="M13.9269 114.589C13.9269 114.589 16.2474 105.396 13.0423 95.9487C11.2437 90.6708 7.60817 88.0024 5.30536 87.5896C2.72539 87.1296 -0.0196987 89.0963 2.08851 92.6522C4.09351 96.0312 8.24211 97.6647 10.2442 106.215C11.5622 111.853 11.1022 115.474 11.1022 115.474L13.9269 114.589Z" fill="#2196F3"/>
<path opacity="0.5" d="M13.9269 114.589C13.9269 114.589 16.2474 105.396 13.0423 95.9487C11.2437 90.6708 7.60817 88.0024 5.30536 87.5896C2.72539 87.1296 -0.0196987 89.0963 2.08851 92.6522C4.09351 96.0312 8.24211 97.6647 10.2442 106.215C11.5622 111.853 11.1022 115.474 11.1022 115.474L13.9269 114.589Z" fill="white"/>
<path d="M12.4526 112.098C12.4324 112.096 12.4128 112.09 12.3951 112.08C12.3773 112.07 12.3616 112.057 12.349 112.041C12.3364 112.025 12.3271 112.007 12.3216 111.987C12.3161 111.968 12.3145 111.947 12.3169 111.927C14.0153 101.799 8.95266 92.8027 4.82471 89.6596C4.80827 89.649 4.79438 89.6348 4.78404 89.6182C4.77371 89.6016 4.76718 89.5829 4.76492 89.5634C4.76267 89.544 4.76474 89.5243 4.771 89.5057C4.77726 89.4872 4.78755 89.4703 4.80112 89.4561C4.83289 89.4282 4.87378 89.4127 4.91611 89.4127C4.95845 89.4127 4.99934 89.4282 5.03111 89.4561C9.22393 92.6524 14.3603 101.757 12.6413 111.998C12.6279 112.035 12.6011 112.066 12.5662 112.084C12.5314 112.103 12.4909 112.108 12.4526 112.098Z" fill="white"/>
<path d="M11.0933 115.483C10.8456 113.103 9.51585 110.573 6.52013 107.764C3.52441 104.954 -0.665462 102.273 0.0893646 100.047C0.844191 97.8211 4.23206 98.5552 6.57615 99.9853C8.92024 101.415 14.0271 106.788 12.5204 115.038L11.0933 115.483Z" fill="#2196F3"/>
<path opacity="0.65" d="M11.0933 115.483C10.8456 113.103 9.51585 110.573 6.52013 107.764C3.52441 104.954 -0.665462 102.273 0.0893646 100.047C0.844191 97.8211 4.23206 98.5552 6.57615 99.9853C8.92024 101.415 14.0271 106.788 12.5204 115.038L11.0933 115.483Z" fill="white"/>
<path d="M11.9012 112.906C11.8653 112.902 11.8319 112.886 11.8066 112.86C11.7814 112.834 11.7658 112.8 11.7626 112.764C11.5769 107.752 5.45276 101.041 2.52191 99.8615C2.50312 99.8553 2.48581 99.8452 2.47104 99.8321C2.45628 99.8189 2.44438 99.8028 2.43609 99.7848C2.42779 99.7669 2.42328 99.7474 2.42283 99.7276C2.42238 99.7078 2.42599 99.6881 2.43346 99.6698C2.45298 99.633 2.48592 99.6051 2.52544 99.5919C2.56497 99.5788 2.60805 99.5813 2.64575 99.599C5.71813 100.837 11.8953 107.56 12.0811 112.764C12.0811 112.784 12.0771 112.804 12.0691 112.822C12.0611 112.841 12.0494 112.857 12.0347 112.871C12.02 112.884 12.0026 112.895 11.9837 112.901C11.9648 112.908 11.9447 112.91 11.9248 112.909L11.9012 112.906Z" fill="white"/>
<path d="M30.6038 109.58L29.9462 103.748L36.5893 103.158C36.5893 103.158 36.3092 107.655 36.3505 109.716C36.3681 110.689 37.0552 112.517 37.0552 112.517C37.0552 112.517 34.2747 113.959 32.8328 113.369C31.391 112.779 30.4327 110.503 30.474 110.087C30.5153 109.671 30.6038 109.58 30.6038 109.58Z" fill="#FFB573"/>
<path d="M44.7539 118.75C44.8453 118.75 44.916 119.596 44.4089 120.012C43.8192 120.49 41.9704 121.404 39.7472 121.082C37.524 120.761 36.3269 120.059 35.4483 119.313C34.5696 118.567 33.3401 117.503 32.3346 117.267C31.4314 117.006 30.588 116.572 29.8519 115.987C29.5571 115.692 29.622 114.43 29.622 114.43L44.7539 118.75Z" fill="#263238"/>
<path d="M30.6008 109.571C30.5184 109.573 30.4391 109.603 30.3767 109.657C30.3142 109.711 30.2725 109.785 30.2588 109.866C30.1851 110.214 30.0907 111.228 29.9315 111.8C29.7133 112.593 29.5453 114.224 29.6573 114.875C29.7694 115.527 31.5326 116.35 32.4997 116.724C33.6377 117.235 34.6916 117.916 35.6252 118.744C36.6571 119.629 38.845 120.537 40.2986 120.551C42.0176 120.569 43.9636 120.053 44.4265 119.275C44.9927 118.313 45.4143 117.193 42.8874 115.984C42.4068 115.757 40.732 114.74 40.16 114.371C38.615 113.375 37.5329 112.467 36.8458 110.739C36.7897 110.527 36.6641 110.34 36.4891 110.208C36.333 110.141 36.1601 110.124 35.9937 110.158C35.5662 110.208 33.8678 110.408 33.4786 110.582C33.1336 110.739 32.6442 110.919 32.6442 111.349C32.6499 111.499 32.6798 111.648 32.7326 111.788C32.7592 111.877 32.7828 111.995 32.7031 112.045C32.6235 112.095 32.5321 112.045 32.4643 111.977C32.2189 111.721 31.995 111.445 31.795 111.151C31.596 110.89 31.3813 110.641 31.1522 110.405C31.0013 110.317 30.8565 110.218 30.7188 110.111C30.5655 109.96 30.6067 109.772 30.6008 109.571Z" fill="#455A64"/>
<path d="M35.6252 118.75C35.1888 118.381 34.7229 118.025 34.2541 117.703C34.2541 117.703 37.2203 119.537 38.4381 118.75C39.2283 118.24 38.8686 117.597 38.8538 117.391C38.8391 117.184 41.6195 115.796 42.3921 115.722C42.6014 115.84 42.7724 115.94 42.8874 115.987C44.8629 116.807 45.1077 117.821 44.7538 119.086C44.2968 119.865 42.5542 120.643 40.331 120.605C38.8745 120.572 36.6689 119.608 35.6252 118.75Z" fill="#37474F"/>
<path d="M38.6622 116.786C40.2367 117.438 39.5467 117.718 39.1104 117.771C38.674 117.824 36.0262 116.247 34.4222 114.949C32.7504 113.599 31.4736 111.8 30.8368 111.302C30.6068 111.119 30.3562 110.892 30.135 110.68C30.1851 110.338 30.2235 110.025 30.2589 109.86C30.2726 109.779 30.3143 109.705 30.3767 109.651C30.4392 109.597 30.5184 109.567 30.6009 109.565C30.6009 109.766 30.5655 109.955 30.7159 110.108C30.8536 110.216 30.9984 110.314 31.1493 110.403C31.3784 110.638 31.593 110.887 31.7921 111.149C31.9921 111.442 32.216 111.718 32.4614 111.974C33.8148 113.737 37.0906 116.135 38.6622 116.786Z" fill="#37474F"/>
<path d="M39.0012 117.541C38.9656 117.539 38.9317 117.525 38.9039 117.503C38.8879 117.49 38.8747 117.474 38.8651 117.456C38.8554 117.438 38.8496 117.418 38.848 117.397C38.8463 117.377 38.8488 117.356 38.8554 117.337C38.862 117.318 38.8725 117.3 38.8862 117.285C39.3432 116.754 41.4868 115.515 42.6515 115.657C42.6747 115.654 42.6982 115.657 42.7202 115.664C42.7422 115.672 42.7622 115.685 42.7786 115.701C42.795 115.718 42.8074 115.738 42.8148 115.76C42.8223 115.782 42.8246 115.806 42.8216 115.829C42.8186 115.852 42.8103 115.874 42.7975 115.894C42.7846 115.913 42.7675 115.929 42.7474 115.941C42.7273 115.953 42.7048 115.96 42.6815 115.962C42.6582 115.964 42.6349 115.96 42.6132 115.952C41.5252 115.816 39.4877 117.052 39.1251 117.473C39.111 117.493 39.0925 117.51 39.0711 117.522C39.0496 117.533 39.0257 117.54 39.0012 117.541Z" fill="#263238"/>
<path d="M37.6361 116.686C37.5996 116.686 37.5642 116.673 37.5358 116.651C37.5201 116.638 37.5073 116.621 37.4979 116.603C37.4885 116.585 37.4828 116.565 37.4812 116.545C37.4795 116.525 37.4819 116.504 37.4883 116.485C37.4946 116.466 37.5048 116.448 37.5181 116.432C37.9751 115.902 40.1187 114.663 41.2834 114.805C41.3036 114.807 41.3231 114.813 41.3409 114.823C41.3587 114.833 41.3743 114.846 41.387 114.862C41.3996 114.878 41.4089 114.896 41.4144 114.916C41.4199 114.935 41.4215 114.956 41.419 114.976C41.4169 114.996 41.4106 115.016 41.4006 115.034C41.3906 115.052 41.3771 115.068 41.3608 115.081C41.3446 115.093 41.326 115.102 41.3061 115.108C41.2862 115.113 41.2654 115.114 41.2451 115.111C40.1571 114.979 38.1196 116.211 37.7569 116.633C37.742 116.65 37.7234 116.664 37.7025 116.673C37.6816 116.682 37.6589 116.687 37.6361 116.686Z" fill="#263238"/>
<path d="M36.265 115.86C36.2295 115.86 36.1953 115.847 36.1677 115.825C36.152 115.812 36.1391 115.796 36.1298 115.778C36.1204 115.76 36.1147 115.74 36.1131 115.72C36.1114 115.699 36.1138 115.679 36.1202 115.659C36.1265 115.64 36.1367 115.622 36.15 115.607C36.607 115.073 38.7506 113.838 39.9153 113.976C39.9563 113.981 39.9936 114.003 40.019 114.035C40.0445 114.068 40.0559 114.109 40.0509 114.15C40.0488 114.171 40.0425 114.19 40.0325 114.208C40.0224 114.226 40.0089 114.242 39.9926 114.254C39.9763 114.266 39.9576 114.275 39.9377 114.28C39.9179 114.285 39.8972 114.286 39.877 114.283C38.789 114.15 36.7515 115.386 36.3888 115.807C36.3731 115.824 36.3539 115.838 36.3326 115.847C36.3112 115.856 36.2882 115.861 36.265 115.86Z" fill="#263238"/>
<path d="M35.003 114.932C34.9665 114.932 34.9311 114.919 34.9027 114.896C34.8871 114.883 34.8742 114.867 34.8648 114.849C34.8554 114.831 34.8497 114.811 34.8481 114.791C34.8464 114.771 34.8489 114.75 34.8552 114.731C34.8616 114.711 34.8717 114.693 34.8851 114.678C35.3421 114.144 37.4916 112.909 38.6503 113.048C38.6914 113.053 38.7287 113.074 38.7541 113.106C38.7795 113.139 38.791 113.18 38.786 113.221C38.7838 113.242 38.7776 113.262 38.7675 113.279C38.7575 113.297 38.7439 113.313 38.7276 113.325C38.7113 113.338 38.6927 113.347 38.6728 113.352C38.6529 113.357 38.6322 113.357 38.612 113.354C37.524 113.221 35.4866 114.457 35.1239 114.879C35.1086 114.895 35.0899 114.909 35.0691 114.918C35.0483 114.927 35.0257 114.932 35.003 114.932Z" fill="#263238"/>
<path d="M33.7617 114.003C33.727 114.003 33.6935 113.99 33.6673 113.967C33.6513 113.955 33.638 113.94 33.6281 113.922C33.6182 113.904 33.612 113.885 33.6098 113.865C33.6076 113.845 33.6094 113.824 33.6153 113.805C33.6211 113.786 33.6308 113.768 33.6437 113.752C34.2747 112.997 36.5156 111.965 37.6773 112.113C37.7005 112.11 37.724 112.113 37.746 112.12C37.768 112.128 37.788 112.141 37.8044 112.157C37.8208 112.174 37.8332 112.194 37.8406 112.216C37.8481 112.238 37.8504 112.262 37.8474 112.285C37.8444 112.308 37.8361 112.33 37.8233 112.349C37.8104 112.369 37.7933 112.385 37.7732 112.397C37.7531 112.409 37.7306 112.416 37.7073 112.418C37.6841 112.42 37.6607 112.416 37.639 112.408C36.5923 112.278 34.4457 113.269 33.8855 113.938C33.872 113.958 33.8536 113.975 33.832 113.986C33.8103 113.998 33.7861 114.003 33.7617 114.003Z" fill="#263238"/>
<path d="M19.594 112.319L21.1744 105.313L14.26 104.234L14.148 111.152C14.148 111.152 13.6202 113.009 14.0094 113.649C14.3986 114.289 18.5502 114.961 18.9305 114.534C19.3109 114.106 19.594 112.319 19.594 112.319Z" fill="#FFB573"/>
<path d="M18.904 123.356C18.7241 124.927 18.3939 125.944 17.7246 126.794C17.0552 127.643 15.8345 127.79 14.6345 127.383C13.4344 126.976 11.9012 126.033 11.627 124.623C11.3528 123.214 11.4648 122.288 11.8098 120.852L18.904 123.356Z" fill="#263238"/>
<path d="M14.1539 111.152C13.6526 111.125 13.7883 112.36 13.5642 114.48C13.3077 116.771 12.2757 118.567 11.9071 120.404C11.4884 122.503 11.568 123.473 12.3494 124.871C13.1307 126.269 16.0645 127.902 17.6302 126.23C18.9069 124.868 19.0367 123.202 19.0337 121.053C19.0337 118.832 19.0042 117.267 19.19 115.607C19.364 114.018 20.0303 112.549 19.6057 112.319C19.5615 112.549 19.134 114.159 18.8539 114.133C18.8431 113.936 18.852 113.738 18.8804 113.543C18.8988 113.451 18.8983 113.356 18.8791 113.264C18.8598 113.173 18.8222 113.086 18.7684 113.009C18.5286 112.823 18.2553 112.683 17.9634 112.599C17.4739 112.455 16.6041 112.272 16.1058 112.172C15.8581 112.122 15.6105 112.08 15.3598 112.051C15.1486 112.021 14.9342 112.021 14.723 112.051C14.6626 112.056 14.6045 112.076 14.5532 112.108C14.5019 112.141 14.4591 112.185 14.4281 112.237C14.399 112.313 14.3859 112.394 14.3898 112.475C14.3838 112.623 14.355 112.768 14.3043 112.906C14.2836 112.968 14.2306 113.039 14.1598 113.015C14.1347 113.002 14.1141 112.982 14.1008 112.957C14.0876 112.933 14.0825 112.904 14.0861 112.876C14.0979 112.605 14.1362 111.287 14.1539 111.152Z" fill="#455A64"/>
<path d="M12.0398 119.811C11.9749 120.106 11.5798 122.117 12.1902 122.562C12.8507 123.046 13.3018 121.486 13.3018 121.486C13.3018 121.486 14.9176 121.247 17.1909 122.43C17.0553 122.748 17.3619 123.883 18.0076 123.73C18.6534 123.577 19.016 121.268 19.0219 121.238C19.0219 123.302 18.8568 124.909 17.6184 126.23C16.0528 127.902 13.119 126.266 12.3376 124.871C11.5562 123.476 11.4766 122.512 11.8953 120.404C11.9366 120.195 11.9867 119.997 12.0398 119.811Z" fill="#37474F"/>
<path d="M13.4757 121.646C13.4286 122.415 12.5912 122.049 12.5912 120.953C12.5912 119.856 13.1809 117.196 13.3991 115.406C13.5436 112.826 13.6468 111.125 14.148 111.152C14.148 111.175 14.148 111.202 14.148 111.228C14.148 111.255 14.0949 112.703 14.089 112.865C13.9976 114.439 13.977 117.5 13.7529 118.921C13.6039 119.823 13.5113 120.732 13.4757 121.646Z" fill="#37474F"/>
<path d="M16.9138 122.377C17.1734 121.506 17.3773 120.62 17.5241 119.723C17.7659 118.316 18.6092 115.498 19.0249 113.982C19.1605 113.734 19.5851 112.319 19.5851 112.319C19.9331 112.416 19.5851 113.767 19.423 114.398C19.2608 115.029 19.0632 115.707 18.8598 116.612C18.3409 118.399 18.2907 121.082 17.9575 122.111C17.6244 123.14 16.7221 123.117 16.9138 122.377Z" fill="#37474F"/>
<path d="M17.2381 122.501C17.2144 122.495 17.1916 122.486 17.1702 122.474C16 121.832 14.6679 121.545 13.3371 121.648C13.2899 121.655 13.242 121.644 13.202 121.618C13.162 121.592 13.1326 121.553 13.119 121.507C13.1137 121.485 13.1133 121.463 13.1177 121.441C13.1221 121.42 13.1313 121.399 13.1445 121.381C13.1578 121.364 13.1748 121.349 13.1943 121.339C13.2138 121.328 13.2354 121.322 13.2575 121.321C14.6804 121.201 16.1066 121.509 17.3531 122.206C17.3734 122.216 17.3914 122.23 17.406 122.247C17.4206 122.264 17.4314 122.284 17.4378 122.306C17.4441 122.327 17.4459 122.35 17.443 122.372C17.4401 122.395 17.4326 122.416 17.4209 122.436C17.3998 122.463 17.3714 122.483 17.339 122.495C17.3066 122.506 17.2715 122.508 17.2381 122.501Z" fill="#263238"/>
<path d="M17.7364 120.873C17.7157 120.869 17.6958 120.862 17.6774 120.852C16.3496 120.171 14.8657 119.853 13.3755 119.929C13.3276 119.934 13.2797 119.921 13.2403 119.893C13.2009 119.866 13.1726 119.825 13.1602 119.779C13.1564 119.757 13.1573 119.735 13.1629 119.713C13.1685 119.692 13.1786 119.672 13.1926 119.655C13.2066 119.638 13.2242 119.624 13.244 119.614C13.2639 119.605 13.2856 119.6 13.3076 119.599C14.8784 119.513 16.4434 119.85 17.8396 120.575C17.86 120.585 17.8783 120.598 17.8933 120.615C17.9083 120.632 17.9197 120.652 17.9269 120.674C17.934 120.695 17.9368 120.718 17.935 120.74C17.9331 120.763 17.9267 120.785 17.9162 120.805C17.896 120.832 17.8682 120.853 17.8363 120.865C17.8044 120.877 17.7697 120.88 17.7364 120.873Z" fill="#263238"/>
<path d="M13.5878 118.352C13.5534 118.345 13.5213 118.329 13.4945 118.307C13.4677 118.284 13.4471 118.255 13.4344 118.222C13.4278 118.201 13.4259 118.179 13.4289 118.157C13.4319 118.135 13.4398 118.114 13.4519 118.095C13.464 118.076 13.4801 118.061 13.499 118.049C13.5179 118.037 13.5391 118.03 13.5612 118.028C15.8345 117.63 17.984 118.912 18.0872 118.965C18.1072 118.975 18.1249 118.99 18.1393 119.007C18.1536 119.024 18.1643 119.044 18.1706 119.066C18.177 119.087 18.1788 119.11 18.1762 119.132C18.1735 119.154 18.1663 119.176 18.155 119.195C18.1246 119.231 18.0821 119.255 18.0355 119.262C17.9888 119.269 17.9412 119.259 17.9015 119.234C17.8808 119.234 15.7785 117.98 13.6674 118.349C13.6414 118.356 13.6142 118.357 13.5878 118.352Z" fill="#263238"/>
<path d="M13.7883 116.866C13.7549 116.858 13.7237 116.843 13.6975 116.821C13.6714 116.799 13.6509 116.771 13.6379 116.739C13.6307 116.718 13.6284 116.695 13.631 116.673C13.6336 116.651 13.6411 116.63 13.6529 116.611C13.6648 116.592 13.6807 116.576 13.6995 116.564C13.7183 116.552 13.7396 116.544 13.7618 116.541C16.2621 116.061 18.2937 117.426 18.3792 117.476C18.3988 117.487 18.4158 117.502 18.4292 117.52C18.4425 117.539 18.4519 117.559 18.4566 117.581C18.4614 117.603 18.4614 117.626 18.4567 117.648C18.452 117.67 18.4426 117.691 18.4293 117.709C18.3971 117.744 18.353 117.766 18.3056 117.77C18.2582 117.775 18.2108 117.761 18.1728 117.733C18.1551 117.733 16.1973 116.421 13.8709 116.866C13.8435 116.87 13.8156 116.87 13.7883 116.866Z" fill="#263238"/>
<path d="M14.0242 115.194C13.9906 115.188 13.9592 115.173 13.9329 115.152C13.9066 115.13 13.8863 115.102 13.8738 115.07C13.8661 115.049 13.8631 115.027 13.8651 115.005C13.8671 114.983 13.874 114.962 13.8853 114.943C13.8967 114.924 13.9121 114.908 13.9305 114.896C13.9489 114.884 13.9699 114.876 13.9917 114.873C16.3506 114.389 18.5502 115.796 18.6416 115.857C18.6613 115.868 18.6786 115.883 18.6923 115.901C18.7059 115.919 18.7157 115.94 18.721 115.962C18.7263 115.983 18.7269 116.006 18.7229 116.028C18.7188 116.051 18.7102 116.072 18.6976 116.09C18.6663 116.126 18.6232 116.148 18.5764 116.153C18.5297 116.159 18.4825 116.147 18.444 116.12C18.4204 116.105 16.2857 114.746 14.1067 115.197C14.0792 115.2 14.0514 115.199 14.0242 115.194Z" fill="#263238"/>
<path d="M16.8076 58.3048C14.6109 63.6888 16.0528 70.8892 15.8287 76.7568C15.5604 83.7772 15.4395 89.2792 15.4395 89.2792C15.3569 90.2227 14.8173 91.5437 14.3809 96.1994C13.9151 101.112 13.9328 108.135 13.9328 108.135C13.9328 108.135 18.0843 109.904 20.6643 108.993C20.6643 108.993 23.4389 98.4728 24.7922 92.6907C26.0542 87.2005 26.986 78.6497 26.986 78.6497L28.4927 86.9056C28.4927 86.9056 28.3039 90.4439 28.3924 92.9266C28.4956 95.8132 30.0524 106.855 30.0524 106.855C30.0524 106.855 33.9091 109.164 36.5923 106.962C36.5923 106.962 37.9014 90.7446 37.987 87.286C38.158 80.4808 38.3526 67.0974 37.5476 58.3196L16.8076 58.3048Z" fill="#37474F"/>
<path d="M26.986 78.6498L28.7079 67.8522C28.7079 67.8522 32.4231 67.233 34.0153 65.688C33.114 67.2525 31.6298 68.3964 29.8873 68.8695L28.0828 78.8591L28.4927 86.9057L26.986 78.6498Z" fill="#263238"/>
<path d="M13.862 108.365C15.0208 109.273 18.3969 110.049 20.7085 109.211L21.1744 107.251C19.4288 107.84 15.8346 107.466 13.9003 106.272L13.862 108.365Z" fill="#455A64"/>
<path d="M30.0524 107.068C30.8338 107.861 34.4605 108.515 36.6041 107.262L36.7604 105.304C35.1357 106.207 31.4058 106.053 29.8136 105.125L30.0524 107.068Z" fill="#455A64"/>
<path d="M15.7078 77.7211C15.7078 77.7211 15.3481 86.4664 15.3717 87.1033C15.3952 87.7402 20.1571 88.9992 20.2751 88.5953C20.4815 87.923 20.4284 86.4193 20.8382 79.16C16.8961 78.6646 15.7078 77.7211 15.7078 77.7211Z" fill="#455A64"/>
<path d="M20.0982 81.6662C19.9515 81.6314 19.8005 81.6185 19.65 81.6279C19.475 81.6279 19.3011 81.619 19.1281 81.6013C18.7589 81.5718 18.3923 81.5156 18.0312 81.4333C17.6233 81.3402 17.2224 81.219 16.8312 81.0706C16.5127 80.9468 16.212 80.7757 15.8906 80.6637C15.8611 80.6637 15.8582 80.7109 15.8906 80.7227C16.2035 80.9342 16.5412 81.1065 16.8961 81.2357C17.2185 81.3648 17.5495 81.4712 17.8868 81.5542C18.2468 81.6426 18.6122 81.7076 18.9807 81.7488C19.1635 81.7694 19.3492 81.7812 19.532 81.7871C19.7289 81.8236 19.9319 81.8094 20.1218 81.7458C20.1247 81.734 20.1277 81.6751 20.0982 81.6662Z" fill="#37474F"/>
<path d="M18.0283 80.4454C17.984 80.354 17.9486 80.298 17.8454 80.2862C17.7609 80.2767 17.6759 80.2988 17.6066 80.3481C17.5747 80.3715 17.5478 80.401 17.5276 80.4349C17.5073 80.4689 17.4941 80.5065 17.4887 80.5457C17.4815 80.6083 17.4922 80.6717 17.5193 80.7286C17.5465 80.7855 17.5891 80.8336 17.6423 80.8674C17.6955 80.9012 17.7571 80.9194 17.8202 80.9199C17.8832 80.9203 17.9451 80.9031 17.9988 80.87C18.0278 80.8458 18.0504 80.8149 18.0648 80.78C18.0792 80.7451 18.0849 80.7071 18.0813 80.6695C18.0816 80.5917 18.0634 80.5149 18.0283 80.4454ZM17.9398 80.7108C17.9113 80.7447 17.8721 80.7678 17.8287 80.7764C17.7853 80.7849 17.7402 80.7785 17.701 80.758C17.5771 80.6872 17.6037 80.4631 17.7511 80.4366C17.7978 80.4305 17.8452 80.442 17.8838 80.469C17.9205 80.4967 17.9463 80.5364 17.9565 80.5812C17.9668 80.6259 17.9609 80.6729 17.9398 80.7138V80.7108Z" fill="#37474F"/>
<path d="M31.7036 35.5273C34.0978 35.9578 35.2596 36.5682 37.0582 39.4548C38.8568 42.3414 42.513 50.5826 42.513 50.5826L46.9033 59.5432L43.5 61.5C43.5 61.5 40.8647 58.3844 39.1959 56.3381C37.9604 54.8255 37.1319 53.7198 35.5161 50.8951C33.9003 48.0704 32.4732 45.1543 32.4732 45.1543L31.7036 35.5273Z" fill="#FFB573"/>
<path d="M18.6652 52.4754C18.6652 53.0946 17.0877 56.2083 16.2297 59.5666C21.3926 66.2244 36.6925 62.5918 37.813 58.8442C37.5712 54.392 37.3648 43.1433 36.3888 41.1088C35.3084 38.8923 33.6994 36.9754 31.7036 35.5272C30.6249 35.3196 29.5351 35.1748 28.4396 35.0938C26.8105 34.9247 25.1664 34.9663 23.548 35.2176C22.1002 35.4417 19.7148 36.0697 19.7148 36.0697C18.8067 36.8363 16.2945 40.065 16.8754 43.9571C17.1467 45.7439 18.6829 48.0762 18.6652 52.4754Z" fill="#2196F3"/>
<path opacity="0.2" d="M18.6652 52.4754C18.6652 53.0946 17.0877 56.2083 16.2297 59.5666C21.3926 66.2244 36.6925 62.5918 37.813 58.8442C37.5712 54.392 37.3648 43.1433 36.3888 41.1088C35.3084 38.8923 33.6994 36.9754 31.7036 35.5272C30.6249 35.3196 29.5351 35.1748 28.4396 35.0938C26.8105 34.9247 25.1664 34.9663 23.548 35.2176C22.1002 35.4417 19.7148 36.0697 19.7148 36.0697C18.8067 36.8363 16.2945 40.065 16.8754 43.9571C17.1467 45.7439 18.6829 48.0762 18.6652 52.4754Z" fill="white"/>
<path d="M27.3398 60.1624C27.1658 59.7821 28.9791 59.4695 29.6455 58.6439C29.9758 58.2341 29.9404 57.4409 29.2534 57.7122C27.8351 58.2842 27.0243 58.1427 26.0837 58.3844" fill="#FFB573"/>
<path d="M26.0837 58.3845C25.146 58.6263 24.3971 58.6557 22.9848 58.2872C21.4839 57.895 16.3594 53.6727 16.3594 53.6727L19.8829 44.8271C19.8829 44.8271 21.5488 40.9144 19.7207 36.0729C16.2385 36.8218 15.4041 38.1192 14.7554 39.2396C14.1067 40.3601 13.7617 41.3832 12.0663 46.0212C10.595 50.049 9.83722 52.4078 9.50403 54.0531C9.09418 56.0758 10.4181 57.1343 12.9538 58.6145C15.4896 60.0946 17.1732 60.873 20.8765 62.6422C22.6457 63.4943 23.7514 63.6948 25.3819 64.1577C25.9946 64.3545 26.6343 64.454 27.2778 64.4526C27.8671 64.4653 28.4504 64.3326 28.9762 64.0663C29.0669 64.0055 29.1663 63.9588 29.271 63.9277C29.3775 63.9132 29.4849 63.9063 29.5924 63.9071C29.7921 63.9073 29.9907 63.8785 30.1821 63.8216C30.3766 63.7315 30.5613 63.6218 30.7335 63.4943C30.8142 63.4377 30.8978 63.3856 30.9841 63.338C31.0793 63.2976 31.178 63.266 31.279 63.2437C31.5437 63.2015 31.7991 63.1137 32.0338 62.9842C32.0929 62.9453 32.1409 62.8917 32.173 62.8286C32.205 62.7655 32.2201 62.6952 32.2166 62.6245C32.2166 62.6245 32.5616 62.595 32.6795 62.5773C32.8425 62.5534 33.0025 62.5129 33.1572 62.4564C33.1885 62.4488 33.2179 62.4346 33.2433 62.4148C33.2687 62.395 33.2896 62.37 33.3046 62.3414C33.3149 62.3038 33.3149 62.2641 33.3046 62.2264C33.169 61.6367 32.5734 61.451 32.0486 61.3419C30.6804 61.047 29.7605 61.1502 28.4248 60.705C27.6995 60.4632 27.5196 60.3924 27.3486 60.1801" fill="#FFB573"/>
<path d="M16.3594 53.6726C15.565 52.9147 14.6945 52.2409 13.7617 51.6617C13.7617 51.6617 14.7731 51.5644 16.5717 53.136L16.3594 53.6726Z" fill="#F0997A"/>
<path d="M32.1459 62.648C31.7993 62.6873 31.4509 62.7089 31.1021 62.7128C30.7512 62.7128 30.4033 62.7128 30.0554 62.7276C29.8844 62.7276 29.7104 62.7276 29.5305 62.7276C29.3507 62.7276 29.1797 62.7099 29.0057 62.6892C28.6578 62.6509 28.3128 62.6008 27.9708 62.53L28.4927 62.5595L29.0145 62.589C29.1885 62.589 29.3625 62.589 29.5335 62.589C29.7045 62.589 29.8785 62.589 30.0554 62.589C30.4033 62.589 30.7542 62.589 31.1021 62.6037L32.1459 62.648Z" fill="#F0997A"/>
<path d="M31.0225 63.3173C30.7629 63.4046 30.4952 63.4658 30.2234 63.5001C29.9581 63.5325 29.6897 63.5531 29.4214 63.5649C29.1531 63.5767 28.8848 63.5649 28.6135 63.5649C28.345 63.56 28.0771 63.5374 27.8115 63.4971C28.0798 63.4971 28.3452 63.4735 28.6135 63.4617L29.4155 63.4293L30.2146 63.3939C30.477 63.3703 30.7542 63.3408 31.0225 63.3173Z" fill="#F0997A"/>
<path d="M48.648 59.7614C49.4706 59.6228 49.5031 59.5255 49.562 59.095C49.6185 58.7599 49.5945 58.4162 49.4919 58.0922C49.3894 57.7682 49.2113 57.4732 48.9723 57.2316C48.5359 56.8217 48.1172 56.3883 47.7929 56.2821C47.4686 56.176 47.1885 56.8217 47.6189 57.4969C48.2942 58.5584 48.0524 58.7884 48.0524 58.7884C47.7667 58.3343 47.4577 57.8954 47.1265 57.4733C46.8317 57.1343 46.0828 56.7038 45.6523 56.3942C45.2218 56.0846 44.6822 56.4885 45.1422 57.2787L44.3638 56.7185C43.8183 56.3234 43.4084 56.4237 43.4792 57.0753C43.4971 57.2966 43.5909 57.5048 43.7446 57.665C43.7446 57.665 43.2433 57.1638 43.0664 57.32C42.5622 57.7682 42.748 58.2046 43.4674 59.5078C44.0807 60.6165 44.0099 61.2445 43.5736 61.4981L43.2787 61.6337C43.2787 61.6337 43.892 61.7959 44.4788 61.9021C44.9063 61.9787 45.3191 61.9964 45.5992 61.4863C45.5992 61.4863 46.1388 62.0465 46.5132 61.7399C46.7694 61.4975 46.9705 61.2028 47.103 60.876C47.2575 60.9185 47.4209 60.9164 47.5743 60.87C47.7277 60.8235 47.8648 60.7346 47.9698 60.6135C48.1874 60.3975 48.3274 60.1155 48.3679 59.8115L48.648 59.7614Z" fill="#FFB573"/>
<path d="M46.1274 57.2699C46.3694 57.4286 46.5955 57.6103 46.8026 57.8124C46.9784 58.0484 47.1148 58.3113 47.2065 58.5908C47.4191 59.1191 47.5858 59.6646 47.7049 60.2214C47.4186 59.7296 47.174 59.2148 46.9736 58.6822C46.8893 58.423 46.7807 58.1722 46.6493 57.9333C46.4959 57.7151 46.2837 57.5058 46.1274 57.2699Z" fill="#F0997A"/>
<path d="M44.7386 57.6503C45.0144 57.8036 45.2482 58.0223 45.4198 58.2872C45.5886 58.5484 45.7327 58.8248 45.8502 59.1127C46.0914 59.6817 46.2713 60.2748 46.3869 60.8819C46.1026 60.3402 45.8467 59.7842 45.6203 59.2159C45.4267 58.6436 45.1277 58.1125 44.7386 57.6503Z" fill="#F0997A"/>
<path d="M68.0747 29.7992C67.8611 29.6973 67.6273 29.6449 67.3906 29.6459C66.9939 29.6609 66.6083 29.781 66.2731 29.9938C65.8449 30.2454 65.4622 30.5674 65.1409 30.9462C64.791 31.3519 64.4883 31.796 64.2387 32.2701C63.9841 32.761 63.7863 33.2794 63.6489 33.8151C63.5086 34.3383 63.4363 34.8774 63.4337 35.4191C63.4218 35.8844 63.4947 36.348 63.6489 36.7872C63.7619 37.12 63.9663 37.4143 64.2387 37.6364L64.3271 37.6983C63.991 37.5096 61.5968 36.1503 61.3609 35.9734C61.0893 35.7506 60.8851 35.4565 60.7712 35.1242C60.6183 34.6847 60.5454 34.2214 60.5559 33.7561C60.5598 33.2145 60.6321 32.6756 60.7712 32.1521C60.9085 31.6164 61.1064 31.0981 61.3609 30.6071C61.6078 30.1314 61.9107 29.687 62.2631 29.2832C62.5842 28.9054 62.9658 28.5835 63.3924 28.3308C63.7276 28.118 64.1132 27.9979 64.5099 27.9829C64.7883 27.9799 65.0624 28.0523 65.3031 28.1922C65.3355 28.2129 67.3906 29.3952 68.0747 29.7992Z" fill="#263238"/>
<path d="M69.1126 7.71473C68.781 7.53881 68.3999 7.47961 68.0305 7.54666C67.7304 7.59175 67.4384 7.68015 67.1636 7.80909C67.1818 7.98541 67.1907 8.16257 67.1902 8.33982C67.1949 9.25081 67.0454 10.156 66.7479 11.0171C66.4523 11.8696 66.0843 12.6952 65.6481 13.485C65.2088 14.2782 64.7399 15.0536 64.2387 15.8026C63.7374 16.5515 63.2834 17.2916 62.8735 18.0199C62.4813 18.7195 62.1546 19.4539 61.8976 20.2136C61.6555 20.9251 61.5681 21.68 61.641 22.4279L61.9624 26.3377L64.8402 28.0036L64.5247 24.0968C64.4498 23.3493 64.5352 22.5944 64.7753 21.8825C65.0308 21.1212 65.3597 20.3865 65.7572 19.6888C66.1621 18.9595 66.6162 18.2204 67.1194 17.4714C67.6177 16.7225 68.0895 15.9471 68.5259 15.1539C68.9636 14.3644 69.3325 13.5387 69.6286 12.686C69.9249 11.8257 70.0734 10.9215 70.068 10.0116C70.0883 9.50811 70.003 9.00589 69.8173 8.53738C69.6812 8.19196 69.4331 7.90226 69.1126 7.71473Z" fill="#263238"/>
<path d="M69.2217 0.299147C68.5796 0.0218621 67.8714 -0.0651318 67.1813 0.0485193C66.1243 0.223141 65.1117 0.602765 64.2003 1.16602C63.4076 1.62331 62.6585 2.15233 61.9624 2.74643C61.278 3.33264 60.6365 3.96723 60.0429 4.64529C59.4531 5.32196 58.9037 6.03281 58.3976 6.77414C57.8905 7.51717 57.4246 8.26315 57 9.01208L58.2207 10.8903C58.2754 11.0154 58.3697 11.119 58.489 11.1851C58.6689 11.2795 61.1073 12.7036 61.3609 12.8452C61.2456 12.7757 61.1542 12.6729 61.0985 12.5503L59.8778 10.6721C60.3024 9.92318 60.7692 9.1772 61.2783 8.43417C61.7826 7.69147 62.332 6.98051 62.9236 6.30532C63.5162 5.62729 64.1567 4.9927 64.8402 4.40646C65.5366 3.81274 66.2857 3.28375 67.0781 2.82605C67.9898 2.2614 69.0037 1.88169 70.062 1.70855C70.7813 1.59321 71.5187 1.6959 72.1791 2.0034C71.3564 1.51689 69.2984 0.331581 69.2217 0.299147Z" fill="#37474F"/>
<path d="M58.489 11.1821C58.6689 11.2765 61.1073 12.7006 61.3609 12.8422C61.2456 12.7726 61.1542 12.6698 61.0985 12.5473L59.8778 10.6691L57 9.0061L58.2207 10.8843C58.2748 11.0105 58.3692 11.1152 58.489 11.1821Z" fill="#263238"/>
<path d="M59.8777 10.6751C60.3023 9.92621 60.7692 9.18023 61.2783 8.4372C61.7833 7.69503 62.3327 6.98411 62.9236 6.30835C63.5164 5.62957 64.1579 4.99494 64.8431 4.40949C65.5379 3.81376 66.2872 3.28463 67.081 2.82907C67.9917 2.26451 69.0046 1.88479 70.062 1.71158C70.8512 1.57605 71.663 1.71222 72.3648 2.09784C73.0462 2.52992 73.5647 3.17604 73.8391 3.93477C74.2231 4.97161 74.4023 6.07308 74.3669 7.17816C74.3763 8.3703 74.2366 9.55893 73.9511 10.7164C73.6952 11.7499 73.3499 12.7591 72.9191 13.7328C72.5244 14.6196 72.0683 15.4777 71.554 16.3009L70.1534 18.5271C69.7131 19.223 69.3337 19.8765 69.0153 20.4879C68.7167 21.0373 68.5218 21.637 68.4403 22.257L68.0098 26.1697L64.8313 28.0037L64.5099 24.0998C64.4375 23.3521 64.5239 22.5975 64.7635 21.8855C65.0203 21.1252 65.3481 20.3907 65.7424 19.6918C66.1493 18.9625 66.6043 18.2234 67.1076 17.4745C67.6108 16.7255 68.0806 15.952 68.517 15.154C68.9525 14.3648 69.3204 13.5402 69.6168 12.689C69.9138 11.8288 70.0633 10.9247 70.0591 10.0147C70.0771 9.51101 69.9908 9.00907 69.8055 8.5404C69.6756 8.18886 69.4237 7.8957 69.0957 7.71438C68.7677 7.53306 68.3855 7.47566 68.0187 7.55264C67.535 7.63471 67.0715 7.80887 66.6535 8.06568C65.9931 8.4389 65.3836 8.89577 64.8401 9.42496C64.3871 9.87209 63.9655 10.3499 63.5782 10.855C63.2361 11.315 62.9442 11.716 62.6936 12.0639C62.5294 12.3325 62.3116 12.5643 62.0538 12.745C61.6026 13.0074 61.2754 12.9426 61.0749 12.5592L59.8777 10.6751ZM63.4307 35.4193C63.4344 34.8775 63.5077 34.3384 63.6489 33.8153C63.7837 33.2787 63.9816 32.7601 64.2386 32.2702C64.4863 31.795 64.7891 31.3506 65.1409 30.9463C65.4606 30.5672 65.8425 30.2451 66.2702 29.994C66.6049 29.7806 66.9909 29.6615 67.3877 29.649C67.7108 29.6426 68.0273 29.7408 68.2899 29.9291C68.5713 30.1483 68.7833 30.4443 68.9003 30.7812C69.0612 31.2118 69.1383 31.6692 69.1273 32.1287C69.1266 32.6771 69.0502 33.2229 68.9003 33.7504C68.755 34.2865 68.5502 34.8047 68.2899 35.2954C68.0416 35.7666 67.7388 36.207 67.3877 36.6075C67.0684 36.9777 66.6909 37.2934 66.2702 37.5422C65.9288 37.753 65.5412 37.8775 65.1409 37.9049C64.818 37.9242 64.4985 37.8292 64.2386 37.6366C63.9641 37.4165 63.7592 37.1215 63.6489 36.7874C63.4937 36.3484 63.4198 35.8848 63.4307 35.4193Z" fill="#B1DAFB"/>
<path d="M20.222 20.2186C20.1446 20.4591 20.0932 20.7072 20.0686 20.9587C20.0495 21.1193 20.0495 21.2816 20.0686 21.4422C20.1419 21.8123 20.3406 22.1459 20.6312 22.3865C20.9218 22.6271 21.2865 22.7602 21.6638 22.7632C22.0392 22.7492 22.4065 22.6501 22.738 22.4733C23.0695 22.2966 23.3565 22.0469 23.5774 21.743C24.1995 20.9498 25.1283 19.0893 23.9194 18.4141C23.5139 18.2093 23.0596 18.1208 22.6069 18.1583C22.1541 18.1958 21.7206 18.3578 21.3542 18.6264C20.8183 19.0244 20.4219 19.5817 20.222 20.2186Z" fill="#2196F3"/>
<path opacity="0.25" d="M20.222 20.2186C20.1446 20.4591 20.0932 20.7072 20.0686 20.9587C20.0495 21.1193 20.0495 21.2816 20.0686 21.4422C20.1419 21.8123 20.3406 22.1459 20.6312 22.3865C20.9218 22.6271 21.2865 22.7602 21.6638 22.7632C22.0392 22.7492 22.4065 22.6501 22.738 22.4733C23.0695 22.2966 23.3565 22.0469 23.5774 21.743C24.1995 20.9498 25.1283 19.0893 23.9194 18.4141C23.5139 18.2093 23.0596 18.1208 22.6069 18.1583C22.1541 18.1958 21.7206 18.3578 21.3542 18.6264C20.8183 19.0244 20.4219 19.5817 20.222 20.2186Z" fill="black"/>
<path d="M34.95 19.3162C34.1421 18.1368 32.7061 17.7417 31.8982 18.1368C31.167 17.149 29.6868 16.5829 28.4661 16.5092C23.8045 16.2143 22.2978 18.5171 22.0442 19.3722C19.8387 19.6671 18.2524 22.9753 19.5881 27.522C20.1778 29.5004 23.1735 31.8593 23.3534 32.9148L25.4822 32.2013C25.588 31.2359 25.9596 30.3187 26.5556 29.5519C27.1517 28.7852 27.9488 28.1988 28.8583 27.8581C32.0604 26.602 33.8708 25.8207 34.3603 25.172C36.3387 23.1729 35.7608 20.4838 34.95 19.3162Z" fill="#263238"/>
<path d="M21.5724 16.0227C20.334 16.1701 19.5527 16.7982 19.3168 17.9953C18.2111 17.836 16.9963 18.0395 16.1766 18.8798C15.9057 19.1653 15.701 19.5069 15.5771 19.8805C15.4533 20.2541 15.4133 20.6503 15.4601 21.0411C15.5161 21.7812 15.8994 22.1733 16.3447 22.6893C15.9432 22.862 15.6198 23.1771 15.4369 23.574C15.254 23.9709 15.2244 24.4214 15.3539 24.8388C15.5043 25.3548 17.4474 27.2625 15.8876 27.4158C16.5982 27.9083 17.8012 27.4896 17.7187 26.5313C17.7085 26.8164 17.7549 27.1008 17.8553 27.3679C17.9556 27.635 18.108 27.8796 18.3035 28.0874C18.499 28.2953 18.7338 28.4623 18.9943 28.5788C19.2547 28.6953 19.5357 28.7591 19.821 28.7663C21.5606 28.8429 22.973 27.8817 23.3887 26.1951L24.2291 17.5559C23.887 16.4532 22.7813 15.8753 21.5724 16.0227Z" fill="#263238"/>
<path d="M34.3426 22.9223C34.4478 23.4282 34.5207 23.9403 34.5607 24.4555C34.6565 25.4835 34.6861 26.5167 34.6492 27.5485C34.4959 31.2224 33.4698 32.5876 32.5027 33.0505C31.5324 33.4535 30.4655 33.5642 29.4332 33.3689L29.4775 35.5892C29.4775 35.5892 32.8182 37.8389 29.8283 38.6999C28.6873 39.0272 26.3255 38.5407 25.0045 37.5028C23.6836 36.4649 23.3298 35.8221 23.3298 35.8221L23.2708 30.5147C23.2708 30.5147 22.1179 31.591 20.7056 30.0843C19.6972 29.0139 19.4642 26.7377 20.794 26.033C21.0078 25.9009 21.2466 25.8146 21.4954 25.7795C21.7443 25.7445 21.9976 25.7614 22.2396 25.8293C22.4815 25.8972 22.7067 26.0146 22.901 26.174C23.0952 26.3334 23.2543 26.5313 23.3681 26.7554C23.8693 27.6665 24.7952 27.3185 24.7804 26.2688C24.7657 25.2192 24.8335 24.8978 25.1785 24.3582C26.3579 22.5331 25.5264 21.9817 26.6203 20.929C27.2484 20.3393 28.9497 20.1005 30.2382 21.0765C31.7331 19.7526 33.7676 20.3246 34.3426 22.9223Z" fill="#FFB573"/>
<path d="M30.0642 24.2255L30.8426 28.3682L32.9037 27.401L30.0642 24.2255Z" fill="#F0997A"/>
<path d="M29.4332 33.3542C26.6233 32.7645 25.0104 31.6441 24.5003 30.5118C24.6827 31.4615 25.2313 32.3014 26.0276 32.85C27.384 33.711 29.448 34.0707 29.448 34.0707L29.4332 33.3542Z" fill="#F0997A"/>
<path d="M32.3876 23.1465L33.6614 23.807C33.6227 23.8919 33.5671 23.9681 33.4981 24.031C33.429 24.0938 33.3479 24.142 33.2597 24.1726C33.1715 24.2032 33.078 24.2156 32.9849 24.209C32.8917 24.2024 32.8009 24.177 32.7179 24.1342C32.547 24.043 32.4176 23.8898 32.3562 23.7061C32.2948 23.5224 32.306 23.3221 32.3876 23.1465Z" fill="#263238"/>
<path d="M26.8975 23.9896L28.3069 23.3851C28.3528 23.4754 28.3795 23.5742 28.3854 23.6754C28.3912 23.7765 28.3761 23.8777 28.3409 23.9727C28.3058 24.0677 28.2513 24.1544 28.181 24.2273C28.1107 24.3003 28.0261 24.3578 27.9325 24.3965C27.7407 24.4748 27.5262 24.4763 27.3334 24.4005C27.1407 24.3247 26.9846 24.1775 26.8975 23.9896Z" fill="#263238"/>
<path d="M33.2633 25.3195C33.3695 25.6144 33.166 25.7087 32.8859 25.809C32.6058 25.9092 32.3522 25.9712 32.249 25.6793C32.2191 25.6113 32.2035 25.538 32.2033 25.4637C32.203 25.3895 32.218 25.316 32.2474 25.2479C32.2768 25.1797 32.32 25.1184 32.3742 25.0677C32.4284 25.0169 32.4925 24.978 32.5625 24.9532C32.6324 24.9283 32.7068 24.9182 32.7808 24.9235C32.8548 24.9287 32.927 24.9491 32.9928 24.9835C33.0586 25.0179 33.1166 25.0655 33.1631 25.1233C33.2097 25.1811 33.2438 25.2479 33.2633 25.3195Z" fill="#263238"/>
<path d="M32.2992 25.0806C32.4254 25.0103 32.5616 24.9596 32.7031 24.9303C32.84 24.8965 32.9818 24.8875 33.1218 24.9037C33.2702 24.9195 33.4147 24.9604 33.5494 25.0246C33.5494 25.0246 33.57 25.06 33.5494 25.06C33.4344 25.06 33.3341 25.0305 33.166 25.0246C32.8177 25.0338 32.4763 25.1247 32.1694 25.29L31.9984 25.3873C31.9984 25.3873 31.9719 25.3578 31.9778 25.3431C32.065 25.2337 32.1746 25.1442 32.2992 25.0806Z" fill="#263238"/>
<path d="M27.8233 25.5141C27.7584 25.8089 27.9737 25.8856 28.2656 25.9475C28.5575 26.0094 28.814 26.0389 28.8789 25.7352C28.8962 25.6649 28.8992 25.5917 28.8877 25.5202C28.8762 25.4486 28.8504 25.3802 28.8118 25.3188C28.7733 25.2575 28.7227 25.2045 28.6632 25.1631C28.6038 25.1217 28.5366 25.0927 28.4656 25.0779C28.3947 25.063 28.3215 25.0626 28.2504 25.0766C28.1794 25.0907 28.1118 25.1189 28.0519 25.1596C27.9919 25.2003 27.9408 25.2527 27.9015 25.3136C27.8623 25.3745 27.8357 25.4427 27.8233 25.5141Z" fill="#263238"/>
<path d="M28.7462 25.1484C28.611 25.0964 28.469 25.0646 28.3246 25.0541C28.1853 25.0402 28.0447 25.0501 27.9088 25.0835C27.7641 25.1218 27.626 25.1814 27.499 25.2605C27.499 25.2605 27.499 25.2988 27.499 25.2958C27.611 25.2693 27.7083 25.2369 27.8734 25.2103C28.0301 25.1912 28.1885 25.1912 28.3452 25.2103C28.5344 25.2258 28.7203 25.2695 28.8966 25.3401L29.0794 25.4108C29.0971 25.4108 29.103 25.3784 29.0794 25.3666C28.9847 25.2715 28.8712 25.1972 28.7462 25.1484Z" fill="#263238"/>
<path d="M30.2588 29.7041C30.3266 29.6333 30.191 29.4505 30.1409 29.4092C30.0793 29.358 30.0132 29.3126 29.9433 29.2736C29.8115 29.1964 29.6696 29.1378 29.5217 29.0996C29.2174 29.0136 28.8934 29.0291 28.5988 29.1439C28.5427 29.1645 28.5575 29.2471 28.5988 29.2824C28.6152 29.3071 28.6375 29.3274 28.6636 29.3414C28.6924 29.3505 28.7233 29.3505 28.7521 29.3414C28.7963 29.3414 28.8405 29.3208 28.8848 29.3149C28.9545 29.2996 29.0257 29.2917 29.0971 29.2913C29.2305 29.2888 29.3636 29.3057 29.4922 29.3414C29.6151 29.3736 29.7324 29.4243 29.8401 29.4918C29.9315 29.5478 30.02 29.6097 30.1084 29.6716C30.1497 29.7011 30.188 29.7365 30.2411 29.71C30.2473 29.7091 30.2533 29.7071 30.2588 29.7041Z" fill="#B16668"/>
</svg>
