<svg width="70" height="115" viewBox="0 0 70 115" fill="none" xmlns="http://www.w3.org/2000/svg">
<path d="M27.1971 2.80959C28.5545 -1.25842 35.4984 -0.431769 38.9791 2.27009C42.4597 4.97194 47.7242 6.5687 49.2775 5.48534C45.8447 9.74914 39.4838 11.2328 35.3288 10.219C31.1737 9.20528 25.6961 7.25612 27.1971 2.80959Z" fill="#263238"/>
<path d="M48.2463 8.03926C48.2234 8.03955 48.2009 8.03311 48.1815 8.02073C48.1622 8.00836 48.1469 7.9906 48.1376 7.96964C48.1312 7.9557 48.1277 7.9406 48.1273 7.92527C48.1269 7.90993 48.1296 7.89467 48.1353 7.88043C48.141 7.86619 48.1496 7.85325 48.1604 7.84241C48.1713 7.83157 48.1842 7.82304 48.1985 7.81736C48.9947 7.46059 50.0563 7.48235 51.1788 7.50411C52.5972 7.53456 54.0677 7.56067 54.964 6.78187C54.9879 6.76379 55.0178 6.75551 55.0476 6.75874C55.0774 6.76197 55.1048 6.77647 55.1243 6.79926C55.1437 6.82205 55.1537 6.85141 55.1522 6.88134C55.1508 6.91127 55.1379 6.9395 55.1163 6.96026C54.1504 7.79996 52.6363 7.76951 51.1701 7.73905C50.0737 7.7173 49.0382 7.69554 48.2942 8.03055L48.2463 8.03926Z" fill="#263238"/>
<path d="M47.4719 4.10618C47.4451 4.10096 47.421 4.0866 47.4037 4.06557C47.3864 4.04453 47.3769 4.01813 47.3769 3.99088C47.3769 3.96363 47.3864 3.93723 47.4037 3.9162C47.421 3.89516 47.4451 3.88081 47.4719 3.87559C48.0221 3.82863 48.5488 3.63148 48.9947 3.30563C49.0048 3.29441 49.0173 3.28545 49.0311 3.27932C49.045 3.27319 49.06 3.27002 49.0751 3.27002C49.0903 3.27002 49.1053 3.27319 49.1191 3.27932C49.133 3.28545 49.1454 3.29441 49.1556 3.30563C49.1663 3.31615 49.1747 3.32869 49.1805 3.3425C49.1863 3.35632 49.1893 3.37114 49.1893 3.38612C49.1893 3.40109 49.1863 3.41592 49.1805 3.42974C49.1747 3.44355 49.1663 3.45609 49.1556 3.46661C48.6773 3.82909 48.105 4.04655 47.5067 4.09313L47.4719 4.10618Z" fill="#263238"/>
<path d="M23.9819 2.79662C27.1623 1.80899 29.4943 2.27017 29.8859 3.69289C30.2949 5.18522 28.2718 6.17285 27.5713 6.12499C26.8708 6.07713 23.9819 2.79662 23.9819 2.79662Z" fill="#2196F3"/>
<path d="M14.658 13.3951C12.8046 12.5249 12.0823 9.39669 12.8524 8.17411C10.8511 7.83474 12.7959 0.0772463 22.211 1.426C31.6262 2.77475 29.5248 11.7026 26.7533 12.6119C27.767 13.9563 24.4735 18.1462 20.5534 16.197C16.6333 14.2478 14.658 13.3951 14.658 13.3951Z" fill="#263238"/>
<path d="M4.47283 41.1184L2.1495 39.8436L2.00592 44.1553C2.00592 44.1553 4.37276 44.3641 5.8825 43.4548L5.79548 42.9719C5.72933 42.5831 5.57596 42.2143 5.34689 41.8933C5.11781 41.5723 4.81897 41.3074 4.47283 41.1184Z" fill="#FFB573"/>
<path d="M0.00450311 41.7625L0.152429 43.1417C0.181966 43.4301 0.319468 43.6967 0.537344 43.8879C0.755221 44.0792 1.03736 44.181 1.32715 44.1729H2.00588L2.14945 39.8612L0.631021 40.6269C0.425514 40.7325 0.256139 40.8969 0.144539 41.0992C0.0329393 41.3014 -0.0158168 41.5324 0.00450311 41.7625Z" fill="#FFB573"/>
<path d="M20.9276 27.6354C20.9276 27.9922 20.9276 28.2532 20.9276 28.5491C20.9276 28.8449 20.9276 29.119 20.9276 29.4192C20.9276 29.9848 20.8798 30.5461 20.8363 31.1073C20.7499 32.2309 20.6047 33.3491 20.4012 34.4575C20.1979 35.5796 19.9262 36.6882 19.5876 37.7771C19.2535 38.8891 18.8391 39.9753 18.3476 41.0272L17.9517 41.819C17.8555 42.0222 17.748 42.2197 17.6297 42.4108C17.4421 42.6913 17.2183 42.9459 16.964 43.1678C16.2871 43.7344 15.4796 44.1232 14.6146 44.299C13.4189 44.557 12.1947 44.6579 10.973 44.5992C8.77057 44.5162 6.58308 44.2012 4.44674 43.6594C4.14238 43.5849 3.87499 43.4034 3.6934 43.148C3.51182 42.8926 3.42817 42.5805 3.45773 42.2685C3.48729 41.9566 3.62808 41.6657 3.8544 41.4489C4.08072 41.2322 4.37744 41.1041 4.69038 41.0881H4.73824C6.77007 40.9793 8.85846 40.8532 10.7859 40.5878C11.667 40.4859 12.5348 40.2905 13.3746 40.0048C13.7009 39.8916 13.9489 39.6784 13.8097 39.7437C13.7479 39.7871 13.6948 39.8417 13.6531 39.9047C13.5399 40.0961 13.6531 39.8699 13.6531 39.7872L13.9098 39.1433C14.5502 37.3489 15.0022 35.4927 15.2585 33.6047C15.4064 32.6475 15.4935 31.673 15.5761 30.7027C15.6153 30.2154 15.6457 29.7281 15.6631 29.2452V28.523V27.8573V27.7311C15.658 27.3883 15.7204 27.0478 15.8469 26.7291C15.9733 26.4105 16.1613 26.1198 16.4 25.8738C16.8823 25.3768 17.5421 25.0919 18.2345 25.0815C18.9268 25.0711 19.5949 25.3362 20.0918 25.8184C20.5887 26.3006 20.8737 26.9605 20.8841 27.6528L20.9276 27.6354Z" fill="#FFB573"/>
<path d="M23.7165 42.1105C23.7165 42.1105 18.8261 60.2142 15.6762 72.353C12.5044 83.4388 7.50098 110.288 7.50098 110.288L10.3247 110.979C10.3247 110.979 19.7007 94.4464 22.7288 75.7379C34.5282 59.1309 35.9118 46.222 35.9118 46.222L23.7165 42.1105Z" fill="#2196F3"/>
<path opacity="0.2" d="M32.5139 50.8121C31.883 51.1123 30.5081 54.8279 31.9134 59.5138C33.0646 56.8372 34.0369 54.0873 34.8241 51.282L32.5139 50.8121Z" fill="black"/>
<path d="M42.5773 72.4791C48.6945 45.4214 38.457 41.4404 38.457 41.4404L37.7391 41.5535C33.645 44.164 30.408 51.5604 32.5834 56.1331C32.5182 59.84 32.2963 67.8542 33.0185 73.0273C33.4101 75.8815 33.5928 78.2962 37.1822 79.4839C40.7717 80.6717 52.6929 81.4853 62.504 86.0537L62.9739 82.6644C62.9739 82.6644 50.0302 72.4139 42.5773 72.4791Z" fill="#2196F3"/>
<path d="M66.9722 83.2388C65.9716 83.3215 65.2711 83.5303 62.3212 81.7726C62.3212 81.7726 60.7419 84.7442 60.9072 85.9276C62.939 86.7978 67.2289 90.1392 66.6198 92.6714C66.2761 94.1158 67.9512 93.7373 68.3601 92.7149C69.3478 90.1697 68.1818 88.5207 68.4211 87.0023C68.6256 85.697 68.9823 85.4403 69.0215 84.3918C69.0345 83.4999 67.9773 83.1561 66.9722 83.2388Z" fill="#263238"/>
<path d="M38.457 41.4404C37.6391 37.3245 34.302 31.4858 32.6139 22.0967C32.5218 21.5819 32.3225 21.0922 32.0288 20.6595C31.7352 20.2268 31.3538 19.8606 30.9094 19.5849C30.465 19.3092 29.9676 19.13 29.4495 19.059C28.9314 18.9881 28.4041 19.0269 27.9019 19.173C27.332 19.3383 26.7359 19.5254 26.1312 19.7342C24.0019 20.4211 21.9243 21.2586 19.9139 22.2403C19.2699 22.5753 18.6086 22.9364 17.9864 23.2975C16.8965 23.9256 16.0797 24.9372 15.6952 26.135C15.3107 27.3327 15.3861 28.6307 15.9068 29.7759C16.5072 31.0811 15.637 35.0665 18.9871 35.8148C20.3924 38.4253 22.7071 37.3811 23.7121 42.1496C23.7121 48.7933 30.7604 56.5073 32.5834 56.1505C31.5088 45.7782 38.457 41.4404 38.457 41.4404Z" fill="#2196F3"/>
<path opacity="0.4" d="M38.457 41.4404C37.6391 37.3245 34.302 31.4858 32.6139 22.0967C32.5218 21.5819 32.3225 21.0922 32.0288 20.6595C31.7352 20.2268 31.3538 19.8606 30.9094 19.5849C30.465 19.3092 29.9676 19.13 29.4495 19.059C28.9314 18.9881 28.4041 19.0269 27.9019 19.173C27.332 19.3383 26.7359 19.5254 26.1312 19.7342C24.0019 20.4211 21.9243 21.2586 19.9139 22.2403C19.2699 22.5753 18.6086 22.9364 17.9864 23.2975C16.8965 23.9256 16.0797 24.9372 15.6952 26.135C15.3107 27.3327 15.3861 28.6307 15.9068 29.7759C16.5072 31.0811 15.637 35.0665 18.9871 35.8148C20.3924 38.4253 22.7071 37.3811 23.7121 42.1496C23.7121 48.7933 30.7604 56.5073 32.5834 56.1505C31.5088 45.7782 38.457 41.4404 38.457 41.4404Z" fill="white"/>
<path d="M31.4696 39.6174L28.8591 40.0525L31.4305 43.5332C31.4305 43.5332 33.4101 42.2279 34.0409 40.5703L33.6755 40.244C33.3784 39.9807 33.0258 39.7877 32.644 39.6793C32.2621 39.5708 31.8607 39.5497 31.4696 39.6174Z" fill="#FFB573"/>
<path d="M28.3719 42.898L29.3421 43.8856C29.5444 44.0935 29.818 44.2171 30.1077 44.2317C30.3974 44.2462 30.6819 44.1506 30.904 43.9639L31.4261 43.5289L28.8548 40.0482L28.1456 41.5928C28.0446 41.8072 28.0121 42.0476 28.0526 42.2811C28.0931 42.5147 28.2046 42.7301 28.3719 42.898Z" fill="#FFB573"/>
<path opacity="0.3" d="M32.9663 23.8806L28.5023 22.8016C29.2811 24.7377 32.0091 27.6354 34.3672 29.28C33.8625 27.631 33.3796 25.8429 32.9663 23.8806Z" fill="#2196F3"/>
<path d="M31.1129 19.6995C31.4349 19.8692 31.6654 19.9997 31.9265 20.1346C32.1875 20.2694 32.4181 20.4348 32.6618 20.5914C33.1447 20.9003 33.6146 21.2179 34.0801 21.5486C35.0061 22.2161 35.895 22.9336 36.7428 23.6979C38.4804 25.241 39.9998 27.0136 41.259 28.9667L41.4983 29.3365L41.5592 29.4323C41.6158 29.528 41.6723 29.6237 41.7202 29.7194C41.8171 29.9072 41.8958 30.1039 41.9551 30.3068C42.1292 30.9375 42.1412 31.6019 41.9899 32.2385C41.7905 32.996 41.4607 33.713 41.0153 34.3574C40.3395 35.3411 39.5639 36.2524 38.7007 37.0766C37.1088 38.6073 35.3768 39.9852 33.5276 41.1925C33.2654 41.3609 32.9517 41.43 32.6431 41.3873C32.3344 41.3445 32.0512 41.1928 31.8447 40.9595C31.6382 40.7261 31.522 40.4266 31.517 40.1151C31.5121 39.8035 31.6187 39.5005 31.8177 39.2607L31.8482 39.2259C33.1795 37.664 34.537 36.0542 35.7161 34.44C36.2784 33.7031 36.7776 32.9201 37.2084 32.0993C37.3498 31.8581 37.4388 31.5897 37.4694 31.3118C37.4694 31.2857 37.4085 31.3771 37.4694 31.6729C37.4907 31.7491 37.5184 31.8233 37.5521 31.8948C37.5698 31.9339 37.5901 31.9717 37.613 32.0079L37.5608 31.9427L37.3433 31.6642L36.9082 31.1117L36.4426 30.5809C36.1424 30.2154 35.7944 29.8847 35.4724 29.5367C34.785 28.8666 34.0845 28.2097 33.3362 27.5919C32.5878 26.974 31.809 26.3823 31.0172 25.8167C30.6169 25.5339 30.2166 25.2555 29.8076 24.9944L29.2029 24.6115L28.6416 24.2678L28.5155 24.1895C27.9553 23.8267 27.5554 23.263 27.3979 22.6144C27.2405 21.9658 27.3374 21.2815 27.6688 20.7022C28.0003 20.1229 28.541 19.6925 29.18 19.4996C29.8189 19.3066 30.5075 19.3657 31.1042 19.6647L31.1129 19.6995Z" fill="#FFB573"/>
<path d="M11.4037 112.394C11.4037 111.375 11.0686 111.254 12.7089 107.729C12.7089 107.729 8.41465 106.476 7.5793 107.068C7.23123 109.278 5.49526 111.924 2.27566 111.245C0.844239 110.945 0.74417 112.115 1.7318 112.55C4.19872 113.607 6.013 113.364 7.50968 113.616C8.78447 113.834 9.1891 114.225 10.2333 114.286C11.0991 114.334 11.4167 113.412 11.4037 112.394Z" fill="#263238"/>
<path d="M19.9138 22.223C19.9138 22.223 17.9603 24.89 21.541 28.1879C22.2024 24.9118 26.1224 19.7386 26.1224 19.7386L19.9138 22.223Z" fill="white"/>
<path opacity="0.3" d="M22.7593 33.4088C26.1442 34.4574 30.0773 32.6692 30.0773 32.6692C30.0773 32.6692 25.8919 35.6625 22.7593 33.4088Z" fill="#2196F3"/>
<path d="M22.694 12.9601C23.1074 15.1355 24.1951 18.9381 26.1312 19.7082C26.1312 19.7082 22.2633 23.6022 21.2887 26.7217C18.5303 23.9894 19.9139 22.2143 19.9139 22.2143C21.9327 20.7828 21.2191 19.1687 20.1923 17.7547L22.694 12.9601Z" fill="#FFB573"/>
<path opacity="0.2" d="M21.6759 14.9224L20.1923 17.746C20.4352 18.068 20.6478 18.4117 20.8275 18.7728C21.6324 18.3073 22.4242 16.902 22.1327 15.9709C22.0434 15.5972 21.8887 15.2423 21.6759 14.9224Z" fill="black"/>
<path d="M23.3249 8.44825C23.8557 12.0159 24.1559 13.5126 22.7941 15.688C20.7405 18.9642 16.5159 18.7118 14.9626 15.3704C13.553 12.3596 12.7263 7.1343 15.811 5.01981C18.8958 2.90531 22.7941 4.88058 23.3249 8.44825Z" fill="#FFB573"/>
<path d="M13.3528 5.88126C16.5158 7.47366 20.0226 5.96393 21.4845 7.64334C22.9463 9.32275 25.5873 12.2987 27.754 11.3024C26.2704 6.55129 18.8653 0.31657 13.3528 5.88126Z" fill="#263238"/>
<path d="M21.106 13.8303C19.9045 14.2498 18.6781 14.5941 17.4339 14.8614C17.2294 14.3828 17.3251 13.7955 18.8218 13.2995C20.8493 12.6164 21.106 13.8303 21.106 13.8303Z" fill="#263238"/>
<path d="M18.8348 13.2864C18.3318 13.4073 17.8769 13.6772 17.5296 14.0608C17.8621 14.056 18.192 14.0018 18.5085 13.8998C19.1267 13.7291 19.7141 13.4619 20.2489 13.108C19.77 13.0501 19.2843 13.1113 18.8348 13.2864Z" fill="white"/>
<path d="M20.9494 13.8782C20.8058 13.765 20.6187 13.7694 20.188 13.8042C19.4212 13.962 18.6677 14.1788 17.9343 14.4525C17.6819 14.5612 17.4992 14.67 17.534 14.831C18.6878 14.5711 19.8277 14.2531 20.9494 13.8782Z" fill="#630F0F"/>
<path d="M19.2438 9.99728C19.3047 10.2844 19.2003 10.5498 19.0132 10.589C18.8261 10.6281 18.626 10.428 18.5781 10.1539C18.5303 9.87981 18.6216 9.6057 18.8087 9.56655C18.9958 9.52739 19.1829 9.71012 19.2438 9.99728Z" fill="#263238"/>
<path d="M15.5369 11.0413C15.5978 11.3285 15.4934 11.5939 15.3063 11.633C15.1192 11.6722 14.9191 11.4721 14.8712 11.198C14.8234 10.9239 14.9147 10.6454 15.1018 10.6062C15.2889 10.5671 15.476 10.7542 15.5369 11.0413Z" fill="#263238"/>
<path d="M15.1758 10.5932L14.4449 10.541C14.4449 10.541 14.9104 11.0022 15.1758 10.5932Z" fill="#263238"/>
<path d="M16.3549 11.2197C16.2374 11.9277 16.0221 12.6159 15.7153 13.2646C15.8841 13.3383 16.067 13.3742 16.2512 13.3697C16.4353 13.3652 16.6163 13.3204 16.7813 13.2385L16.3549 11.2197Z" fill="#ED893E"/>
<path d="M24.9478 10.7846C24.8847 11.1299 24.7494 11.458 24.5507 11.7474C24.352 12.0368 24.0944 12.281 23.7948 12.464C23.016 12.8991 22.3852 12.0854 22.3939 11.1022C22.3939 10.232 22.829 8.92676 23.6991 8.92676C24.5693 8.92676 25.1305 9.87959 24.9478 10.7846Z" fill="#FFB573"/>
<path d="M18.7566 7.93063C18.7105 7.94064 18.6623 7.93287 18.6217 7.90888C18.4403 7.79175 18.2335 7.7196 18.0186 7.69841C17.8037 7.67723 17.5869 7.70762 17.3861 7.78706C17.345 7.80676 17.2979 7.80959 17.2548 7.79495C17.2117 7.78031 17.176 7.74936 17.1555 7.70874C17.1451 7.68852 17.1389 7.66643 17.1373 7.64378C17.1356 7.62113 17.1386 7.59838 17.1459 7.57688C17.1532 7.55537 17.1647 7.53556 17.1798 7.5186C17.1949 7.50164 17.2133 7.48788 17.2338 7.47815C17.4868 7.37361 17.7613 7.33169 18.034 7.35592C18.3067 7.38016 18.5695 7.46985 18.8001 7.61737C18.8198 7.62854 18.837 7.64363 18.8507 7.66173C18.8643 7.67982 18.8741 7.70053 18.8794 7.72256C18.8847 7.74459 18.8854 7.76748 18.8815 7.7898C18.8776 7.81213 18.8691 7.8334 18.8566 7.85232C18.834 7.88982 18.7984 7.9177 18.7566 7.93063Z" fill="#263238"/>
<path d="M13.2136 9.6926C13.1827 9.70524 13.1489 9.70895 13.116 9.7033C13.083 9.69766 13.0524 9.68289 13.0274 9.66068C13.0025 9.63846 12.9843 9.6097 12.9749 9.57765C12.9655 9.54561 12.9653 9.51157 12.9743 9.47941C13.0546 9.21789 13.1965 8.97946 13.388 8.78414C13.5796 8.58882 13.8152 8.4423 14.0751 8.3569C14.1176 8.35054 14.1609 8.36013 14.1968 8.38383C14.2327 8.40753 14.2585 8.44366 14.2693 8.48526C14.2801 8.52686 14.2751 8.57099 14.2553 8.60915C14.2355 8.6473 14.2023 8.67679 14.1621 8.69191C13.9561 8.76104 13.7696 8.87846 13.6182 9.03438C13.4668 9.19031 13.3549 9.38019 13.2919 9.58818C13.2804 9.63183 13.2523 9.66927 13.2136 9.6926Z" fill="#263238"/>
<path d="M18.8827 9.54904L18.1517 9.49683C18.1517 9.49683 18.6173 9.95802 18.8827 9.54904Z" fill="#263238"/>
<path d="M14.5798 5.89856C14.5798 7.53882 17.5644 8.63522 19.109 8.57866C17.5035 8.94412 14.2491 8.68308 13.7966 6.29883C13.8967 5.90291 14.5798 5.89856 14.5798 5.89856Z" fill="#263238"/>
<path d="M41.668 4.14087C43.1733 5.6593 47.5938 5.3678 49.4255 4.51504C47.6851 5.77242 43.9304 7.02111 41.3112 5.23293C41.0545 4.75434 41.668 4.14087 41.668 4.14087Z" fill="#263238"/>
</svg>
