<svg width="114" height="115" viewBox="0 0 114 115" fill="none" xmlns="http://www.w3.org/2000/svg">
<path d="M5.85335 76.3156L0.899848 73.4569C0.637546 73.2863 0.4193 73.0561 0.262916 72.7851C0.106533 72.514 0.0164432 72.2099 0 71.8974V42.7927C0.0168901 42.4807 0.107191 42.1771 0.263554 41.9066C0.419918 41.6361 0.637928 41.4063 0.899848 41.236L41.3033 17.9065C41.5822 17.7652 41.8905 17.6915 42.2031 17.6915C42.5158 17.6915 42.8241 17.7652 43.103 17.9065L48.0565 20.7623C48.3184 20.9326 48.5364 21.1624 48.6928 21.4329C48.8492 21.7034 48.9395 22.007 48.9563 22.319V51.4324C48.9395 51.7443 48.8492 52.0479 48.6928 52.3184C48.5364 52.5889 48.3184 52.8187 48.0565 52.989L7.65305 76.3156C7.37414 76.4569 7.06587 76.5306 6.7532 76.5306C6.44053 76.5306 6.13225 76.4569 5.85335 76.3156Z" fill="#455A64"/>
<path d="M48.9564 22.3247V51.4323C48.9395 51.7443 48.8493 52.0479 48.6929 52.3184C48.5365 52.5889 48.3185 52.8187 48.0566 52.989L7.65314 76.3156C7.15548 76.6049 6.7533 76.3706 6.7533 75.7977V46.6929C6.76974 46.3805 6.85983 46.0763 7.01621 45.8053C7.17259 45.5342 7.39084 45.304 7.65314 45.1334L48.0566 21.8068C48.5543 21.5204 48.9564 21.7518 48.9564 22.3247Z" fill="#263238"/>
<path d="M7.44472 76.4169C7.187 76.5105 6.91284 76.5503 6.63915 76.5339C6.36546 76.5175 6.09804 76.4452 5.85335 76.3215L0.899848 73.4628C0.638028 73.2917 0.42015 73.0613 0.263828 72.7904C0.107507 72.5195 0.0171284 72.2156 0 71.9032V42.7927C0.0114428 42.4801 0.102038 42.1754 0.263301 41.9073L7.0165 45.8048C6.85523 46.0729 6.76464 46.3775 6.7532 46.6901V75.8035C6.75031 76.2925 7.03965 76.5327 7.44472 76.4169Z" fill="#37474F"/>
<path d="M76.4119 103.389L72.2483 100.985C72.1091 100.913 71.9548 100.876 71.7984 100.876C71.6419 100.876 71.4877 100.913 71.3485 100.985L67.182 103.389C67.0489 103.472 66.9393 103.588 66.8637 103.725C66.8492 103.751 66.8405 103.783 66.8261 103.809C66.7693 103.92 66.7367 104.043 66.7306 104.168V110.927C66.7392 111.075 66.7811 111.22 66.8532 111.35C66.9253 111.48 67.0258 111.593 67.1472 111.679C67.1472 111.679 67.1675 111.699 67.1791 111.705L71.3427 114.109L71.3976 114.13C71.4476 114.155 71.4999 114.175 71.5539 114.19C71.6328 114.208 71.7133 114.216 71.794 114.216C71.9503 114.22 72.1047 114.183 72.2425 114.109L76.409 111.705C76.5399 111.62 76.6487 111.505 76.7267 111.369C76.8046 111.234 76.8494 111.082 76.8575 110.927V104.168C76.8498 104.012 76.8054 103.86 76.7279 103.725C76.6505 103.59 76.5422 103.475 76.4119 103.389Z" fill="#455A64"/>
<path d="M72.2453 114.109L76.4119 111.705C76.5427 111.62 76.6515 111.505 76.7295 111.37C76.8074 111.234 76.8523 111.083 76.8603 110.927V104.168C76.8603 103.878 76.6607 103.765 76.4119 103.907L72.2482 106.312C72.1172 106.397 72.008 106.512 71.9296 106.647C71.8512 106.782 71.8057 106.934 71.7969 107.09V113.849C71.7969 114.138 71.9994 114.254 72.2453 114.109Z" fill="#37474F"/>
<path d="M111.862 82.9214L107.698 80.517C107.559 80.4457 107.405 80.4084 107.248 80.4084C107.092 80.4084 106.938 80.4457 106.798 80.517L102.632 82.9214C102.499 83.0042 102.389 83.1197 102.314 83.2571C102.314 83.2831 102.29 83.3149 102.276 83.341C102.22 83.4525 102.188 83.5749 102.183 83.6997V90.4587C102.193 90.6072 102.235 90.7518 102.307 90.8819C102.379 91.012 102.479 91.1245 102.6 91.211C102.61 91.2206 102.621 91.2293 102.632 91.2371L106.798 93.6415C106.815 93.6499 106.832 93.6567 106.85 93.6617C106.901 93.6862 106.953 93.7065 107.007 93.7225C107.086 93.7399 107.166 93.7486 107.247 93.7485C107.404 93.752 107.559 93.7151 107.698 93.6415L111.862 91.2371C111.993 91.1519 112.101 91.037 112.179 90.9017C112.257 90.7664 112.302 90.6146 112.31 90.4587V83.6997C112.302 83.5439 112.257 83.3922 112.179 83.2569C112.101 83.1217 111.992 83.0067 111.862 82.9214Z" fill="#455A64"/>
<path d="M107.698 93.6413L111.862 91.2369C111.993 91.1517 112.102 91.0368 112.18 90.9016C112.257 90.7663 112.302 90.6145 112.31 90.4586V83.6996C112.31 83.4103 112.108 83.2974 111.859 83.4392L107.695 85.8436C107.564 85.9291 107.455 86.0444 107.376 86.1801C107.298 86.3159 107.252 86.4683 107.244 86.6248V93.3867C107.247 93.676 107.441 93.786 107.698 93.6413Z" fill="#37474F"/>
<path d="M47.1567 43.7533L8.55296 66.0325C8.02705 66.3739 7.58952 66.8352 7.27619 67.3783C6.96287 67.9215 6.78268 68.5311 6.75037 69.1573V70.8644C6.78394 71.4892 6.96441 72.0973 7.27711 72.6393C7.58982 73.1812 8.02594 73.6418 8.55006 73.9835L69.9972 109.431C70.5547 109.714 71.1714 109.862 71.7969 109.862C72.4225 109.862 73.0392 109.714 73.5966 109.431L112.2 87.1514C112.725 86.8104 113.161 86.3505 113.474 85.8089C113.786 85.2674 113.967 84.6597 114 84.0352V82.3281C113.967 81.7033 113.786 81.0952 113.473 80.5533C113.161 80.0113 112.725 79.5508 112.2 79.209L50.7561 43.7533C50.1986 43.4695 49.582 43.3215 48.9564 43.3215C48.3309 43.3215 47.7142 43.4695 47.1567 43.7533Z" fill="#455A64"/>
<path d="M114 82.3194V84.0265C113.966 84.6512 113.785 85.259 113.472 85.8008C113.16 86.3427 112.724 86.8033 112.2 87.1456L73.5879 109.433C73.0343 109.727 72.4148 109.875 71.7882 109.862V103.997C72.4148 104.01 73.0343 103.862 73.5879 103.569L112.192 81.2894C113.118 80.7512 113.181 79.9063 112.374 79.3276C112.847 79.6773 113.238 80.1264 113.519 80.6432C113.8 81.1601 113.964 81.7322 114 82.3194Z" fill="#263238"/>
<path d="M8.55296 68.1187C7.60681 67.5747 7.56341 66.7096 8.41697 66.1338C7.93123 66.4815 7.52945 66.9336 7.24108 67.4568C6.9527 67.9799 6.78504 68.561 6.75037 69.1574V70.8645C6.78394 71.4893 6.96441 72.0974 7.27711 72.6393C7.58982 73.1813 8.02594 73.6418 8.55006 73.9836L69.9972 109.431C70.5502 109.726 71.17 109.875 71.7969 109.862V103.997C71.1704 104.009 70.5511 103.862 69.9972 103.569L8.55296 68.1187Z" fill="#37474F"/>
<path d="M47.1567 34.0229L8.55296 56.3021C8.02705 56.6436 7.58952 57.1048 7.27619 57.648C6.96287 58.1911 6.78268 58.8008 6.75037 59.427V63.0669C6.78382 63.6924 6.96451 64.3013 7.27775 64.8438C7.59099 65.3863 8.02792 65.8471 8.55296 66.1889L69.9972 101.636C70.5551 101.918 71.1716 102.066 71.7969 102.066C72.4222 102.066 73.0387 101.918 73.5966 101.636L112.2 79.3567C112.725 79.0158 113.161 78.5558 113.474 78.0143C113.786 77.4728 113.967 76.865 114 76.2405V72.5891C113.967 71.9643 113.786 71.3562 113.473 70.8142C113.161 70.2723 112.725 69.8117 112.2 69.47L50.7561 34.0229C50.1986 33.7391 49.582 33.5912 48.9564 33.5912C48.3309 33.5912 47.7142 33.7391 47.1567 34.0229Z" fill="#2196F3"/>
<path opacity="0.8" d="M8.55302 58.3767L69.9973 93.8382C70.5551 94.1207 71.1717 94.2678 71.797 94.2678C72.4223 94.2678 73.0388 94.1207 73.5967 93.8382L112.2 71.559C113.196 70.9803 113.196 70.0544 112.2 69.4787L50.7562 34.0229C50.1987 33.7391 49.582 33.5912 48.9565 33.5912C48.3309 33.5912 47.7142 33.7391 47.1568 34.0229L8.55302 56.3021C7.55769 56.8837 7.55769 57.8154 8.55302 58.3767Z" fill="white"/>
<path opacity="0.05" d="M15.1933 54.4243L23.5841 59.2997C24.5794 59.8784 25.5806 59.7337 27.0041 59.2997C28.4277 58.8657 33.141 56.985 33.141 56.985C33.141 56.985 33.9107 60.0288 37.131 64.1635C38.3578 65.7375 40.6841 68.6946 44.5902 70.8183L67.5175 57.3553L48.9477 46.6324L50.6345 45.6775C51.8903 44.9166 51.6299 44.2656 50.6345 43.6898L40.4121 37.8075L15.1875 52.4741C14.195 53.0499 14.1979 53.8514 15.1933 54.4243Z" fill="black"/>
<path opacity="0.5" d="M114 72.5889V76.2317C113.966 76.856 113.785 77.4634 113.472 78.0047C113.16 78.5461 112.724 79.0063 112.2 79.3479L73.5879 101.636C73.0343 101.93 72.4148 102.077 71.7882 102.064V94.2547C72.4148 94.2677 73.0343 94.1202 73.5879 93.8265L112.192 71.5473C113.118 71.0091 113.181 70.1643 112.374 69.5856C112.848 69.9365 113.24 70.3874 113.521 70.9064C113.802 71.4253 113.966 71.9998 114 72.5889Z" fill="white"/>
<path opacity="0.6" d="M8.55296 58.3767C7.60681 57.8328 7.56341 56.9676 8.41697 56.3918C7.92976 56.7408 7.52709 57.1947 7.23865 57.72C6.9502 58.2453 6.78334 58.8286 6.75037 59.427V63.0669C6.78382 63.6925 6.96451 64.3013 7.27775 64.8438C7.59099 65.3863 8.02792 65.8472 8.55296 66.1889L69.9972 101.636C70.551 101.929 71.1704 102.077 71.7969 102.064V94.2549C71.1704 94.2671 70.5511 94.1197 69.9972 93.8267L8.55296 58.3767Z" fill="white"/>
<path d="M50.8371 42.5207C50.9789 41.3634 49.726 39.338 48.0392 38.0157L41.2483 32.6832C40.3051 31.9425 39.4255 31.575 38.8092 31.5953C37.2178 31.52 30.4183 34.7954 27.0273 36.7484C23.6362 38.7015 16.2002 43.4437 14.875 45.5386C14.4352 46.2243 25.4533 57.2192 27.0041 56.9299C30.456 56.2731 36.9198 53.2061 40.2935 51.1431C45.8083 47.7781 49.049 44.9165 50.2179 43.6839C50.7734 43.0907 50.8081 42.7667 50.8371 42.5207Z" fill="#FAFAFA"/>
<path d="M32.6492 39.9514C30.2072 41.3518 30.0451 43.0965 31.243 45.1595C32.0416 46.5339 33.2684 48.4349 35.3285 49.3347C36.564 49.8758 37.1369 50.4111 38.0309 51.5077C38.0483 51.5279 38.0599 51.5511 38.0743 51.5713C39.2838 50.9637 40.4672 50.3243 41.5464 49.7166L32.6492 39.9514Z" fill="#E0E0E0"/>
<path d="M17.4559 50.5644L24.2467 55.8969C25.9365 57.2221 27.4295 57.3436 27.5626 56.1863C27.6957 55.0289 26.4515 53.0035 24.7646 51.6813L17.9738 46.3487C16.287 45.0235 14.7911 44.902 14.658 46.0594C14.5249 47.2167 15.7633 49.2305 17.4559 50.5644Z" fill="#E0E0E0"/>
<path d="M58.0619 51.0967C57.2633 50.6279 56.3403 50.2026 52.8538 48.4926C50.0964 47.1501 49.0345 46.5685 47.7701 46.2791C46.2395 45.9262 44.57 46.4643 42.7616 46.9765L53.256 53.8512L58.0619 51.0967Z" fill="#FFB573"/>
<path d="M42.5707 47.0344C45.574 46.0419 47.0352 45.5877 49.6016 46.8029C52.9406 48.3769 56.6384 50.3473 56.6384 50.3473C55.3422 50.4023 53.4354 52.7257 53.5627 54.6643L42.5707 47.0344Z" fill="#37474F"/>
<path d="M37.2758 49.2479C36.1179 50.0268 35.0068 50.8732 33.9483 51.7825C33.0803 52.6129 33.9889 52.8762 34.2377 54.0365C35.6844 60.9257 47.7701 67.0568 47.7701 67.0568L59.7488 57.6561C56.1493 55.3105 52.7056 52.7338 49.4396 49.9423C46.5462 47.4945 45.2673 46.0883 41.5609 47.3238C38.5112 48.3336 37.2758 49.2479 37.2758 49.2479Z" fill="#455A64"/>
<path d="M40.2386 36.8583C39.9856 36.3764 39.6376 35.9507 39.2157 35.6068C38.7938 35.2629 38.3066 35.0079 37.7835 34.8573C37.2604 34.7067 36.7123 34.6635 36.1721 34.7304C35.6319 34.7972 35.1108 34.9727 34.6402 35.2463C34.1696 35.5199 33.7593 35.8859 33.4339 36.3223C33.1086 36.7587 32.8749 37.2564 32.747 37.7855C32.6191 38.3146 32.5996 38.8641 32.6897 39.4009C32.7798 39.9378 32.9777 40.4508 33.2713 40.9091C33.306 40.9699 33.3494 41.0277 33.3871 41.0885L32.6377 43.4235L30.8004 40.8368C30.7745 40.6184 30.6684 40.4175 30.5026 40.2731C30.3368 40.1287 30.1232 40.0512 29.9034 40.0556C29.7923 40.0598 29.6833 40.0866 29.5829 40.1343C29.4825 40.1819 29.3928 40.2494 29.3192 40.3327C29.2456 40.416 29.1897 40.5134 29.1549 40.6189C29.12 40.7245 29.1069 40.836 29.1164 40.9467L30.2738 40.9062C30.0424 41.1039 29.8785 41.3689 29.805 41.6643C29.6198 42.4108 30.7454 43.7475 32.1747 44.8673C32.1747 44.8673 34.284 47.182 34.7788 47.4945C35.0868 47.6753 35.4527 47.7302 35.8001 47.6478L35.2996 42.6307C36.0793 42.9364 36.9349 42.9916 37.7474 42.7887C38.5599 42.5858 39.2891 42.1348 39.8335 41.4984C40.3779 40.862 40.7106 40.0718 40.7853 39.2377C40.8599 38.4035 40.6729 37.5669 40.2502 36.8439L40.2386 36.8583Z" fill="#263238"/>
<path d="M33.63 44.1989C33.4911 44.4507 32.9472 44.2163 32.5247 44.0948C32.1023 43.9733 31.023 44.0948 31.1214 45.2521C31.2198 46.4095 32.7446 47.1676 33.5432 46.9882C34.9233 46.6757 34.66 45.8308 34.66 45.8308L37.2641 50.1131C39.7929 51.1258 43.9594 48.5419 41.1557 47.5784L40.4063 46.3025C40.8924 46.1045 41.3544 45.8522 41.7836 45.5502C42.5648 44.9165 42.7095 43.927 42.4288 42.8477C41.9775 41.1117 41.4335 39.8212 39.3734 37.0985C37.131 34.0981 33.3696 36.2421 32.0907 38.7015C30.8118 41.1609 33.63 44.1989 33.63 44.1989Z" fill="#FFB573"/>
<path d="M37.6489 41.731C37.7126 41.9364 37.5882 42.6684 37.1426 42.8594C37.2745 42.8623 37.4044 42.8263 37.516 42.7558C37.6276 42.6853 37.7159 42.5835 37.77 42.4631C37.824 42.3427 37.8413 42.209 37.8198 42.0788C37.7983 41.9486 37.7388 41.8276 37.6489 41.731Z" fill="#AF6152"/>
<path d="M39.223 40.8773C39.3851 41.0162 40.1084 41.1898 40.4585 40.8571C40.409 40.9791 40.3247 41.0839 40.216 41.1584C40.1073 41.2329 39.9792 41.2738 39.8475 41.2759C39.7158 41.2781 39.5863 41.2414 39.4753 41.1706C39.3642 41.0997 39.2765 40.9977 39.223 40.8773Z" fill="#AF6152"/>
<path d="M39.6686 44.0456C39.5863 43.9608 39.4826 43.8999 39.3685 43.8693C39.2543 43.8387 39.1341 43.8397 39.0204 43.872C38.812 43.908 38.6254 44.023 38.4996 44.1931C38.4883 44.205 38.4812 44.2203 38.4794 44.2365C38.4794 44.3581 38.7398 44.2018 38.7687 44.1845C38.8682 44.1378 38.9732 44.1038 39.0812 44.0832C39.1763 44.0636 39.2738 44.0577 39.3705 44.0658C39.4154 44.0683 39.46 44.0751 39.5036 44.0861C39.5471 44.1029 39.593 44.1127 39.6396 44.115C39.6859 44.115 39.6772 44.06 39.6686 44.0456Z" fill="#AF6152"/>
<path d="M37.4638 42.0549C37.4418 42.1676 37.3868 42.2712 37.3057 42.3525C37.2246 42.4339 37.1212 42.4892 37.0086 42.5116C36.896 42.534 36.7792 42.5224 36.6732 42.4782C36.5672 42.434 36.4768 42.3593 36.4134 42.2636C36.35 42.1679 36.3165 42.0554 36.3171 41.9406C36.3178 41.8258 36.3527 41.7138 36.4172 41.6188C36.4817 41.5238 36.5731 41.4502 36.6796 41.4073C36.7861 41.3644 36.903 41.3541 37.0153 41.3778C37.164 41.4092 37.2943 41.4978 37.3783 41.6245C37.4622 41.7511 37.4929 41.9057 37.4638 42.0549Z" fill="#AF6152"/>
<path d="M40.2067 40.1252C40.2445 40.2336 40.2491 40.3508 40.2201 40.4618C40.1911 40.5729 40.1296 40.6728 40.0437 40.7489C39.9577 40.825 39.851 40.8737 39.7373 40.889C39.6235 40.9043 39.5077 40.8854 39.4047 40.8347C39.3017 40.784 39.2161 40.7039 39.1588 40.6044C39.1015 40.5049 39.0751 40.3907 39.0829 40.2761C39.0907 40.1616 39.1324 40.052 39.2027 39.9612C39.273 39.8704 39.3686 39.8026 39.4776 39.7664C39.6219 39.7184 39.7793 39.7291 39.9157 39.7963C40.0522 39.8634 40.1567 39.9816 40.2067 40.1252Z" fill="#AF6152"/>
<path d="M40.2067 40.1252C40.2445 40.2336 40.2491 40.3508 40.2201 40.4618C40.1911 40.5729 40.1296 40.6728 40.0437 40.7489C39.9577 40.825 39.851 40.8737 39.7373 40.889C39.6235 40.9043 39.5077 40.8854 39.4047 40.8347C39.3017 40.784 39.2161 40.7039 39.1588 40.6044C39.1015 40.5049 39.0751 40.3907 39.0829 40.2761C39.0907 40.1616 39.1324 40.052 39.2027 39.9612C39.273 39.8704 39.3686 39.8026 39.4776 39.7664C39.6219 39.7184 39.7793 39.7291 39.9157 39.7963C40.0522 39.8634 40.1567 39.9816 40.2067 40.1252Z" fill="#AF6152"/>
<path d="M39.6917 40.4579C39.5808 40.4957 39.4594 40.4879 39.3542 40.4364C39.249 40.3849 39.1685 40.2938 39.1304 40.183C39.0493 39.9544 39.2374 39.856 39.4689 39.775C39.7004 39.694 39.8826 39.6651 39.9637 39.8965C40.0008 40.0071 39.9931 40.1278 39.9423 40.2327C39.8914 40.3377 39.8014 40.4185 39.6917 40.4579Z" fill="#263238"/>
<path d="M36.9835 42.0578C36.9413 42.0976 36.8917 42.1285 36.8374 42.1489C36.7832 42.1692 36.7255 42.1786 36.6676 42.1765C36.6097 42.1743 36.5528 42.1607 36.5002 42.1363C36.4477 42.112 36.4005 42.0774 36.3614 42.0347C36.1964 41.8553 36.3267 41.6904 36.506 41.5254C36.6854 41.3605 36.8417 41.2564 37.0095 41.4358C37.0487 41.4783 37.0791 41.5281 37.099 41.5824C37.1189 41.6367 37.1279 41.6944 37.1255 41.7522C37.1231 41.81 37.1093 41.8667 37.0849 41.9192C37.0605 41.9716 37.0261 42.0187 36.9835 42.0578Z" fill="#263238"/>
<path d="M33.8384 44.5549C33.7343 44.6185 32.9328 44.1787 32.5248 44.0919C31.9635 43.9733 30.6702 40.6633 30.6702 40.6633C30.4211 40.4577 30.2376 40.184 30.142 39.8756C30.0464 39.5672 30.0429 39.2376 30.132 38.9272C30.3403 37.9464 31.4543 37.1738 32.2297 36.6588C32.7823 36.2884 33.335 35.9152 33.85 35.5014C34.365 35.0877 34.8367 34.6132 35.2967 34.1473C35.5836 33.9097 35.8006 33.5987 35.9246 33.2475C35.9291 33.2168 35.9433 33.1884 35.9651 33.1665C35.9789 33.1572 35.9946 33.1508 36.011 33.1478C36.0274 33.1448 36.0443 33.1453 36.0606 33.1491C36.2712 33.191 36.4588 33.3096 36.5872 33.4818C36.7916 33.7683 36.939 34.0915 37.0212 34.4338C37.126 34.2964 37.2171 34.1491 37.2931 33.994C37.3534 33.8218 37.3932 33.6431 37.4118 33.4616C37.4133 33.4386 37.4213 33.4165 37.4349 33.3979C37.4436 33.388 37.4542 33.38 37.4662 33.3745C37.4782 33.369 37.4912 33.3662 37.5044 33.3661C37.5445 33.3706 37.5833 33.3835 37.6182 33.404C37.6531 33.4244 37.6833 33.4519 37.7069 33.4847C38.0307 33.8366 38.2484 34.273 38.3348 34.7434C38.4222 35.2132 38.3864 35.6977 38.2306 36.1496C37.9818 36.8382 37.3626 37.3243 36.7839 37.7554C35.5166 38.7189 33.2742 39.7576 32.9617 39.8878C32.5335 40.0643 32.6724 40.4983 33.0717 41.6702C33.442 42.6857 34.1972 44.3379 33.8384 44.5549Z" fill="#263238"/>
<path d="M40.4151 46.288C40.4151 46.288 38.0396 47.0981 37.1629 47.1328C36.6538 47.1559 36.1496 47.0248 35.7162 46.7567C36.0459 47.0897 36.4396 47.3525 36.8735 47.5292C37.7271 47.8707 40.7247 46.7972 40.7247 46.7972L40.4151 46.288Z" fill="#AF6152"/>
<path d="M35.2677 41.1638L35.8088 40.2263C35.9318 40.3046 36.0208 40.4266 36.0578 40.5677C36.0948 40.7088 36.0772 40.8586 36.0084 40.9873C35.9725 41.0487 35.9245 41.1023 35.8674 41.1446C35.8102 41.187 35.745 41.2174 35.6758 41.2339C35.6066 41.2504 35.5347 41.2527 35.4646 41.2406C35.3944 41.2286 35.3275 41.2024 35.2677 41.1638Z" fill="#263238"/>
<path d="M38.4129 38.4788L39.5008 38.58C39.4976 38.6515 39.4799 38.7215 39.4486 38.7858C39.4174 38.8501 39.3733 38.9074 39.3191 38.954C39.2649 39.0006 39.2017 39.0357 39.1334 39.0569C39.0651 39.0782 38.9932 39.0853 38.9221 39.0777C38.7774 39.0603 38.6446 38.989 38.5502 38.878C38.4558 38.7669 38.4067 38.6244 38.4129 38.4788Z" fill="#263238"/>
<path d="M37.7386 40.5823L39.1014 42.9375L40.117 41.893L37.7386 40.5823Z" fill="#AF6152"/>
<path opacity="0.1" d="M51.4766 66.918C50.4688 66.3297 49.5159 65.6518 48.6295 64.8927C47.9206 64.2503 47.2522 63.3881 47.5474 62.4767L43.5574 64.7914C44.2576 66.2699 45.9242 67.1495 47.3448 67.9741C48.1164 68.4101 48.888 68.8344 49.6596 69.2472L50.5623 69.716C54.9661 71.967 59.5579 73.8506 64.141 75.7285C64.6966 75.957 65.2984 76.1914 65.8771 76.0525L51.4766 66.918Z" fill="black"/>
<path d="M31.7319 71.7731V85.4155L71.7969 108.522V94.2548C71.1702 94.268 70.5507 94.1206 69.9972 93.8266L31.7319 71.7731Z" fill="#2196F3"/>
<path opacity="0.3" d="M31.7319 71.7731V85.4155L71.7969 108.522V94.2548C71.1702 94.268 70.5507 94.1206 69.9972 93.8266L31.7319 71.7731Z" fill="black"/>
<path d="M112.2 71.5503C113.126 71.0122 113.19 70.1673 112.383 69.5886C112.855 69.9401 113.245 70.3909 113.524 70.9093C113.804 71.4277 113.966 72.0011 114 72.5891V84.1627L71.7969 108.522V94.2549C72.4234 94.2673 73.0428 94.1199 73.5966 93.8266L112.2 71.5503Z" fill="#2196F3"/>
<path opacity="0.45" d="M112.2 71.5503C113.126 71.0122 113.19 70.1673 112.383 69.5886C112.855 69.9401 113.245 70.3909 113.524 70.9093C113.804 71.4277 113.966 72.0011 114 72.5891V84.1627L71.7969 108.522V94.2549C72.4234 94.2673 73.0428 94.1199 73.5966 93.8266L112.2 71.5503Z" fill="black"/>
<path d="M112.2 69.4699L73.935 47.4048L58.3107 56.3975C53.1026 55.6365 46.1844 60.4222 43.9392 64.7218L31.729 71.773L69.9942 93.8381C70.5521 94.1205 71.1686 94.2677 71.7939 94.2677C72.4192 94.2677 73.0357 94.1205 73.5936 93.8381L112.197 71.5589C113.196 70.9744 113.196 70.0456 112.2 69.4699Z" fill="#2196F3"/>
<path opacity="0.2" d="M112.2 69.4699L73.935 47.4048L58.3107 56.3975C53.1026 55.6365 46.1844 60.4222 43.9392 64.7218L31.729 71.773L69.9942 93.8381C70.5521 94.1205 71.1686 94.2677 71.7939 94.2677C72.4192 94.2677 73.0357 94.1205 73.5936 93.8381L112.197 71.5589C113.196 70.9744 113.196 70.0456 112.2 69.4699Z" fill="black"/>
<path opacity="0.1" d="M112.2 69.4699L73.9352 47.4048L58.3108 56.3975C60.8364 57.9687 63.4442 59.404 66.123 60.6971C68.05 61.811 73.3999 64.5974 78.6311 67.5631C80.3209 68.5208 84.9966 69.4091 87.022 69.1863C88.804 68.9728 90.559 68.5753 92.2591 68C92.5771 67.887 92.9145 67.8388 93.2515 67.8582C94.7156 68.0087 94.5651 69.4699 94.3221 70.5057C94.0478 71.8807 93.5157 73.1913 92.7538 74.3684C92.4404 74.9178 92.1881 75.5 92.0016 76.1044C91.8164 77.201 92.3574 78.0372 93.4049 78.5002C94.4523 78.9631 98.5725 79.4145 100.572 78.26L112.206 71.5444C113.19 70.9773 113.19 70.0428 112.2 69.4699Z" fill="black"/>
<path opacity="0.1" d="M77.5229 82.6811C76.6973 82.1796 75.8833 81.6597 75.0809 81.1216C74.7655 80.9103 73.3449 79.9874 72.9919 79.6749C74.0364 80.1349 75.0664 80.6123 76.0994 81.1013C77.2278 81.6337 78.3678 82.1429 79.5309 82.6001C81.0934 83.2135 83.2924 84.3564 84.6291 82.7101C85.4306 81.7321 85.6187 80.3143 85.8849 79.0759C85.9948 78.5638 86.6342 77.5019 87.0596 76.3098C87.6845 74.5593 87.9073 72.6902 85.8125 73.1937C85.4885 73.2718 84.9445 73.5264 84.6118 73.6248C83.1361 74.079 81.7936 75.002 80.2572 75.1554C78.2318 75.355 76.1804 74.2555 74.7076 72.9911C73.015 71.5444 68.9845 69.0821 67.0546 67.9711C66.8926 67.8785 66.9041 67.945 66.7653 67.8148C67.6333 68.1418 70.4862 69.7129 71.279 70.1787C71.8837 70.5346 72.4653 70.9252 73.0729 71.2782C74.2073 71.958 75.379 72.5733 76.5826 73.1213C77.7724 73.6918 79.0874 73.9516 80.4047 73.8765C81.9469 73.7405 83.356 72.9911 84.794 72.4298C85.3438 72.1675 85.9508 72.0481 86.559 72.0826C87.5196 72.207 88.324 73.4107 88.2719 74.3423C88.2719 74.3713 88.2719 74.4002 88.2719 74.4291C88.0896 76.0003 87.8234 77.5598 87.6759 79.1396C87.5896 79.6071 87.6409 80.0895 87.8234 80.5284C87.9737 80.7561 88.1701 80.9497 88.3998 81.0967C88.6296 81.2437 88.8876 81.3409 89.1573 81.382C89.6897 81.5035 90.2423 81.5209 90.7602 81.6887C90.8297 81.7049 90.8924 81.7423 90.9396 81.7957C91.0206 81.9115 90.9396 82.0677 90.8557 82.1777C90.3542 82.7848 89.7114 83.2597 88.9837 83.5607C88.269 83.8848 87.5167 84.1162 86.7963 84.4287C86.2413 84.7058 85.6596 84.9259 85.0602 85.0855C84.6779 85.1491 84.2904 85.1772 83.9029 85.1694C83.2287 85.1694 81.9093 85.1694 79.8753 84.0613C79.0854 83.6041 78.2926 83.1441 77.5229 82.6811Z" fill="black"/>
<path opacity="0.2" d="M38.4851 75.6705V89.3419L39.33 89.8019L39.3271 76.1566L38.4851 75.6705Z" fill="black"/>
<path opacity="0.1" d="M38.4851 75.6705L49.6739 69.2095C52.385 65.9226 59.659 59.5687 65.252 60.1908L80.694 51.3022L81.5621 51.8144L66.12 60.6913C60.5184 60.9807 55.3652 64.4904 50.5708 69.6753L39.3271 76.1508L38.4851 75.6705Z" fill="black"/>
<path d="M46.4247 70.1613C45.386 69.8112 40.9851 68.3848 39.0784 67.3866C37.3684 66.4867 37.1745 66.18 36.5785 65.0574C35.8175 63.6107 34.5878 61.267 33.1064 58.0495C31.732 55.0636 32.9733 53.449 33.8153 52.4711L37.2179 54.6151L41.5059 62.9278C41.5059 62.9278 45.7477 65.5319 47.1915 66.3449C47.8703 66.7169 48.6101 66.9648 49.376 67.077C50.3792 67.1296 51.3762 67.267 52.3562 67.4878C53.0247 67.6467 53.7089 67.7302 54.396 67.7367C54.9747 67.7019 55.2872 67.5891 55.1541 68.0057C54.9805 68.5381 54.4828 68.8159 53.5165 68.9345C54.1877 69.4061 54.9863 69.8893 55.6373 70.4073C56.2883 70.9252 57.0348 71.4634 57.1245 71.7643C57.1472 71.8649 57.1465 71.9694 57.1224 72.0698C57.0983 72.1701 57.0515 72.2635 56.9856 72.3429C57.1899 72.4359 57.3716 72.5721 57.518 72.7422C57.5605 72.8273 57.5786 72.9225 57.5703 73.0172C57.562 73.112 57.5276 73.2026 57.471 73.2789C57.4144 73.3553 57.3377 73.4146 57.2495 73.4501C57.1613 73.4856 57.0649 73.4959 56.9712 73.4801C56.927 73.5838 56.8555 73.6736 56.7643 73.7399C56.6731 73.8061 56.5656 73.8463 56.4533 73.8562C56.111 73.8261 55.7764 73.7381 55.4637 73.5958C55.4637 73.5958 55.4984 74.024 54.9169 73.9141C54.3102 73.7714 53.7182 73.5718 53.149 73.318C52.7586 73.1453 52.3539 73.0069 51.9395 72.9043C51.4801 72.8646 51.0323 72.7379 50.6202 72.531C49.8754 72.1683 49.1605 71.7475 48.4819 71.2724C47.8383 70.8288 47.1486 70.4563 46.4247 70.1613Z" fill="#FFB573"/>
<path d="M51.4766 67.8495C51.8325 67.9999 52.1883 68.1388 52.5355 68.3095C52.7098 68.3926 52.8798 68.4843 53.0448 68.5844C53.2113 68.6827 53.369 68.7949 53.5164 68.92C53.1721 68.7464 52.8278 68.5844 52.4835 68.4195C52.3099 68.3327 52.1363 68.2488 51.9684 68.1562C51.7962 68.0678 51.6317 67.9653 51.4766 67.8495Z" fill="#AF6152"/>
<path d="M56.9856 72.3199C56.6652 72.1527 56.3542 71.9682 56.0539 71.7673C55.7472 71.5763 55.426 71.4143 55.1048 71.2407C54.7837 71.0671 54.477 70.879 54.1732 70.6794C53.8626 70.4899 53.5768 70.2625 53.3225 70.0023C53.4587 70.1199 53.6049 70.2254 53.7594 70.3177C53.9128 70.4161 54.0661 70.5087 54.2224 70.607C54.5348 70.7893 54.8473 70.9687 55.1656 71.1423C55.4839 71.3159 55.8022 71.4837 56.1031 71.695C56.404 71.9062 56.6817 72.1261 56.9856 72.3199Z" fill="#AF6152"/>
<path d="M56.9712 73.4568C56.9712 73.4105 56.9451 73.3729 56.9133 73.3411C56.8789 73.3111 56.8422 73.284 56.8034 73.2601C56.7262 73.2116 56.646 73.1681 56.5632 73.1299C56.4012 73.0431 56.2305 72.9736 56.0656 72.8839C55.7415 72.7046 55.4377 72.4904 55.131 72.285C54.8299 72.0773 54.5136 71.8926 54.1848 71.7324C53.8552 71.5605 53.5372 71.3672 53.2329 71.1537C53.557 71.3302 53.8955 71.4777 54.2282 71.6369C54.567 71.7883 54.8923 71.9683 55.2004 72.1751C55.4898 72.3892 55.8023 72.5975 56.1118 72.7914C56.2652 72.8897 56.433 72.9678 56.5922 73.0662C56.6703 73.1154 56.7484 73.1646 56.8236 73.2225C56.8608 73.2505 56.8948 73.2825 56.9249 73.318C56.9443 73.3349 56.9588 73.3567 56.9669 73.3811C56.975 73.4055 56.9765 73.4317 56.9712 73.4568Z" fill="#AF6152"/>
<path d="M55.4637 73.5727C55.3638 73.432 55.2236 73.3251 55.0615 73.266C54.9082 73.1878 54.749 73.1184 54.5899 73.0461C54.2745 72.8927 53.962 72.7567 53.6467 72.6092C53.3313 72.4616 53.0217 72.3198 52.7121 72.152C52.4016 72.0034 52.0509 71.9608 51.7139 72.0305C51.8807 71.9746 52.0558 71.9472 52.2318 71.9495C52.4099 71.9576 52.5851 71.9968 52.7497 72.0652C53.068 72.207 53.3834 72.3545 53.6987 72.4992C54.0141 72.6439 54.3324 72.7886 54.6304 72.9651C54.7838 73.0461 54.94 73.1242 55.0905 73.2139C55.2505 73.2898 55.3815 73.4157 55.4637 73.5727Z" fill="#AF6152"/>
<path d="M33.9484 51.7826C31.9085 53.0702 31.5758 54.9653 32.5827 57.3582C33.3957 59.291 35.8927 64.1606 35.8927 64.1606C36.4917 62.7428 39.3648 61.0559 40.8752 61.4928L38.138 55.706C38.138 55.706 36.454 51.4788 33.9484 51.7826Z" fill="#37474F"/>
<path d="M61.9941 53.4144C62.9235 53.9944 63.8815 54.5275 64.8643 55.0115C65.7005 55.4195 66.6004 55.5005 67.5668 55.975C68.2149 56.2904 68.8254 56.8575 69.6442 57.4217C70.6077 58.0843 70.8913 58.2406 70.6685 58.5502C70.6685 58.5502 70.9578 58.7209 71.0649 58.8019C71.6002 59.1751 71.5828 59.45 71.2211 59.6699C71.2211 59.6699 71.8692 60.0866 71.7101 60.3643C71.4584 60.8012 70.9086 60.6103 70.6395 60.454C70.6395 60.454 70.9839 60.7231 70.764 60.9575C70.5441 61.1918 70.0898 61.2468 69.4214 60.8851C68.7531 60.5235 67.4568 59.8435 66.5917 59.3198C65.7266 58.7961 65.9146 59.1578 66.1837 59.3719C66.5104 59.6462 66.795 59.9669 67.0286 60.3238C67.1317 60.4672 67.1932 60.6363 67.2065 60.8124C67.2198 60.9885 67.1842 61.1648 67.1038 61.322C66.9447 61.5738 66.6061 61.2237 66.2358 60.8736C65.8654 60.5235 65.2376 60.2457 64.8354 59.9564C64.4332 59.667 64.1844 59.6092 63.4147 58.4055C62.7406 57.3494 62.0577 57.2308 60.556 56.6261C59.5173 56.2123 57.2113 55.3414 55.4694 54.6904C54.9631 54.32 54.4278 53.9149 53.8607 53.4838L57.8276 50.9579C57.8276 50.9579 60.7325 52.6563 61.9941 53.4144Z" fill="#FFB573"/>
<path d="M70.6396 60.4541C70.0088 60.0809 69.4012 59.6758 68.782 59.2967L67.859 58.7181C67.5465 58.5329 67.2659 58.2696 66.8868 58.2551C67.0717 58.2575 67.2532 58.3042 67.4163 58.3911L67.8822 58.6805L68.8225 59.2591L69.7339 59.8639C70.0378 60.0375 70.3387 60.2429 70.6396 60.4541Z" fill="#AF6152"/>
<path d="M71.2211 59.67C70.6251 59.3372 70.0464 58.9784 69.4648 58.6225C69.1755 58.4403 68.8861 58.2609 68.6113 58.0612C68.4724 57.96 68.3219 57.8616 68.2004 57.7545C68.1312 57.7017 68.0698 57.6394 68.0181 57.5693C67.9765 57.4937 67.9481 57.4115 67.9342 57.3263C67.9531 57.4086 67.9864 57.487 68.0326 57.5578C68.0876 57.6218 68.1508 57.6782 68.2207 57.7256C68.3566 57.8269 68.51 57.9194 68.6402 58.0149C68.9295 58.2059 69.2189 58.3853 69.5082 58.5618C70.0811 58.9263 70.6598 59.2851 71.2211 59.67Z" fill="#AF6152"/>
<path d="M70.6685 58.5444C70.2547 58.3418 69.8583 58.1132 69.4619 57.8818C69.2681 57.7631 69.0713 57.6445 68.8833 57.5172C68.7907 57.4478 68.6952 57.387 68.5939 57.3089C68.5207 57.223 68.463 57.1251 68.4232 57.0195C68.4715 57.1224 68.5382 57.2155 68.62 57.2944C68.7126 57.362 68.8092 57.4238 68.9093 57.4796L69.488 57.8326C69.8902 58.0583 70.2866 58.2897 70.6685 58.5444Z" fill="#AF6152"/>
<path d="M11.7357 17.5797C12.5603 16.975 13.2807 16.622 13.761 16.6799C14.5385 16.7997 15.278 17.0967 15.9224 17.5479C16.4027 17.9154 15.8877 19.1364 15.4624 18.7863C15.037 18.4362 14.1372 17.7215 13.8189 17.6694C13.1881 17.5653 12.323 18.1873 12.0829 18.277C11.8427 18.3667 11.4666 17.7823 11.7357 17.5797Z" fill="black"/>
<path d="M4.97665 21.723C5.59294 22.9267 5.07792 24.3618 4.6034 25.1025C4.19254 25.742 5.15315 26.4942 5.76076 25.8143C6.6664 24.7871 6.4899 22.7357 5.76076 21.8619L4.97665 21.723Z" fill="black"/>
<path d="M5.74926 23.2305C5.06642 23.8439 3.81937 23.5198 3.69784 22.782C2.82982 22.8283 2.22221 22.2351 2.01967 21.3353C1.84607 20.5454 2.08622 19.6745 2.87033 19.3099C2.47393 18.6213 2.56074 17.6925 3.53871 16.7753C4.51668 15.8581 5.59591 15.5485 6.14277 15.8118C6.68962 14.9438 8.59927 14.4866 9.32551 15.7886C9.79722 15.5468 10.3403 15.483 10.8552 15.6089C11.3701 15.7349 11.8224 16.0421 12.1292 16.4744C12.3663 16.8151 12.491 17.2213 12.4858 17.6364C12.4806 18.0514 12.3458 18.4544 12.1003 18.7891C12.7773 19.5935 12.245 21.2427 10.6073 21.3931C10.8966 22.157 9.58013 22.7617 9.0651 22.4377C8.81338 23.5024 6.26429 24.1795 5.74926 23.2305Z" fill="#F0F0F0"/>
<path d="M3.50112 22.322C3.50112 23.6732 2.40741 24.7264 1.65223 25.1778C1.00122 25.5655 1.52203 26.6679 2.36401 26.3352C3.63132 25.8201 4.38939 23.9105 4.12609 22.7965C3.96117 22.2237 3.49244 22.0616 3.50112 22.322Z" fill="black"/>
<path d="M10.914 19.5241C11.9006 19.2521 12.6992 19.1798 13.1187 19.3997C13.7727 19.744 14.2935 20.6467 14.6146 21.1647C14.9358 21.6826 13.9839 22.7792 13.7119 22.2989C13.4399 21.8186 12.9943 20.5831 12.7166 20.421C12.1639 20.0999 11.2409 20.288 10.9805 20.2793C10.7201 20.2706 10.5928 19.6051 10.914 19.5241Z" fill="black"/>
<path d="M8.53558 13.9514C8.16523 14.666 8.88858 16.0433 10.0141 16.9055C10.914 17.5941 12.2449 17.1225 12.2507 15.7105C12.2507 14.4172 11.8022 12.9039 11.0326 12.768C10.3266 12.6435 8.81335 13.4103 8.53558 13.9514Z" fill="black"/>
<path d="M8.48633 14.0701C8.24039 14.3218 8.3648 14.7182 8.12465 15.1725C8.00697 15.3608 7.85209 15.5231 7.6695 15.6494C7.48691 15.7758 7.28046 15.8636 7.06277 15.9074C6.62008 16.0202 6.70688 16.9808 7.3145 16.9085C7.66034 16.8615 7.98497 16.7147 8.24862 16.486C8.51227 16.2573 8.70347 15.9567 8.79881 15.6209C8.88073 15.2388 8.87479 14.8431 8.78145 14.4636L8.48633 14.0701Z" fill="black"/>
<path d="M11.1251 12.7911C11.4752 12.7738 11.7038 13.1268 12.1928 13.2454C12.4123 13.281 12.6367 13.2711 12.8523 13.2164C13.0678 13.1616 13.2697 13.0632 13.4456 12.9271C13.8218 12.6696 14.4873 13.3669 14.0243 13.7778C13.7618 14.0074 13.4378 14.1552 13.0924 14.203C12.7469 14.2508 12.395 14.1965 12.0799 14.0469C11.7352 13.8581 11.4382 13.5929 11.2119 13.2715L11.1251 12.7911Z" fill="black"/>
<path d="M7.95981 14.0121C7.9691 14.0827 7.9938 14.1504 8.03215 14.2104C8.0705 14.2704 8.12157 14.3213 8.18174 14.3594C8.24192 14.3974 8.30972 14.4219 8.38037 14.4308C8.45101 14.4398 8.52277 14.4332 8.59057 14.4114C8.64699 14.5413 8.74683 14.6476 8.87299 14.712C8.99915 14.7764 9.14377 14.7949 9.28209 14.7644C9.44977 14.7488 9.6072 14.6768 9.72862 14.5601C9.85004 14.4434 9.92825 14.289 9.95047 14.122C10.08 14.2051 10.2306 14.2492 10.3845 14.2492C10.5383 14.2492 10.689 14.2051 10.8185 14.122C11.1888 13.8964 11.1744 13.6446 11.0673 13.4855C11.1945 13.526 11.3309 13.5279 11.4592 13.4908C11.5875 13.4537 11.7018 13.3793 11.7878 13.2772C11.8518 13.1628 11.8722 13.029 11.845 12.9008C11.8179 12.7725 11.7451 12.6585 11.6402 12.5799C11.5387 12.5161 11.4246 12.4751 11.3057 12.4596C11.1869 12.4441 11.066 12.4545 10.9516 12.4902C10.8707 12.3318 10.7387 12.2053 10.5769 12.1313C10.4152 12.0572 10.2332 12.0399 10.0604 12.0822C9.69295 12.1487 9.42097 12.3166 9.36311 12.6291C9.24752 12.5697 9.11628 12.5478 8.98767 12.5664C8.85906 12.5851 8.73947 12.6434 8.64554 12.7332C8.54042 12.7982 8.4636 12.9003 8.43036 13.0193C8.39712 13.1384 8.4099 13.2655 8.46615 13.3756C8.38891 13.3783 8.31319 13.3978 8.2442 13.4326C8.1752 13.4674 8.11455 13.5168 8.06644 13.5773C8.01833 13.6377 7.98389 13.7079 7.96548 13.783C7.94707 13.8581 7.94513 13.9362 7.95981 14.0121Z" fill="#F0F0F0"/>
<path d="M31.5063 5.77745C32.4467 5.37816 33.2279 5.19877 33.6735 5.3608C34.4024 5.65324 35.0553 6.10735 35.5831 6.68887C35.968 7.15471 35.1867 8.22527 34.8511 7.78547C34.5155 7.34567 33.8037 6.44872 33.5057 6.33877C32.927 6.09283 31.9317 6.50369 31.6655 6.53263C31.3993 6.56156 31.1996 5.91055 31.5063 5.77745Z" fill="black"/>
<path d="M23.726 8.68826C24.7039 9.61993 24.6923 11.1448 24.4898 12.0012C24.3162 12.739 25.4736 13.1325 25.815 12.2905C26.3271 11.0232 25.4851 9.14542 24.4985 8.56384L23.726 8.68826Z" fill="black"/>
<path d="M24.2294 9.63151C23.4106 10.0453 22.2908 9.41162 22.366 8.66512C21.498 8.47994 21.0814 7.7537 21.1248 6.82492C21.1595 6.01476 21.6195 5.23933 22.4731 5.08888C22.2706 4.31923 22.5946 3.44542 23.778 2.81466C24.9614 2.1839 26.0927 2.16365 26.5528 2.56294C27.3109 1.85695 29.2726 1.9206 29.6372 3.3673C30.156 3.25574 30.6977 3.33507 31.1627 3.59072C31.6278 3.84637 31.985 4.26119 32.1689 4.75903C32.3127 5.15193 32.3289 5.58018 32.2151 5.98281C32.1013 6.38543 31.8634 6.74189 31.5352 7.00141C31.9808 7.95334 31.0376 9.40583 29.4202 9.1136C29.4925 9.92664 28.0747 10.1697 27.661 9.72121C27.1199 10.6905 24.4811 10.6789 24.2294 9.63151Z" fill="#F0F0F0"/>
<path d="M22.2966 8.16737C21.9551 9.47519 20.6155 10.1927 19.7677 10.4445C19.0386 10.6499 19.2556 11.8507 20.1583 11.7407C21.5153 11.5758 22.7479 9.92656 22.7798 8.78366C22.7653 8.19341 22.3544 7.91275 22.2966 8.16737Z" fill="black"/>
<path d="M29.8079 6.88845C30.7107 7.37454 31.3385 7.8722 31.489 8.31779C31.7262 9.02089 31.489 10.0307 31.3588 10.6325C31.2286 11.2343 29.7877 11.3674 29.9121 10.8322C30.0365 10.2969 30.5776 9.09611 30.4908 8.78652C30.3114 8.17312 29.5128 7.67256 29.3334 7.4816C29.154 7.29063 29.5128 6.73221 29.8079 6.88845Z" fill="black"/>
<path d="M29.3189 1.39093C28.7779 1.98697 29.1193 3.50601 29.9815 4.62865C30.6702 5.5285 32.0792 5.41855 32.4496 4.04997C32.791 2.80291 32.7389 1.22312 32.0387 0.89327C31.4022 0.595249 29.7385 0.942457 29.3189 1.39093Z" fill="black"/>
<path d="M29.2523 1.49524C28.963 1.67463 28.963 2.08839 28.6158 2.46742C28.4532 2.6182 28.2616 2.73421 28.0526 2.80834C27.8437 2.88247 27.6218 2.91316 27.4005 2.89854C26.9434 2.89854 26.7785 3.84468 27.3861 3.93148C27.7328 3.97441 28.0846 3.91513 28.3981 3.76093C28.7117 3.60672 28.9733 3.36431 29.151 3.06346C29.3337 2.71485 29.4327 2.32853 29.4404 1.93504L29.2523 1.49524Z" fill="black"/>
<path d="M32.1341 0.945557C32.4755 1.02079 32.5971 1.41718 33.0484 1.66312C33.2509 1.7541 33.4699 1.80258 33.6919 1.80556C33.9138 1.80855 34.134 1.76598 34.3389 1.68048C34.77 1.52713 35.2301 2.3749 34.6861 2.65266C34.3725 2.80555 34.0212 2.86398 33.6749 2.82083C33.3287 2.77768 33.0025 2.63481 32.736 2.40962C32.4531 2.13607 32.2364 1.80159 32.1023 1.43165L32.1341 0.945557Z" fill="black"/>
<path d="M28.7605 1.3014C28.7511 1.3721 28.7573 1.44402 28.7788 1.51204C28.8003 1.58006 28.8364 1.64252 28.8848 1.69499C28.9331 1.74746 28.9924 1.78864 29.0584 1.81563C29.1244 1.84262 29.1956 1.85474 29.2668 1.85114C29.2871 1.99197 29.3561 2.12123 29.4618 2.21641C29.5676 2.31158 29.7033 2.36663 29.8455 2.37196C30.0114 2.39968 30.1817 2.37081 30.3292 2.28999C30.4767 2.20917 30.5927 2.0811 30.6586 1.92637C30.7625 2.03893 30.8965 2.11923 31.0448 2.15771C31.193 2.19618 31.3492 2.19121 31.4948 2.14338C31.9114 2.01896 31.9664 1.77302 31.9027 1.59363C32.0139 1.66705 32.1442 1.70619 32.2774 1.70619C32.4107 1.70619 32.5409 1.66705 32.6521 1.59363C32.7447 1.50031 32.7997 1.37618 32.8066 1.24491C32.8136 1.11365 32.7719 0.984417 32.6897 0.881856C32.6089 0.793612 32.5099 0.724072 32.3994 0.678094C32.289 0.632116 32.1698 0.610809 32.0503 0.615662C32.0088 0.44411 31.9115 0.291153 31.7739 0.180697C31.6362 0.0702414 31.4658 0.00851114 31.2893 0.00515432C30.919 -0.0237797 30.6123 0.0659166 30.4763 0.355257C30.3802 0.267611 30.2591 0.212141 30.1299 0.196581C30.0008 0.181021 29.87 0.206146 29.7558 0.268454C29.6365 0.304232 29.5351 0.383685 29.4718 0.490953C29.4085 0.598221 29.388 0.725412 29.4144 0.847134C29.3413 0.82943 29.2652 0.827424 29.1913 0.841248C29.1173 0.855072 29.0472 0.884412 28.9854 0.927334C28.9236 0.970256 28.8716 1.02578 28.8328 1.09026C28.7941 1.15474 28.7694 1.2267 28.7605 1.3014Z" fill="#F0F0F0"/>
<path d="M53.3023 9.74997C54.3237 9.80205 55.1049 9.98433 55.4319 10.3286C55.9608 10.908 56.3498 11.6008 56.569 12.354C56.7108 12.9327 55.5389 13.5635 55.4319 13.0224C55.3248 12.4813 55.0731 11.3616 54.8532 11.1214C54.4279 10.644 53.366 10.5804 53.1172 10.4907C52.8683 10.401 52.9696 9.73261 53.3023 9.74997Z" fill="black"/>
<path d="M45.4496 8.69678C45.1603 10.0191 43.8611 10.8061 43.0249 11.0838C42.3045 11.3211 42.5736 12.5103 43.4705 12.3627C44.8188 12.137 45.9791 10.4357 45.9588 9.28992L45.4496 8.69678Z" fill="black"/>
<path d="M45.0938 10.346C44.1765 10.3894 43.4127 9.35357 43.7888 8.70255C43.0742 8.18174 42.9874 7.34844 43.4011 6.51803C43.7657 5.79179 44.5006 5.27098 45.3484 5.47062C45.4786 4.68651 46.1267 4.02392 47.4663 3.92555C48.806 3.82717 49.836 4.27276 50.1022 4.82829C51.0831 4.49265 52.8481 5.35199 52.5906 6.82184C53.1104 6.93349 53.5724 7.22924 53.8914 7.65459C54.2104 8.07995 54.365 8.60626 54.3266 9.13656C54.2976 9.55252 54.1388 9.94887 53.8725 10.2697C53.6061 10.5905 53.2458 10.8196 52.8423 10.9247C52.8596 11.975 51.3956 12.9182 50.0501 11.9895C49.7868 12.762 48.3922 12.4061 48.1955 11.8274C47.3014 12.4987 44.897 11.4137 45.0938 10.346Z" fill="#F0F0F0"/>
<path d="M43.9248 8.2281C43.0799 9.28419 41.5609 9.40571 40.69 9.27841C39.9377 9.16846 39.6483 10.3548 40.5164 10.6209C41.8242 11.0231 43.621 10.022 44.1158 8.98906C44.3443 8.44221 44.0753 8.03135 43.9248 8.2281Z" fill="black"/>
<path d="M51.4418 10.7367C52.3793 11.1476 53.0448 11.6047 53.23 12.0301C53.5193 12.7129 53.3544 13.7372 53.2763 14.3448C53.1981 14.9524 51.7688 15.2128 51.8614 14.6544C51.954 14.096 52.388 12.8692 52.2751 12.5711C52.0495 11.9722 51.2133 11.5353 51.0107 11.3588C50.8082 11.1823 51.138 10.6007 51.4418 10.7367Z" fill="black"/>
<path d="M53.1113 4.90942C52.3735 5.23348 52.0668 6.7583 52.3967 8.13845C52.66 9.23795 53.9909 9.71246 54.885 8.62165C55.7067 7.62054 56.3085 6.16226 55.7964 5.56911C55.3277 5.02805 53.6698 4.66637 53.1113 4.90942Z" fill="black"/>
<path d="M52.9985 4.97314C52.6513 5.01365 52.4951 5.39847 52.0234 5.60101C51.8132 5.67246 51.5906 5.70033 51.3692 5.68292C51.1479 5.66551 50.9324 5.60318 50.7359 5.49974C50.3192 5.30878 49.7839 6.11025 50.3019 6.4372C50.5996 6.61869 50.9437 6.70934 51.2922 6.69803C51.6407 6.68672 51.9783 6.57395 52.2636 6.37355C52.571 6.12842 52.8176 5.8155 52.984 5.45924L52.9985 4.97314Z" fill="black"/>
<path d="M55.8513 5.64722C56.1407 5.85265 56.0828 6.2664 56.3953 6.67437C56.5435 6.83963 56.7238 6.97287 56.9253 7.06592C57.1268 7.15896 57.3452 7.20984 57.5671 7.21544C58.0243 7.25305 58.0995 8.21366 57.4861 8.24549C57.1376 8.25753 56.7932 8.16757 56.4951 7.98665C56.197 7.80573 55.9581 7.54172 55.8079 7.22701C55.6585 6.8605 55.5962 6.46434 55.6257 6.06965L55.8513 5.64722Z" fill="black"/>
<path d="M52.6282 4.59394C52.5906 4.65462 52.5669 4.72281 52.5587 4.79368C52.5504 4.86455 52.5579 4.93637 52.5806 5.00403C52.6032 5.07169 52.6405 5.13354 52.6897 5.18518C52.7389 5.23682 52.7989 5.27698 52.8654 5.30283C52.8286 5.43842 52.8399 5.58257 52.8974 5.71077C52.9549 5.83896 53.0551 5.94326 53.1808 6.00593C53.3208 6.09924 53.4883 6.14232 53.656 6.12813C53.8236 6.11394 53.9815 6.04332 54.1038 5.9278C54.1506 6.07559 54.2396 6.20644 54.3599 6.30414C54.4803 6.40185 54.6266 6.46214 54.7809 6.47755C55.212 6.53542 55.3595 6.33288 55.3769 6.14192C55.4504 6.25265 55.555 6.33919 55.6775 6.39067C55.8 6.44215 55.935 6.45627 56.0655 6.43126C56.1878 6.38371 56.2884 6.2929 56.3481 6.17609C56.4079 6.05927 56.4226 5.92458 56.3896 5.7976C56.3522 5.68404 56.2903 5.58009 56.2083 5.49309C56.1263 5.40609 56.0262 5.33818 55.9151 5.29415C55.9477 5.12053 55.9216 4.94099 55.8409 4.78383C55.7603 4.62666 55.6296 4.50082 55.4695 4.42613C55.1425 4.24674 54.8243 4.20623 54.5841 4.42613C54.532 4.30643 54.4437 4.20606 54.3316 4.13912C54.2195 4.07218 54.0892 4.04202 53.9591 4.05288C53.8367 4.03707 53.7128 4.06787 53.6121 4.13916C53.5113 4.21044 53.441 4.31701 53.4152 4.4377C53.355 4.39125 53.2856 4.35821 53.2116 4.34083C53.1376 4.32344 53.0607 4.32211 52.9862 4.33691C52.9116 4.35171 52.8411 4.38231 52.7793 4.42665C52.7176 4.47098 52.666 4.52803 52.6282 4.59394Z" fill="#F0F0F0"/>
</svg>
