<svg width="24" height="24" viewBox="0 0 24 24" fill="none" xmlns="http://www.w3.org/2000/svg">
<path d="M20.415 4.23999C20.985 4.23999 21.415 4.73999 21.185 5.66999L18.395 18.82C18.2 19.755 17.635 19.98 16.855 19.545L10.2 14.63C10.1742 14.6115 10.1532 14.5871 10.1387 14.5588C10.1242 14.5306 10.1166 14.4993 10.1166 14.4675C10.1166 14.4357 10.1242 14.4044 10.1387 14.3762C10.1532 14.3479 10.1742 14.3235 10.2 14.305L17.885 7.36499C18.235 7.05499 17.81 6.90499 17.35 7.18499L7.70501 13.27C7.67576 13.2891 7.64255 13.3012 7.6079 13.3056C7.57325 13.3099 7.53806 13.3063 7.50501 13.295L3.41001 12C2.50001 11.735 2.50001 11.11 3.61501 10.665L20 4.34499C20.13 4.28265 20.2711 4.24695 20.415 4.23999V4.23999Z" stroke="black" stroke-width="0.5" stroke-linecap="round" stroke-linejoin="round"/>
</svg>
